M48
;Layer_Color=9474304
;FILE_FORMAT=4:3
METRIC,LZ
;TYPE=PLATED
T1F00S00C0.200
T2F00S00C0.300
T3F00S00C0.900
;TYPE=NON_PLATED
T4F00S00C0.900
%
T01
X00085Y00011
Y00022
X00096
Y00011
X00107
Y00022
Y00033
X00096
X00085
T02
X00028Y-0009075
X000495Y-0006375
X0007325Y-000755
Y-00035
X00078Y-0001675
X00096Y-00017
X000895Y-000015
X00123Y-0001425
X00133Y-00012
X001325Y000025
X00135Y000285
X0011975Y0002175
X0012125Y000515
X001295Y0005625
X001345Y0006075
X0013954Y0004604
X001025Y0004575
X00096Y000455
X000895Y0004575
X000865Y000605
X000795Y0006275
X00071Y0005125
X000575Y00036
X0005825Y00029
X0005875Y00022
X000485Y00034
X0002925Y0000775
X0003625Y-00002
X00013Y-00045
X0011225Y-0006825
Y-000925
X0013225Y-0008525
X00134Y-000505
X0012575Y-0005525
X001295Y0008525
X001245Y0009
X001195Y0008525
X001095Y0008475
X001025Y00085
X000845Y0008475
X000695Y0008675
X00074Y001015
X0005826Y0013001
X0002775Y00118
X001285Y0011
X001365Y001025
X0011435Y000925
X0014676Y0011126
X0014675Y001175
X0018801Y0013001
X0019258Y0009652
X0016525Y00078
X001825Y00059
X00147Y0005675
X00163Y00017
X0014725Y-00012
X0015075Y-000365
X00146Y-000685
X0015Y-00074
X0017675Y-00063
X00175Y-0009325
X002425
X0022025Y-00056
X00203Y-000515
X001775Y-0002125
X00212Y0002
X0021575Y0004025
X0022025Y0004975
X00226Y0006
X00232Y0004175
X0024188Y0003725
X00246Y000446
Y0005175
X00266Y000535
X0028275Y0005075
X0029075
X0028826Y00086
X002945Y00085
X0030075
X00313Y0008625
X003125Y000975
X003145Y001125
X0026Y0011975
X0026276Y00095
X0025375Y000945
X00251Y0008725
X0026Y00088
X0023625
X0022775Y00117
Y00125
X00254Y0014163
X0026625Y000295
X0028075Y-00047
X0034Y-00082
Y00056
X003425Y001495
X00342Y001575
X0032575Y0017475
X0032375Y0019075
X003115Y00211
X003025Y00214
X0027675Y00211
X002685Y00214
X00243Y00211
X002345Y00214
X0022075Y0021075
X00209Y00211
X002005Y00214
X0019125Y00206
X0018425
X0016075Y0020825
X001665Y00214
X001495
X0017525Y00235
X001745Y00242
X001775Y0028125
X001725Y0028375
X001675Y0028125
X001625Y0028375
X001575Y0028125
X001525Y0028375
X001475Y0028125
X001825Y0028375
X001875Y0028125
X0019251Y0028426
X001975Y0028125
X0020251Y0028426
X002075Y0028125
X002125Y0028426
X0023475Y0027
X00257Y0027225
X0025876Y0029776
X00269Y0029775
X0028725Y0029775
X0029775Y0029775
X0031055Y0029775
X0032Y0027925
X0032879Y0028161
X003425Y002805
X00345Y0029
X003155Y0027025
X0032275Y0025575
X0029225Y0026175
X0028775Y0027425
X002402Y002978
X001725Y00296
X0018175Y001735
X00188Y0016825
X00199Y001675
X00204Y0018275
X00224Y001625
X0023225
X001725Y001575
X0015975Y0017475
X003035Y00165
X0031325Y0014725
X003395Y00222
X00345Y002395
X0014175Y0020925
X00124Y00211
X0011575Y00214
X0009Y00211
X0008175Y00214
X0005575Y00211
X000475Y00214
X0003804Y0021054
X000235Y0020925
X0001713Y0021812
X00017Y002415
X000105Y002415
X000235Y00257
X000345Y002605
X0004575Y0027825
X0003925Y0029775
X0005775Y0029601
X0008875Y0028075
X0009325Y0026125
X0007455Y0026275
X0011625Y00265
X0012725Y0026875
X0012275Y00281
X0014251Y0028375
X00017Y0027825
X000105Y0028225
X0000875Y0017375
X00024Y001735
X00025Y001615
X00058Y001625
T03
X0033278Y000206
Y000706
X0028575Y0017075
X002745
X0026325
X00252
X0013614Y0015975
X0012225Y001595
X001245Y0017075
X0011325
X00102
X0009075
X0009011Y0015975
X0010551Y0015951
T04
X00323Y-00071
Y-00041
M30
