G04*
G04 #@! TF.GenerationSoftware,Altium Limited,Altium Designer,19.1.7 (138)*
G04*
G04 Layer_Physical_Order=1*
G04 Layer_Color=255*
%FSLAX43Y43*%
%MOMM*%
G71*
G01*
G75*
%ADD16C,0.254*%
%ADD19R,0.550X0.650*%
%ADD20R,0.660X0.559*%
%ADD21R,1.800X1.600*%
%ADD22R,0.540X0.600*%
%ADD23R,0.600X0.540*%
%ADD24R,0.890X0.930*%
%ADD25R,0.559X0.660*%
%ADD26R,0.600X0.550*%
%ADD27R,0.620X0.620*%
%ADD28R,1.000X1.600*%
%ADD29R,0.400X0.800*%
%ADD30R,0.300X0.800*%
%ADD31R,1.200X0.700*%
%ADD32R,1.200X1.000*%
%ADD33R,1.900X1.300*%
%ADD34R,2.800X1.000*%
%ADD35R,0.800X1.000*%
G04:AMPARAMS|DCode=36|XSize=0.3mm|YSize=1.45mm|CornerRadius=0.05mm|HoleSize=0mm|Usage=FLASHONLY|Rotation=0.000|XOffset=0mm|YOffset=0mm|HoleType=Round|Shape=RoundedRectangle|*
%AMROUNDEDRECTD36*
21,1,0.300,1.351,0,0,0.0*
21,1,0.201,1.450,0,0,0.0*
1,1,0.099,0.101,-0.676*
1,1,0.099,-0.101,-0.676*
1,1,0.099,-0.101,0.676*
1,1,0.099,0.101,0.676*
%
%ADD36ROUNDEDRECTD36*%
G04:AMPARAMS|DCode=37|XSize=0.3mm|YSize=1.45mm|CornerRadius=0.05mm|HoleSize=0mm|Usage=FLASHONLY|Rotation=270.000|XOffset=0mm|YOffset=0mm|HoleType=Round|Shape=RoundedRectangle|*
%AMROUNDEDRECTD37*
21,1,0.300,1.351,0,0,270.0*
21,1,0.201,1.450,0,0,270.0*
1,1,0.099,-0.676,-0.101*
1,1,0.099,-0.676,0.101*
1,1,0.099,0.676,0.101*
1,1,0.099,0.676,-0.101*
%
%ADD37ROUNDEDRECTD37*%
G04:AMPARAMS|DCode=38|XSize=0.4mm|YSize=0.85mm|CornerRadius=0.05mm|HoleSize=0mm|Usage=FLASHONLY|Rotation=90.000|XOffset=0mm|YOffset=0mm|HoleType=Round|Shape=RoundedRectangle|*
%AMROUNDEDRECTD38*
21,1,0.400,0.750,0,0,90.0*
21,1,0.300,0.850,0,0,90.0*
1,1,0.100,0.375,0.150*
1,1,0.100,0.375,-0.150*
1,1,0.100,-0.375,-0.150*
1,1,0.100,-0.375,0.150*
%
%ADD38ROUNDEDRECTD38*%
%ADD39R,1.400X1.800*%
%ADD40O,0.900X0.300*%
%ADD41O,0.300X0.900*%
%ADD42R,3.930X3.930*%
%ADD43R,0.250X0.350*%
%ADD44R,0.350X0.250*%
%ADD45R,0.650X1.050*%
%ADD46R,1.050X0.650*%
%ADD47R,0.900X0.425*%
%ADD48R,0.650X0.600*%
%ADD49R,0.800X0.800*%
%ADD50R,0.930X0.890*%
%ADD51R,1.600X1.800*%
%ADD52R,0.350X0.700*%
%ADD89C,0.152*%
%ADD90C,0.154*%
%ADD91C,0.300*%
%ADD92C,0.500*%
%ADD93C,0.600*%
%ADD94C,0.403*%
%ADD95C,0.900*%
%ADD96C,0.500*%
G36*
X3439Y4134D02*
D01*
D01*
D01*
D01*
D02*
G37*
D16*
X11979Y-9250D02*
X12004Y-9275D01*
X11225Y-9250D02*
X11979D01*
X24325Y16250D02*
X26000Y14575D01*
Y11975D02*
Y14575D01*
X23225Y16250D02*
X24325D01*
X11950Y8525D02*
X11950Y8525D01*
X11950Y7275D02*
Y8525D01*
X11950Y7275D02*
X11950Y7275D01*
X12450Y9000D02*
X12450Y9000D01*
Y7275D02*
Y9000D01*
X12950Y7275D02*
Y8525D01*
X10950Y8475D02*
X10950Y8475D01*
X15902Y14227D02*
X15925Y14250D01*
X15161Y14227D02*
X15902D01*
Y12727D02*
X15925Y12750D01*
X14704Y12270D02*
X15161Y12727D01*
X15925Y11750D02*
X15925Y11750D01*
X14675Y11750D02*
X15925D01*
X4475Y15750D02*
X4498Y15727D01*
X5479Y15013D02*
Y15487D01*
X12950Y7275D02*
X12950Y7275D01*
X5239Y14773D02*
X5479Y15013D01*
X14675Y11750D02*
X14704Y11779D01*
X12450Y7275D02*
X12450Y7275D01*
X10950D02*
X10950Y7275D01*
X14704Y12270D02*
Y13770D01*
X8450Y7275D02*
X8450Y7275D01*
X4475Y14750D02*
X4498Y14773D01*
X10950Y7275D02*
Y8475D01*
X4498Y15727D02*
X5239D01*
X14223Y14250D02*
X14704Y13770D01*
X8450Y8475D02*
X8450Y8475D01*
X15161Y12727D02*
X15902D01*
X4475Y14250D02*
X14223D01*
X8450Y7275D02*
Y8475D01*
X4475Y14250D02*
Y14750D01*
X5239Y15727D02*
X5479Y15487D01*
X14704Y11779D02*
Y12270D01*
X4498Y14773D02*
X5239D01*
X14675Y11750D02*
X14675Y11750D01*
X12950Y8525D02*
X12950Y8525D01*
X14704Y13770D02*
X15161Y14227D01*
X25100Y8725D02*
X25100Y8725D01*
X25100Y7275D02*
Y8725D01*
X22775Y12500D02*
Y13675D01*
X29600Y7275D02*
X29623Y7298D01*
X31828Y14244D02*
X32698D01*
X31811Y12727D02*
X32552D01*
X31571Y12487D02*
X31811Y12727D01*
X31571Y12013D02*
X31811Y11773D01*
X32552D02*
X32575Y11750D01*
X30350Y15020D02*
Y16500D01*
Y15020D02*
X31126Y14244D01*
X31571Y12487D02*
Y13987D01*
X31828Y14244D01*
X21148Y15727D02*
X21889D01*
X21125Y15750D02*
X21148Y15727D01*
X22223Y14227D02*
X22775Y13675D01*
X21148Y14227D02*
X22223D01*
X32552Y12727D02*
X32575Y12750D01*
X21125Y14750D02*
X21700D01*
X21889Y15727D02*
X22223Y15393D01*
X31571Y12013D02*
Y12487D01*
X21700Y14750D02*
X22223Y14227D01*
X31811Y11773D02*
X32552D01*
X31126Y14244D02*
X31828D01*
X21125Y14250D02*
X21148Y14227D01*
X22223D02*
Y15393D01*
X16095Y-9325D02*
X17500D01*
X16020Y-9250D02*
X16095Y-9325D01*
X15796Y-6050D02*
X16023Y-5822D01*
Y-5627D01*
X16025Y-5625D01*
X15796Y-7091D02*
Y-6050D01*
Y-7091D02*
X16053Y-7348D01*
X16248D01*
X16250Y-7350D01*
X14523Y-5623D02*
X14525Y-5625D01*
X12575Y-5525D02*
X12575Y-5525D01*
Y-6175D02*
Y-5525D01*
Y-6175D02*
X12575Y-6175D01*
X16429Y-8841D02*
Y-7483D01*
X16020Y-9250D02*
X16429Y-8841D01*
X16250Y-7350D02*
X16296D01*
X16429Y-7483D01*
D19*
X3425Y-6400D02*
D03*
X2425D02*
D03*
X14325Y-1925D02*
D03*
X13325D02*
D03*
D20*
X13096Y-9275D02*
D03*
X12004D02*
D03*
X2096Y13650D02*
D03*
X1004D02*
D03*
X18129Y13650D02*
D03*
X19221D02*
D03*
D21*
X19275Y10900D02*
D03*
Y8100D02*
D03*
X1225Y10950D02*
D03*
Y8150D02*
D03*
D22*
X19657Y12225D02*
D03*
X18793D02*
D03*
X1882Y12225D02*
D03*
X1018D02*
D03*
X18843Y6625D02*
D03*
X19707D02*
D03*
D23*
X2950Y10257D02*
D03*
Y9393D02*
D03*
X34225Y8975D02*
D03*
Y8111D02*
D03*
X34225Y10618D02*
D03*
Y9754D02*
D03*
X34225Y12268D02*
D03*
Y11404D02*
D03*
X17425Y8657D02*
D03*
Y7793D02*
D03*
X17425Y6136D02*
D03*
Y7000D02*
D03*
X17425Y9443D02*
D03*
Y10307D02*
D03*
D24*
X2295Y14700D02*
D03*
X755D02*
D03*
X19445D02*
D03*
X17905D02*
D03*
X14480Y-9250D02*
D03*
X16020D02*
D03*
D25*
X34200Y14214D02*
D03*
Y13122D02*
D03*
X5225Y-129D02*
D03*
Y-1221D02*
D03*
X5225Y1254D02*
D03*
Y2346D02*
D03*
X17425Y12246D02*
D03*
Y11154D02*
D03*
D26*
X34425Y19100D02*
D03*
X33575D02*
D03*
X17825Y19100D02*
D03*
X16975D02*
D03*
D27*
X34460Y18150D02*
D03*
X33540D02*
D03*
X17850Y18175D02*
D03*
X16930D02*
D03*
D28*
X32025Y28900D02*
D03*
X33775Y26600D02*
D03*
X30275D02*
D03*
X2750Y28800D02*
D03*
X4500Y26500D02*
D03*
X1000D02*
D03*
X10275Y28800D02*
D03*
X8525Y26500D02*
D03*
X6775Y28800D02*
D03*
D29*
X22750Y29600D02*
D03*
X12250D02*
D03*
D30*
X21250Y27100D02*
D03*
X20750D02*
D03*
X21750D02*
D03*
X19750D02*
D03*
X19250D02*
D03*
X20250D02*
D03*
X18250D02*
D03*
X17750D02*
D03*
X18750D02*
D03*
X17250D02*
D03*
X16250D02*
D03*
X15750D02*
D03*
X15250D02*
D03*
X14750D02*
D03*
X16750D02*
D03*
X13750D02*
D03*
X13250D02*
D03*
X14250D02*
D03*
D31*
X18800Y-6300D02*
D03*
Y-5200D02*
D03*
Y-4100D02*
D03*
Y-3000D02*
D03*
Y-1900D02*
D03*
Y-800D02*
D03*
Y300D02*
D03*
Y-7400D02*
D03*
Y-8350D02*
D03*
D32*
Y1850D02*
D03*
X23100Y-9300D02*
D03*
D33*
X33900Y4200D02*
D03*
D34*
X33450Y-9300D02*
D03*
D35*
X29300D02*
D03*
D36*
X13950Y18725D02*
D03*
X13450D02*
D03*
X12950D02*
D03*
X12450D02*
D03*
X11950D02*
D03*
X11450D02*
D03*
X10950D02*
D03*
X10450D02*
D03*
X9950D02*
D03*
X9450D02*
D03*
X8950D02*
D03*
X8450D02*
D03*
X7950D02*
D03*
X7450D02*
D03*
X6950D02*
D03*
X6450D02*
D03*
Y7275D02*
D03*
X6950D02*
D03*
X7450D02*
D03*
X7950D02*
D03*
X8450D02*
D03*
X8950D02*
D03*
X9450D02*
D03*
X9950D02*
D03*
X10450D02*
D03*
X10950D02*
D03*
X11450D02*
D03*
X11950D02*
D03*
X12450D02*
D03*
X12950D02*
D03*
X13450D02*
D03*
X13950D02*
D03*
X30600Y18725D02*
D03*
X30100D02*
D03*
X29600D02*
D03*
X29100D02*
D03*
X28600D02*
D03*
X28100D02*
D03*
X27600D02*
D03*
X27100D02*
D03*
X26600D02*
D03*
X26100D02*
D03*
X25600D02*
D03*
X25100D02*
D03*
X24600D02*
D03*
X24100D02*
D03*
X23600D02*
D03*
X23100D02*
D03*
Y7275D02*
D03*
X23600D02*
D03*
X24100D02*
D03*
X24600D02*
D03*
X25100D02*
D03*
X25600D02*
D03*
X26100D02*
D03*
X26600D02*
D03*
X27100D02*
D03*
X27600D02*
D03*
X28100D02*
D03*
X28600D02*
D03*
X29100D02*
D03*
X29600D02*
D03*
X30100D02*
D03*
X30600D02*
D03*
D37*
X4475Y16750D02*
D03*
Y16250D02*
D03*
Y15750D02*
D03*
Y15250D02*
D03*
Y14750D02*
D03*
Y14250D02*
D03*
Y13750D02*
D03*
Y13250D02*
D03*
Y12750D02*
D03*
Y12250D02*
D03*
Y11750D02*
D03*
Y11250D02*
D03*
Y10750D02*
D03*
Y10250D02*
D03*
Y9750D02*
D03*
Y9250D02*
D03*
X15925D02*
D03*
Y9750D02*
D03*
Y10250D02*
D03*
Y10750D02*
D03*
Y11250D02*
D03*
Y11750D02*
D03*
Y12250D02*
D03*
Y12750D02*
D03*
Y13250D02*
D03*
Y13750D02*
D03*
Y14250D02*
D03*
Y14750D02*
D03*
Y15250D02*
D03*
Y15750D02*
D03*
Y16250D02*
D03*
Y16750D02*
D03*
X21125Y16750D02*
D03*
Y16250D02*
D03*
Y15750D02*
D03*
Y15250D02*
D03*
Y14750D02*
D03*
Y14250D02*
D03*
Y13750D02*
D03*
Y13250D02*
D03*
Y12750D02*
D03*
Y12250D02*
D03*
Y11750D02*
D03*
Y11250D02*
D03*
Y10750D02*
D03*
Y10250D02*
D03*
Y9750D02*
D03*
Y9250D02*
D03*
X32575D02*
D03*
Y9750D02*
D03*
Y10250D02*
D03*
Y10750D02*
D03*
Y11250D02*
D03*
Y11750D02*
D03*
Y12250D02*
D03*
Y12750D02*
D03*
Y13250D02*
D03*
Y13750D02*
D03*
Y14250D02*
D03*
Y14750D02*
D03*
Y15250D02*
D03*
Y15750D02*
D03*
Y16250D02*
D03*
Y16750D02*
D03*
D38*
X10325Y-6175D02*
D03*
Y-6825D02*
D03*
Y-7475D02*
D03*
X12575D02*
D03*
Y-6175D02*
D03*
D39*
X3575Y2750D02*
D03*
Y-1650D02*
D03*
X1175D02*
D03*
Y2750D02*
D03*
D40*
X6650Y4150D02*
D03*
Y3500D02*
D03*
Y2850D02*
D03*
Y2200D02*
D03*
Y1550D02*
D03*
Y900D02*
D03*
Y250D02*
D03*
X12550D02*
D03*
Y900D02*
D03*
Y1550D02*
D03*
Y2200D02*
D03*
Y2850D02*
D03*
Y3500D02*
D03*
Y4150D02*
D03*
D41*
X7650Y-750D02*
D03*
X8300D02*
D03*
X8950D02*
D03*
X9600D02*
D03*
X10250D02*
D03*
X10900D02*
D03*
X11550D02*
D03*
Y5150D02*
D03*
X10900D02*
D03*
X10250D02*
D03*
X9600D02*
D03*
X8950D02*
D03*
X8300D02*
D03*
X7650D02*
D03*
D42*
X9600Y2200D02*
D03*
D43*
X16025Y-5625D02*
D03*
X15525D02*
D03*
X15025D02*
D03*
X14525D02*
D03*
X14025D02*
D03*
Y-8075D02*
D03*
X14525D02*
D03*
X15025D02*
D03*
X15525D02*
D03*
X16025D02*
D03*
D44*
X13800Y-6350D02*
D03*
Y-6850D02*
D03*
Y-7350D02*
D03*
X16250D02*
D03*
Y-6850D02*
D03*
Y-6350D02*
D03*
D45*
X17625Y4800D02*
D03*
X15475D02*
D03*
X17625Y650D02*
D03*
X15475D02*
D03*
X9475Y-4525D02*
D03*
X7325D02*
D03*
X9475Y-8675D02*
D03*
X7325D02*
D03*
D46*
X4925Y-9525D02*
D03*
Y-7375D02*
D03*
X775Y-9525D02*
D03*
Y-7375D02*
D03*
X4925Y-5400D02*
D03*
Y-3250D02*
D03*
X775Y-5400D02*
D03*
Y-3250D02*
D03*
D47*
X31950Y21800D02*
D03*
Y22600D02*
D03*
Y23400D02*
D03*
Y24200D02*
D03*
X30250D02*
D03*
Y23400D02*
D03*
Y22600D02*
D03*
Y21800D02*
D03*
X28550D02*
D03*
Y22600D02*
D03*
Y23400D02*
D03*
Y24200D02*
D03*
X26850D02*
D03*
Y23400D02*
D03*
Y22600D02*
D03*
Y21800D02*
D03*
X25150D02*
D03*
Y22600D02*
D03*
Y23400D02*
D03*
Y24200D02*
D03*
X23450D02*
D03*
Y23400D02*
D03*
Y22600D02*
D03*
Y21800D02*
D03*
X21750D02*
D03*
Y22600D02*
D03*
Y23400D02*
D03*
Y24200D02*
D03*
X20050D02*
D03*
Y23400D02*
D03*
Y22600D02*
D03*
Y21800D02*
D03*
X18350D02*
D03*
Y22600D02*
D03*
Y23400D02*
D03*
Y24200D02*
D03*
X16650D02*
D03*
Y23400D02*
D03*
Y22600D02*
D03*
Y21800D02*
D03*
X13250Y24200D02*
D03*
Y23400D02*
D03*
Y22600D02*
D03*
Y21800D02*
D03*
X14950D02*
D03*
Y22600D02*
D03*
Y23400D02*
D03*
Y24200D02*
D03*
X9850D02*
D03*
Y23400D02*
D03*
Y22600D02*
D03*
Y21800D02*
D03*
X11550D02*
D03*
Y22600D02*
D03*
Y23400D02*
D03*
Y24200D02*
D03*
X6450D02*
D03*
Y23400D02*
D03*
Y22600D02*
D03*
Y21800D02*
D03*
X8150D02*
D03*
Y22600D02*
D03*
Y23400D02*
D03*
Y24200D02*
D03*
X3050D02*
D03*
Y23400D02*
D03*
Y22600D02*
D03*
Y21800D02*
D03*
X4750D02*
D03*
Y22600D02*
D03*
Y23400D02*
D03*
Y24200D02*
D03*
D48*
X3550Y4375D02*
D03*
X2700D02*
D03*
D49*
X650Y5875D02*
D03*
Y4375D02*
D03*
D50*
X14325Y355D02*
D03*
Y1895D02*
D03*
D51*
X13675Y-3650D02*
D03*
X16475D02*
D03*
D52*
X34675Y3350D02*
D03*
D89*
X18301Y1426D02*
X18875Y2000D01*
X23100Y6500D02*
Y7275D01*
Y4942D02*
Y6500D01*
X22600Y6000D02*
X23100Y6500D01*
X21250Y27100D02*
X21250Y27101D01*
Y28426D01*
X20750Y26365D02*
Y27100D01*
X20750D02*
X20750Y27100D01*
X19750Y27100D02*
X19750Y27100D01*
X19250Y28426D02*
X19251Y28426D01*
X16250Y27100D02*
Y28375D01*
X19250Y27100D02*
Y28426D01*
X19750Y27100D02*
Y27100D01*
X15750Y27100D02*
Y28125D01*
X15250Y27100D02*
Y27100D01*
X19125Y20600D02*
Y24419D01*
X19750Y27100D02*
X19750D01*
X23475Y26776D02*
Y27000D01*
X15176Y27026D02*
X15250Y27100D01*
X17250Y27100D02*
Y28375D01*
X18750Y27100D02*
X18750D01*
Y27100D01*
X17750Y25794D02*
Y27100D01*
X20250D02*
Y28375D01*
X20750Y27100D02*
Y28125D01*
X19750Y27100D02*
Y28125D01*
X13676Y27026D02*
X13750Y27100D01*
X17225Y27075D02*
X17250Y27100D01*
X17750D02*
Y28125D01*
X18250Y27100D02*
Y28375D01*
X21824Y26776D02*
X23475D01*
X15250Y27100D02*
Y28375D01*
X21250Y26625D02*
Y27100D01*
X18750Y27100D02*
Y28125D01*
X17750Y25794D02*
X19125Y24419D01*
X21750Y26850D02*
Y27100D01*
X18750D02*
X18750Y27100D01*
X20750Y27100D02*
Y27100D01*
X16750Y27100D02*
Y28125D01*
X21750Y26850D02*
X21824Y26776D01*
X13676Y26653D02*
Y27026D01*
X19250Y27100D02*
X19250Y27100D01*
X13176Y26974D02*
X13250Y27048D01*
X13250Y26949D02*
Y27100D01*
X12250Y29600D02*
X17250D01*
X14250Y27100D02*
Y28426D01*
X13250Y27100D02*
Y27231D01*
X12725Y26875D02*
X13176D01*
X22750Y29600D02*
X22750Y29600D01*
X13176Y26875D02*
X13250Y26949D01*
X14250Y28426D02*
X14251Y28426D01*
X14750Y27100D02*
Y28125D01*
X13176Y27305D02*
X13250Y27231D01*
X17250Y29600D02*
X22750D01*
X13250Y27048D02*
Y27100D01*
X12250Y29600D02*
X12250Y29600D01*
X28291Y25571D02*
X32127D01*
X23475Y26776D02*
X27086D01*
X34195Y8111D02*
X34255D01*
X14455Y-9275D02*
Y-9205D01*
X5022Y2499D02*
X5428Y2092D01*
X24875Y11250D02*
X31450D01*
X32575D01*
X6450Y9325D02*
X6875Y9750D01*
X7275Y10150D01*
X14971Y15034D02*
Y16596D01*
X15175Y16800D01*
X15182Y14824D02*
X15851D01*
X15875Y16800D02*
X15925Y16750D01*
X14971Y15034D02*
X15182Y14824D01*
X15175Y16800D02*
X15875D01*
X15925Y14750D02*
X15925Y14750D01*
X15925Y16750D02*
X15975Y16800D01*
X15851Y14824D02*
X15925Y14750D01*
X17250Y15750D02*
X17601Y16101D01*
X16750Y15250D02*
X17250Y15750D01*
X16925Y16581D02*
Y18325D01*
X16524Y16180D02*
X16925Y16581D01*
X17601Y16101D02*
Y18901D01*
X5800Y16250D02*
X5800Y16250D01*
X4475Y9750D02*
X6875D01*
X7275Y10150D02*
X7400D01*
X28526Y7349D02*
Y8018D01*
X27044Y9500D02*
X28526Y8018D01*
X31300Y8625D02*
X31348Y8673D01*
X26000Y8800D02*
X26744D01*
X6450Y7275D02*
Y9325D01*
X11443Y7283D02*
Y9242D01*
X11435Y9250D02*
X11443Y9242D01*
Y7283D02*
X11450Y7275D01*
X13650Y10250D02*
X13657Y10243D01*
X10450Y19750D02*
X11625Y20925D01*
X11475Y19500D02*
X13334Y21359D01*
X11475Y18750D02*
Y19500D01*
X9450Y19750D02*
X11100Y21400D01*
X11625Y20925D02*
X12225D01*
X10450Y18725D02*
Y19750D01*
X11100Y21400D02*
X11575D01*
Y21775D01*
X12225Y20925D02*
X12400Y21100D01*
X13334Y21359D02*
X14909D01*
X9450Y18725D02*
Y19750D01*
X12400Y21100D02*
Y21978D01*
X9450Y18725D02*
X9450Y18725D01*
X11450D02*
X11475Y18750D01*
X11550Y21800D02*
X11575Y21775D01*
X8328Y5728D02*
X8650Y6050D01*
X8300Y5150D02*
X8328Y5178D01*
Y5728D01*
X7100Y5125D02*
X7625D01*
X7650Y5150D02*
Y5450D01*
X7625Y5125D02*
X7650Y5150D01*
X5428Y2038D02*
X5917Y1550D01*
X5428Y2038D02*
Y2092D01*
X8950Y4575D02*
X8950Y4575D01*
X10250D02*
X10250Y4575D01*
X7950Y6275D02*
Y7275D01*
X12950Y4308D02*
Y5625D01*
X12792Y4150D02*
X12950Y4308D01*
X12550Y4150D02*
X12792D01*
X5825Y2900D02*
X5850Y2875D01*
X6625D01*
X6650Y2850D01*
X5917Y1550D02*
X6650D01*
X5875Y2200D02*
X6650D01*
X6650Y2200D01*
X16450Y15750D02*
X16524Y15824D01*
X15851Y13750D02*
X15925D01*
X15925Y15250D02*
X16750D01*
X15925Y15250D02*
X15925Y15250D01*
X15918Y10243D02*
X15925Y10250D01*
Y13250D02*
Y13676D01*
X15975Y16800D02*
Y17475D01*
X10450Y7275D02*
Y8300D01*
X10250Y8500D02*
X10450Y8300D01*
X4475Y16250D02*
X5800D01*
X13657Y10243D02*
X15918D01*
X15925Y9250D02*
X15999Y9324D01*
X13450Y6075D02*
X13450Y6075D01*
X6950Y7275D02*
Y8675D01*
X7950Y7275D02*
X7950Y7275D01*
X4475Y12750D02*
X5507D01*
X15480Y13750D02*
X15851D01*
X5758Y13001D02*
X5826D01*
X16524Y15824D02*
Y16180D01*
X5507Y12750D02*
X5758Y13001D01*
X15925Y15750D02*
X16450D01*
X15925Y10250D02*
X15999Y10176D01*
X13450Y7275D02*
X13450Y7275D01*
X13450Y6075D02*
Y7275D01*
X15851Y13750D02*
X15925Y13676D01*
X5750Y3600D02*
X5818D01*
X5918Y3500D01*
X6650D01*
X33529Y16534D02*
Y19054D01*
X18575Y-2125D02*
X18800Y-1900D01*
X26400Y-6300D02*
X28000Y-4700D01*
X18875Y2000D02*
X21200D01*
X28000Y-4700D02*
X28075D01*
X17750Y-2125D02*
X18575D01*
X34000Y4300D02*
Y5600D01*
X18800Y-6300D02*
X26400D01*
X17675D02*
X18800D01*
X34000Y-8876D02*
Y-8200D01*
X18850Y-5150D02*
X20300D01*
X33450Y-9300D02*
X33576D01*
X33900Y4200D02*
X34000Y4300D01*
X23100Y-9300D02*
X23125Y-9325D01*
X33576Y-9300D02*
X34000Y-8876D01*
X23125Y-9325D02*
X24250D01*
X18800Y-5200D02*
X18850Y-5150D01*
X24700Y4475D02*
X26526Y6301D01*
X24700Y4450D02*
Y4475D01*
X18400Y4800D02*
X21200Y2000D01*
X17625Y4800D02*
X18400D01*
X15925Y7606D02*
Y9250D01*
X16896Y8179D02*
Y9808D01*
Y8179D02*
X17088Y7987D01*
X16896Y9808D02*
X17395Y10307D01*
X18793Y12225D02*
Y13007D01*
X17395Y10307D02*
X17425D01*
X15925Y7606D02*
X17395Y6136D01*
X12700Y-5050D02*
X13400D01*
X12300Y-4650D02*
X12700Y-5050D01*
X12300Y-4650D02*
Y-1425D01*
X25375Y9450D02*
X25414Y9411D01*
X26276Y9500D02*
X26277Y9500D01*
X25550Y8318D02*
Y8883D01*
X25414Y9020D02*
X25550Y8883D01*
X25816Y8229D02*
X26026Y8018D01*
X25639Y8229D02*
X25816D01*
X25550Y8318D02*
X25639Y8229D01*
X16525Y7800D02*
X17418D01*
X26277Y9500D02*
X27044D01*
X25414Y9020D02*
Y9411D01*
X26744Y8800D02*
X27526Y8018D01*
X17954Y6635D02*
Y8158D01*
X17455Y6136D02*
X17954Y6635D01*
X17455Y8657D02*
X17954Y8158D01*
X22325Y10250D02*
X22675Y9900D01*
Y9050D02*
Y9900D01*
X19148Y9652D02*
X19258D01*
X21027D01*
X27526Y7349D02*
Y8018D01*
Y7349D02*
X27600Y7275D01*
X28526Y7349D02*
X28600Y7275D01*
X26026Y7349D02*
Y8018D01*
Y7349D02*
X26100Y7275D01*
X14025Y-5748D02*
X14696Y-6420D01*
X14025Y-5748D02*
Y-5625D01*
X14696Y-6420D02*
X14778D01*
X7325Y-4525D02*
X7325Y-4525D01*
X7325Y-4525D02*
Y-3500D01*
Y-8675D02*
X7325Y-8675D01*
X7325Y-8675D02*
Y-7550D01*
X9351Y-9285D02*
Y-8799D01*
X9111Y-9525D02*
X9351Y-9285D01*
X8331Y-8256D02*
Y-5094D01*
Y-8256D02*
X8874Y-8799D01*
X8331Y-5094D02*
X8900Y-4525D01*
X13775Y-8525D02*
X14455Y-9205D01*
X13225Y-8525D02*
X13775D01*
X17625Y650D02*
Y850D01*
Y450D02*
Y650D01*
X1621Y4904D02*
X3970D01*
X650Y5875D02*
X1621Y4904D01*
X11986Y4711D02*
X12336D01*
X11825Y4550D02*
X11986Y4711D01*
X11825Y3275D02*
Y4550D01*
X12336Y4711D02*
X12555Y4930D01*
X12550Y250D02*
X12550Y250D01*
X8950Y4575D02*
Y5150D01*
X7650Y-1457D02*
Y-1050D01*
X11550Y5150D02*
X12125D01*
X8950Y5150D02*
X8950Y5150D01*
X7650Y-1457D02*
X7800Y-1607D01*
X13250Y250D02*
X13250Y250D01*
X11550Y5150D02*
X11550Y5150D01*
X7800Y-1675D02*
Y-1607D01*
X13500Y2850D02*
X13500Y2850D01*
X12537Y2188D02*
X12550Y2200D01*
X9600Y-1700D02*
X9600Y-1700D01*
X10250Y5150D02*
X10250Y5150D01*
X11988Y2188D02*
X12537D01*
X12550Y2850D02*
X13500D01*
X9600Y-1700D02*
Y-750D01*
X10250Y4575D02*
Y5150D01*
X7650Y-1050D02*
Y-750D01*
X11975Y2175D02*
X11988Y2188D01*
X12550Y2850D02*
X12550Y2850D01*
X9600Y-750D02*
X9600Y-750D01*
X12550Y250D02*
X13250D01*
X12555Y4930D02*
Y5328D01*
X11450Y6433D02*
Y7275D01*
Y6433D02*
X12555Y5328D01*
X11550Y5150D02*
Y5450D01*
X10690Y6310D02*
X11550Y5450D01*
X11825Y3275D02*
X12250Y2850D01*
X12550D01*
X21200Y2000D02*
Y3042D01*
X23100Y4942D01*
X31325Y14725D02*
X31337Y14737D01*
X34202Y14902D02*
X34250Y14950D01*
X32575Y16750D02*
Y17475D01*
X33955Y14902D02*
X34202D01*
X33101Y15750D02*
X33174Y15824D01*
X33637Y14584D02*
X33955Y14902D01*
X32575Y15250D02*
X33700D01*
X33174Y13680D02*
X33637Y14142D01*
X33101Y13250D02*
X33174Y13324D01*
Y13680D01*
X32575Y9250D02*
X32575Y9250D01*
X32575Y10750D02*
X33101D01*
X32521Y9196D02*
X32575Y9250D01*
X31621Y9196D02*
X32521D01*
X33529Y9368D02*
Y9966D01*
X31348Y8923D02*
X31621Y9196D01*
X31337Y14737D02*
X32563D01*
X26526Y7201D02*
X26600Y7275D01*
X28275Y5075D02*
Y5143D01*
X27100Y5850D02*
Y7275D01*
X23225Y11250D02*
X24875D01*
X32575Y16750D02*
X32575Y16750D01*
X22775Y11700D02*
X23225Y11250D01*
X33174Y15824D02*
Y16180D01*
X26600Y5350D02*
X27100Y5850D01*
X22727Y11748D02*
X22775Y11700D01*
X22727Y11748D02*
Y11817D01*
X21868Y12676D02*
X22727Y11817D01*
X24600Y7275D02*
X24600Y7275D01*
X21868Y12676D02*
X22079Y12887D01*
X33411Y9250D02*
X33529Y9368D01*
X21642Y19750D02*
X22875D01*
X21125Y13750D02*
X21125Y13750D01*
X22875Y19750D02*
X23100Y19525D01*
X22079Y12887D02*
Y13466D01*
X19900Y16750D02*
X19900Y16750D01*
X20171Y13929D02*
X20350Y13750D01*
X33174Y10320D02*
X33529Y9966D01*
X23100Y18725D02*
Y19525D01*
X21868Y13676D02*
X22079Y13466D01*
X19900Y16750D02*
X21125D01*
X20171Y13929D02*
Y14966D01*
X33101Y10750D02*
X33174Y10676D01*
X23100Y18725D02*
X23100Y18725D01*
X20050Y21342D02*
Y21400D01*
X22400Y16250D02*
X22400Y16250D01*
X20382Y15176D02*
X21051D01*
X26526Y6301D02*
Y7201D01*
X21027Y9652D02*
X21125Y9750D01*
Y13750D02*
X21199Y13676D01*
X32563Y14737D02*
X32575Y14750D01*
Y13250D02*
X33101D01*
X25400Y14050D02*
Y14163D01*
X28100Y5318D02*
X28275Y5143D01*
X33700Y15250D02*
X34200Y15750D01*
X24600Y5175D02*
Y7275D01*
X20350Y13750D02*
X21125D01*
X33174Y10320D02*
Y10676D01*
X31348Y8673D02*
Y8923D01*
X32575Y9250D02*
X33411D01*
X28100Y5318D02*
Y7275D01*
X32575Y15750D02*
X33101D01*
X33637Y14142D02*
Y14584D01*
X24875Y13525D02*
X25400Y14050D01*
X24875Y11250D02*
Y13525D01*
X20171Y14966D02*
X20382Y15176D01*
X21125Y16750D02*
X21125Y16750D01*
X21199Y13676D02*
X21868D01*
X24600Y5175D02*
X24600Y5175D01*
X20050Y21342D02*
X21642Y19750D01*
X21125Y16250D02*
X22400D01*
X27675Y21100D02*
X28100Y20675D01*
X21051Y15176D02*
X21125Y15250D01*
X28100Y18725D02*
Y20675D01*
X21125Y16250D02*
X21125Y16250D01*
X18201Y1426D02*
X18301D01*
X23630Y2680D02*
Y7245D01*
X19050Y-1900D02*
X23630Y2680D01*
X21100Y5900D02*
X22025Y4975D01*
X18800Y-1900D02*
X19050D01*
X5575Y21100D02*
X6450Y20225D01*
Y18725D02*
Y20225D01*
X23600Y7275D02*
X23630Y7245D01*
X18250Y5900D02*
X21100D01*
X15430Y-7980D02*
Y-7072D01*
Y-7980D02*
X15525Y-8075D01*
X14778Y-6420D02*
X15430Y-7072D01*
X15000Y-8050D02*
Y-7400D01*
Y-8050D02*
X15025Y-8075D01*
X14250Y-5050D02*
X17600D01*
X18550Y-4100D01*
X18800D01*
X14600Y-6850D02*
X14600Y-6850D01*
X14525Y-9205D02*
Y-8125D01*
X15476Y-8124D02*
X15525Y-8075D01*
X15476Y-8247D02*
Y-8124D01*
X15245Y-8479D02*
X15476Y-8247D01*
X14805Y-8479D02*
X15245D01*
X14671Y-8345D02*
X14805Y-8479D01*
X14671Y-8345D02*
Y-8271D01*
X14525Y-8125D02*
X14671Y-8271D01*
X14525Y-8125D02*
Y-8075D01*
X14480Y-9250D02*
X14525Y-9205D01*
X650Y20925D02*
X2350D01*
X445Y20720D02*
X650Y20925D01*
X445Y15010D02*
Y20720D01*
Y15010D02*
X755Y14700D01*
X34201Y15751D02*
Y18901D01*
X14176Y27026D02*
X14250Y27100D01*
X13300Y-1900D02*
X13325Y-1925D01*
X13300Y-1900D02*
Y-1200D01*
X14784Y-104D02*
X17071D01*
X17625Y450D01*
X14325Y355D02*
X14784Y-104D01*
X15075Y-3650D02*
Y-2725D01*
X14325Y-1975D02*
X15075Y-2725D01*
X14325Y-1975D02*
Y-1925D01*
X1300Y-4500D02*
X1325Y-4525D01*
X7325D01*
X13400Y-5050D02*
X14250D01*
X13677Y-6350D02*
X13800D01*
X12924Y-7103D02*
X13677Y-6350D01*
X14525Y-5625D02*
Y-5325D01*
X14525Y-5625D02*
X14525Y-5625D01*
X14250Y-5050D02*
X14525Y-5325D01*
X3521Y14034D02*
Y15045D01*
X3727Y15250D01*
X2978D02*
X3727D01*
X2835Y15394D02*
X2978Y15250D01*
X1429Y15394D02*
X2835D01*
X15925Y13750D02*
X15925Y13750D01*
X4475Y16750D02*
X4521D01*
X4475Y16250D02*
X4475Y16250D01*
X10201Y-7351D02*
X10325Y-7475D01*
X9932Y-7351D02*
X10201D01*
X9671Y-7090D02*
X9932Y-7351D01*
X9671Y-7090D02*
Y-4721D01*
X9475Y-4525D02*
X9671Y-4721D01*
X10500Y-6175D02*
X11411D01*
X10325D02*
X10500D01*
X11411D02*
X11725Y-6489D01*
Y-7775D02*
Y-6489D01*
Y-7775D02*
X11925Y-7975D01*
X13125D01*
X13750Y-7350D01*
X13800D01*
X12575Y-7475D02*
X12800D01*
X12924Y-7351D01*
Y-7103D01*
X13800Y-6850D02*
X14600D01*
X13800Y-6850D02*
X13800Y-6850D01*
X10624Y-1705D02*
X10900Y-1429D01*
X10624Y-6051D02*
Y-1705D01*
X10500Y-6175D02*
X10624Y-6051D01*
X10900Y-1429D02*
Y-750D01*
X18750D02*
X18800Y-800D01*
X11550Y-750D02*
X18750D01*
X3575Y2776D02*
X4199Y3400D01*
X3575Y2750D02*
Y2776D01*
X4199Y3400D02*
X4850D01*
X5812Y-1588D02*
Y-767D01*
X5225Y-180D02*
X5812Y-767D01*
X5620Y-1780D02*
X5812Y-1588D01*
X3705Y-1780D02*
X5620D01*
X3575Y-1650D02*
X3705Y-1780D01*
X3625Y-200D02*
X4255D01*
X5225Y-1170D01*
Y-1221D02*
Y-1170D01*
X2991Y-200D02*
X3625D01*
X2365Y-826D02*
X2991Y-200D01*
X1799Y-826D02*
X2365D01*
X1175Y-1450D02*
X1799Y-826D01*
X1175Y-1650D02*
Y-1450D01*
X5225Y-129D02*
Y-78D01*
Y-180D02*
Y-129D01*
X3575Y-1650D02*
Y-1450D01*
X5225Y-78D02*
X5553Y250D01*
X6650D01*
X5377Y1052D02*
X5528Y900D01*
X5022Y1508D02*
X5377Y1153D01*
Y1052D02*
Y1153D01*
X2894Y1508D02*
X5022D01*
X2476Y1926D02*
X2894Y1508D01*
X1799Y1926D02*
X2476D01*
X1175Y2550D02*
X1799Y1926D01*
X1175Y2550D02*
Y2750D01*
X5528Y900D02*
X6650D01*
X3826Y2499D02*
X5022D01*
X3575Y2750D02*
X3826Y2499D01*
X3550Y2775D02*
X3575Y2750D01*
X17421Y12199D02*
X17954Y11667D01*
Y9942D02*
Y11667D01*
X17455Y9443D02*
X17954Y9942D01*
X17231Y7987D02*
X17418Y7800D01*
X17425Y7793D01*
X21125Y10250D02*
X21125Y10250D01*
X22325D01*
X20250Y6625D02*
X22675Y9050D01*
X19707Y6625D02*
X20250D01*
X18250Y5900D02*
X18298Y5948D01*
Y6050D01*
X18843Y6595D01*
Y6625D01*
X17926Y13853D02*
X18029Y13750D01*
X18129Y13650D01*
X15925Y13750D02*
X18029D01*
X10246Y6310D02*
X10690D01*
X9950Y7275D02*
X10024Y7201D01*
Y6532D02*
Y7201D01*
Y6532D02*
X10246Y6310D01*
X10900Y5150D02*
Y5450D01*
X10345Y6005D02*
X10900Y5450D01*
X10051Y6005D02*
X10345D01*
X9524Y6532D02*
X10051Y6005D01*
X9524Y6532D02*
Y7201D01*
X9450Y7275D02*
X9524Y7201D01*
X3970Y4904D02*
X4723Y4150D01*
X6650D01*
X3425Y-6400D02*
X3450Y-6375D01*
X4950D01*
X12550Y900D02*
X12550Y900D01*
X13760D01*
X14305Y355D02*
X14325D01*
X13760Y900D02*
X14305Y355D01*
X13980Y1550D02*
X14325Y1895D01*
X12550Y1550D02*
X13980D01*
X11225Y-6825D02*
X11225Y-6825D01*
X10325Y-6825D02*
X11225D01*
X10325Y-6825D02*
X10325Y-6825D01*
X6950Y6150D02*
X7650Y5450D01*
X6950Y6150D02*
Y7275D01*
X16786Y19289D02*
Y21664D01*
X16975Y19100D02*
Y19148D01*
X17430Y19604D01*
X18220D01*
X20900Y21100D02*
X21442D01*
X20900D02*
Y22788D01*
X18425Y20600D02*
Y21725D01*
X18350Y21800D02*
X18425Y21725D01*
X21405Y26470D02*
X26961D01*
X20950Y26165D02*
X26835D01*
X20565Y25860D02*
X26704D01*
X20295Y25556D02*
X26480D01*
X23816Y25251D02*
X24449Y24618D01*
X20074Y25251D02*
X23816D01*
X24144Y23530D02*
Y24492D01*
X23690Y24946D02*
X24144Y24492D01*
X19879Y24946D02*
X23690D01*
X24449Y23864D02*
Y24618D01*
X27086Y26776D02*
X28291Y25571D01*
X24300Y21100D02*
X24875D01*
X24129Y21271D02*
X24300Y21100D01*
X23450Y21342D02*
Y21400D01*
Y21800D01*
Y21342D02*
X25100Y19692D01*
X29225Y26175D02*
X29851D01*
X30275Y26599D01*
Y26600D01*
X28164Y25267D02*
X30600D01*
X26961Y26470D02*
X28164Y25267D01*
X28038Y24962D02*
X30474D01*
X26835Y26165D02*
X28038Y24962D01*
X30474D02*
X30944Y24492D01*
X30600Y25267D02*
X31249Y24618D01*
Y23864D02*
Y24618D01*
X26850Y21400D02*
Y21800D01*
Y21332D02*
Y21400D01*
Y21332D02*
X27100Y21082D01*
X32000Y27925D02*
Y28875D01*
X32025Y28900D01*
X34500Y28932D02*
Y29000D01*
Y28932D02*
X34680Y28752D01*
Y27805D02*
Y28752D01*
X33775Y26900D02*
X34680Y27805D01*
X33775Y26600D02*
Y26900D01*
X8875Y28075D02*
X8876Y28076D01*
X9851D01*
X10275Y28500D01*
Y28800D01*
X8525Y26500D02*
X8900Y26125D01*
X9325D01*
X3499Y28126D02*
X4812Y26812D01*
X4825Y26800D01*
X3075Y28550D02*
Y28850D01*
X3450Y26050D02*
X4076D01*
X4500Y26474D01*
Y26500D01*
X13468Y26445D02*
X13676Y26653D01*
X12547Y26445D02*
X13468D01*
X11438Y27554D02*
X12547Y26445D01*
X7404Y27554D02*
X11438D01*
X10186Y25930D02*
X13453D01*
X10312Y25625D02*
X13650D01*
X10378Y25260D02*
X13716D01*
X14105Y25649D01*
X10615Y24250D02*
X11319Y24955D01*
X13855D01*
X9868Y24750D02*
X10378Y25260D01*
X9742Y25055D02*
X10312Y25625D01*
X9616Y25360D02*
X10186Y25930D01*
X4825Y26550D02*
Y26800D01*
Y26850D01*
X3075Y28550D02*
X3499Y28126D01*
X750Y26550D02*
X1325D01*
X13453Y25930D02*
X13453Y25930D01*
X14176Y26653D01*
X6339Y25360D02*
X9616D01*
X5771Y24792D02*
X6339Y25360D01*
X13650Y25625D02*
X14676Y26651D01*
X8019Y25055D02*
X9742D01*
X7471Y24507D02*
X8019Y25055D01*
X9414Y24750D02*
X9868D01*
X9171Y24507D02*
X9414Y24750D01*
X14105Y25649D02*
X14161Y25705D01*
X10615Y24250D02*
X10615D01*
X9171Y23893D02*
Y24507D01*
Y23893D02*
X9171Y23893D01*
Y22241D02*
Y23893D01*
X3815Y24250D02*
X4264Y24700D01*
X3815Y23927D02*
Y24250D01*
X4264Y24700D02*
X4550D01*
X7404Y27554D01*
X5771Y22241D02*
Y24792D01*
X21250Y26625D02*
X21405Y26470D01*
X14676Y26651D02*
Y27026D01*
X14250Y27100D02*
X14250Y27100D01*
X14176Y26653D02*
Y27026D01*
X20750Y26365D02*
X20950Y26165D01*
X14676Y27026D02*
X14750Y27100D01*
X8874Y-8799D02*
X9351D01*
X8900Y-4525D02*
X9475D01*
X7325D02*
Y-4325D01*
X8300Y-3350D01*
Y-750D01*
X4925Y-3250D02*
X5000Y-3175D01*
X775Y-3250D02*
X4925D01*
X5000Y-3175D02*
X5525D01*
X7650Y-1050D01*
X2850Y-9525D02*
X4925D01*
X775D02*
X2850D01*
X2830Y-9505D02*
X2850Y-9525D01*
X2830Y-9505D02*
Y-9105D01*
X2800Y-9075D02*
X2830Y-9105D01*
X4925Y-9525D02*
X9111D01*
X775Y-7375D02*
X4925D01*
X3425Y-6450D02*
Y-6400D01*
Y-6450D02*
X4101Y-7126D01*
X4676D01*
X4925Y-7375D01*
X14700Y5675D02*
X14800D01*
X15475Y5000D01*
Y4800D02*
Y5000D01*
X18376Y1426D02*
X18800Y1850D01*
X17625Y850D02*
X18201Y1426D01*
X17425Y5000D02*
X17625Y4800D01*
X17425Y5000D02*
Y6136D01*
X15475Y650D02*
Y4800D01*
X13096Y-9275D02*
X14455D01*
X33529Y19054D02*
X33550Y19075D01*
X32375D02*
X33550D01*
X33575Y19100D01*
X18775Y16850D02*
X18800Y16825D01*
X18775Y16850D02*
Y19048D01*
X18220Y19604D02*
X18775Y19048D01*
X13675Y-3650D02*
X15075D01*
X13675Y-3650D02*
X13675Y-3650D01*
X3550Y2775D02*
Y4375D01*
X2700Y4375D02*
X2700Y4375D01*
X650Y4375D02*
X2700D01*
X34200Y15750D02*
X34201Y15751D01*
X33174Y16180D02*
X33529Y16534D01*
X34400Y19100D02*
X34425D01*
X34201Y18901D02*
X34400Y19100D01*
X20451Y9176D02*
X21051D01*
X21125Y9250D01*
X18843Y7668D02*
X19275Y8100D01*
X18843Y6625D02*
Y7668D01*
X19375Y8100D02*
X20451Y9176D01*
X19275Y8100D02*
X19375D01*
X19275Y10900D02*
X19625Y11250D01*
X21125D01*
X19657Y12225D02*
X19682Y12250D01*
X21125D01*
X18236Y13564D02*
X18793Y13007D01*
X18129Y13650D02*
X18225Y13554D01*
X17926Y13853D02*
Y14679D01*
X17905Y14700D02*
X17926Y14679D01*
X19175Y13696D02*
Y14430D01*
Y13696D02*
X19221Y13650D01*
X19175Y14430D02*
X19445Y14700D01*
X19221Y13650D02*
X19272D01*
X19672Y13250D01*
X21125D01*
X24100Y18725D02*
Y19500D01*
X23500Y20100D02*
X24100Y19500D01*
X22442Y20100D02*
X23500D01*
X21442Y21100D02*
X22442Y20100D01*
X25100Y18725D02*
Y19692D01*
X26100Y18725D02*
Y19875D01*
X26100Y18725D02*
X26100Y18725D01*
X24875Y21100D02*
X26100Y19875D01*
X27100Y18725D02*
Y21082D01*
X29100Y20250D02*
X30250Y21400D01*
X29100Y18725D02*
Y20250D01*
X30100Y20050D02*
X31150Y21100D01*
X30100Y18725D02*
Y20050D01*
X27675Y21225D02*
Y21990D01*
X33411Y9250D02*
X33500Y9161D01*
Y8806D02*
Y9161D01*
Y8806D02*
X34195Y8111D01*
X33696Y11250D02*
Y11769D01*
Y10253D02*
Y11250D01*
X33696Y11250D02*
X33696Y11250D01*
X32575Y11250D02*
X33696D01*
X34200Y14163D02*
Y14214D01*
X33657Y13621D02*
X34200Y14163D01*
X33657Y12663D02*
Y13621D01*
X33318Y12324D02*
X33657Y12663D01*
X32649Y12324D02*
X33318D01*
X32575Y12250D02*
X32649Y12324D01*
X34225Y9754D02*
X34225Y9754D01*
X34225Y8975D02*
Y9754D01*
X34255Y8111D02*
X34754Y8610D01*
Y10119D01*
X34255Y10618D02*
X34754Y10119D01*
X34225Y10618D02*
X34255D01*
X33882Y10067D02*
Y10068D01*
Y10067D02*
X34195Y9754D01*
X34225D01*
X33696Y10253D02*
X33882Y10068D01*
X33696Y11769D02*
X34195Y12268D01*
X34225D01*
X34200Y12293D02*
X34225Y12268D01*
X34200Y12293D02*
Y13122D01*
X34255Y11404D02*
X34754Y11903D01*
X34225Y11404D02*
X34255D01*
X34754Y11903D02*
Y13610D01*
X34200Y14163D02*
X34754Y13610D01*
X34171Y14243D02*
X34200Y14214D01*
X17395Y6136D02*
X17425D01*
X17088Y7987D02*
X17231D01*
X17425Y6136D02*
X17455D01*
X17425Y7000D02*
X17425Y7000D01*
X17425Y7000D02*
Y7793D01*
X17425Y10307D02*
X17425Y10307D01*
X17425Y10307D02*
Y11154D01*
X17421Y12199D02*
Y12250D01*
X17425Y9443D02*
X17455D01*
X15925Y12250D02*
X17421D01*
X17329Y11250D02*
X17425Y11154D01*
X15925Y11250D02*
X17329D01*
X1004Y12750D02*
Y13650D01*
Y12239D02*
Y12750D01*
X1150D01*
X1154Y12754D01*
X4471D01*
X4475Y12750D01*
X2096Y14521D02*
X2425Y14850D01*
X3353Y17297D02*
Y20487D01*
Y17297D02*
X3900Y16750D01*
X4475D01*
X3353Y20487D02*
X3489Y20624D01*
X3982D01*
X4750Y21392D01*
Y21400D01*
X2920Y9393D02*
X2950D01*
X2401Y8874D02*
X2920Y9393D01*
X1949Y8874D02*
X2401D01*
X1225Y8150D02*
X1949Y8874D01*
X2950Y9393D02*
X3093Y9250D01*
X4475D01*
X2950Y10257D02*
X2957Y10250D01*
X4475D01*
X1125Y8150D02*
X1225D01*
X96Y9179D02*
X1125Y8150D01*
X96Y9179D02*
Y11845D01*
X253Y12001D01*
X824D01*
X1018Y12195D01*
Y12225D01*
X1225Y10950D02*
X1525Y11250D01*
X4475D01*
X1882Y12225D02*
X1907Y12250D01*
X4475D01*
X1004Y12239D02*
X1018Y12225D01*
X3521Y14034D02*
X3732Y13824D01*
X4401D01*
X4475Y13750D01*
X755Y14700D02*
Y14720D01*
X1429Y15394D01*
X2096Y13650D02*
X2147D01*
X2547Y13250D01*
X4475D01*
X755Y14700D02*
X1004Y14451D01*
Y13650D02*
Y14451D01*
X2096Y13650D02*
Y14521D01*
X16650Y21800D02*
X16786Y21664D01*
Y19289D02*
X16975Y19100D01*
X16650Y24200D02*
X17450D01*
X16650Y24200D02*
X16650Y24200D01*
X14232Y20371D02*
X14961D01*
X15933Y21344D01*
Y23721D01*
X16413Y24200D01*
X16650D01*
X16975Y18220D02*
Y19100D01*
X16930Y18175D02*
X16975Y18220D01*
X17601Y18901D02*
X17800Y19100D01*
X17825D01*
X21771Y21379D02*
Y21779D01*
X21750Y21800D02*
X21771Y21779D01*
Y21379D02*
X22075Y21075D01*
X19684Y24641D02*
X20595D01*
X18250Y26075D02*
X19684Y24641D01*
X18750Y26075D02*
X19879Y24946D01*
X19250Y26075D02*
X20074Y25251D01*
X19750Y26100D02*
X20295Y25556D01*
X20250Y26175D02*
X20565Y25860D01*
X19750Y26100D02*
Y27100D01*
X26480Y25556D02*
X27567Y24469D01*
X20250Y26175D02*
Y27100D01*
X18750Y26075D02*
Y27100D01*
X19250Y26075D02*
Y27100D01*
X20595Y24641D02*
X21071Y24164D01*
X18250Y26075D02*
Y27100D01*
X26704Y25860D02*
X27871Y24693D01*
X21513Y23400D02*
X21750D01*
X21071Y23841D02*
Y24164D01*
Y23841D02*
X21513Y23400D01*
X20050D02*
X20288D01*
X20900Y22788D01*
X13450Y19589D02*
X14232Y20371D01*
X13450Y18725D02*
Y19589D01*
Y18725D02*
X13450Y18725D01*
X13725Y20925D02*
X14175D01*
X12479Y19679D02*
X13725Y20925D01*
X12479Y18754D02*
Y19679D01*
X12450Y18725D02*
X12479Y18754D01*
X14950Y23400D02*
X15400D01*
X14950Y23400D02*
X14950Y23400D01*
X15400D02*
X15629Y23171D01*
Y21470D02*
Y23171D01*
X15083Y20925D02*
X15629Y21470D01*
X14175Y20925D02*
X15083D01*
X15775Y24700D02*
X16750Y25675D01*
X14464Y24700D02*
X15775D01*
X16750Y25675D02*
Y27100D01*
X14909Y21359D02*
X14950Y21400D01*
X8450Y20550D02*
X9000Y21100D01*
X8450Y18725D02*
Y20550D01*
X7450Y20675D02*
X8175Y21400D01*
X7450Y18725D02*
Y20675D01*
X5467Y21308D02*
Y22921D01*
Y21308D02*
X5575Y21200D01*
X4987Y23400D02*
X5467Y22921D01*
X14125Y24361D02*
X14464Y24700D01*
X14125Y24038D02*
Y24361D01*
X13488Y23400D02*
X14125Y24038D01*
X13250Y23400D02*
X13488D01*
X15420Y25095D02*
X16250Y25925D01*
X14428Y25095D02*
X15420D01*
X13983Y24650D02*
X14428Y25095D01*
X12714Y24650D02*
X13983D01*
X14975Y25400D02*
X15750Y26175D01*
X14300Y25400D02*
X14975D01*
X14580Y25705D02*
X15176Y26301D01*
X14161Y25705D02*
X14580D01*
X15176Y26301D02*
Y27026D01*
X15750Y26175D02*
Y27100D01*
X13855Y24955D02*
X14300Y25400D01*
X16250Y25925D02*
Y27100D01*
X1050Y24276D02*
X1454Y24681D01*
X1050Y24150D02*
Y24276D01*
X17225Y25087D02*
Y27075D01*
X1920Y24681D02*
X2277Y24324D01*
Y23936D02*
Y24324D01*
X1454Y24681D02*
X1920D01*
X1700Y22850D02*
Y24150D01*
X175Y21975D02*
Y25975D01*
X3048Y20790D02*
X3312Y21054D01*
X3048Y16695D02*
Y20790D01*
X24913Y23400D02*
X25150D01*
X13013Y21800D02*
X13250D01*
X9850Y23400D02*
X10088D01*
X7471Y24184D02*
Y24507D01*
X6450Y23400D02*
X6687D01*
X6212Y21800D02*
X6450D01*
X3050Y23400D02*
X3287D01*
X10615Y23927D02*
Y24250D01*
X12571Y22241D02*
X13013Y21800D01*
X9171Y22241D02*
X9613Y21800D01*
X1950Y22600D02*
X3050D01*
X2812Y23400D02*
X3050D01*
X2277Y23936D02*
X2812Y23400D01*
X3804Y21054D02*
X4033Y21283D01*
Y22283D02*
X4350Y22600D01*
X4750Y21400D02*
Y21800D01*
Y23400D02*
X4987D01*
X9000Y21100D02*
Y21981D01*
X8829Y22153D02*
X9000Y21981D01*
X8829Y22153D02*
Y22959D01*
X11787Y23400D02*
X12267Y22921D01*
Y22111D02*
Y22921D01*
Y22111D02*
X12400Y21978D01*
X27833Y22279D02*
X28313Y21800D01*
X27567Y23508D02*
X27833Y23241D01*
X27567Y23508D02*
Y24469D01*
X26850Y23400D02*
X27087D01*
X27529Y22959D01*
Y22137D02*
X27675Y21990D01*
X24144Y23530D02*
X24433Y23241D01*
Y22279D02*
X24913Y21800D01*
X31713D02*
X31950D01*
X30250Y23400D02*
X30487D01*
X31249Y23864D02*
X31713Y23400D01*
X30944Y23530D02*
Y24492D01*
X30487Y23400D02*
X30929Y22959D01*
X31233Y22279D02*
Y23241D01*
Y22279D02*
X31713Y21800D01*
X30929Y22153D02*
X31150Y21931D01*
X1700Y22850D02*
X1950Y22600D01*
X1713Y21812D02*
X1725Y21800D01*
X175Y25975D02*
X750Y26550D01*
X175Y21975D02*
X350Y21800D01*
X2812D02*
X3050D01*
X30929Y22153D02*
Y22959D01*
X31150Y21100D02*
Y21931D01*
X30250Y21400D02*
Y21800D01*
X27529Y22137D02*
Y22959D01*
X24129Y21271D02*
Y22959D01*
X23687Y23400D02*
X24129Y22959D01*
X23450Y23400D02*
X23687D01*
X14950Y21400D02*
Y21800D01*
X11550Y23400D02*
X11787D01*
X8387D02*
X8829Y22959D01*
X8150Y23400D02*
X8387D01*
X8175Y21400D02*
Y21775D01*
X8150Y21800D02*
X8175Y21775D01*
X4033Y21283D02*
Y22283D01*
X4350Y22600D02*
X4750D01*
X3312Y21054D02*
X3804D01*
X3048Y16695D02*
X3493Y16250D01*
X4475D01*
X31713Y23400D02*
X31950D01*
X30944Y23530D02*
X31233Y23241D01*
X28313Y23400D02*
X28550D01*
X27871Y23841D02*
X28313Y23400D01*
X27871Y23841D02*
Y24693D01*
X28313Y21800D02*
X28550D01*
X27833Y22279D02*
Y23241D01*
X24449Y23864D02*
X24913Y23400D01*
Y21800D02*
X25150D01*
X24433Y22279D02*
Y23241D01*
X18112Y24200D02*
X18350D01*
X17225Y25087D02*
X18112Y24200D01*
X12571Y22241D02*
Y24507D01*
X12714Y24650D01*
X10615Y23927D02*
X10615Y24250D01*
X10088Y23400D02*
X10615Y23927D01*
X9613Y21800D02*
X9850D01*
X6687Y23400D02*
X7471Y24184D01*
X5771Y22241D02*
X6212Y21800D01*
X3287Y23400D02*
X3815Y23927D01*
X3050Y24200D02*
X3277D01*
X350Y21800D02*
X1725D01*
X2812D01*
D90*
X29144Y8194D02*
X29450Y8500D01*
X29623Y8048D02*
X30075Y8500D01*
X29144Y7319D02*
Y8194D01*
X29100Y7275D02*
X29144Y7319D01*
X29623Y7298D02*
Y8048D01*
D91*
X30600Y7275D02*
Y9100D01*
X31250Y9750D01*
X13441Y10754D02*
X14134D01*
X13441Y9746D02*
X13917D01*
X13108Y10421D02*
X13275Y10587D01*
X15088Y10750D02*
X15925D01*
X13275Y10587D02*
X13441Y10754D01*
X14134D02*
X14267Y10622D01*
X13108Y10250D02*
Y10421D01*
X9512Y10250D02*
X13108D01*
Y10079D02*
Y10250D01*
X13917Y9746D02*
X14394D01*
X7450Y8188D02*
X9512Y10250D01*
X14267Y10622D02*
X14959D01*
X13917Y9746D02*
X13950Y9713D01*
X7450Y7275D02*
Y8188D01*
X13108Y10079D02*
X13441Y9746D01*
X12862Y11000D02*
X13275Y10587D01*
X14959Y10622D02*
X15088Y10750D01*
X14398Y9750D02*
X15925D01*
X12850Y11000D02*
X12862D01*
X14394Y9746D02*
X14398Y9750D01*
X13950Y6288D02*
Y9713D01*
X8950Y-1825D02*
Y-150D01*
X23625Y8800D02*
X24100Y8325D01*
Y7275D02*
Y8325D01*
Y5388D02*
Y7275D01*
X31250Y9750D02*
X32575D01*
X10245Y-1548D02*
X10250Y-1543D01*
X10245Y-1768D02*
Y-1548D01*
X9809Y-2204D02*
X10245Y-1768D01*
X9329Y-2204D02*
X9809D01*
X10250Y-1543D02*
Y-750D01*
X8950Y-1825D02*
X9329Y-2204D01*
X8950Y-3400D02*
Y-2225D01*
X8950Y-2225D02*
X8950Y-2225D01*
X8950Y-2225D02*
Y-750D01*
X7952Y-4398D02*
X8950Y-3400D01*
X7952Y-5175D02*
Y-4398D01*
X7728Y-5400D02*
X7952Y-5175D01*
X4925Y-5400D02*
X7728D01*
X12550Y3500D02*
X12850D01*
X13954Y4604D01*
Y6284D01*
X13950Y6288D02*
X13954Y6284D01*
X24096Y3844D02*
Y5384D01*
Y3844D02*
X24188Y3753D01*
X24096Y5384D02*
X24100Y5388D01*
D92*
X17852Y-3000D02*
X18800D01*
X17202Y-3650D02*
X17852Y-3000D01*
X18800D02*
X19219D01*
X24188Y3725D02*
Y3753D01*
Y1968D02*
Y3725D01*
X19219Y-3000D02*
X24188Y1968D01*
X2425Y-6400D02*
X2450Y-6375D01*
Y-6206D01*
X3256Y-5400D01*
X4925D01*
X2425Y-6400D02*
Y-6350D01*
X2400Y-6325D02*
X2425Y-6350D01*
X1900Y-6325D02*
X2400D01*
X975Y-5400D02*
X1900Y-6325D01*
X775Y-5400D02*
X975D01*
D93*
X32300Y-4100D02*
D03*
Y-7100D02*
D03*
D94*
X20750Y28125D02*
D03*
X16750D02*
D03*
X18750D02*
D03*
X17750D02*
D03*
X20251Y28426D02*
D03*
X17250Y28375D02*
D03*
X23475Y27000D02*
D03*
X16250Y28375D02*
D03*
X19750Y28125D02*
D03*
X21250Y28426D02*
D03*
X15750Y28125D02*
D03*
X19125Y20600D02*
D03*
X18250Y28375D02*
D03*
X19251Y28426D02*
D03*
X15250Y28375D02*
D03*
X12725Y26875D02*
D03*
X17250Y29600D02*
D03*
X14251Y28375D02*
D03*
X14750Y28125D02*
D03*
X11225Y-9250D02*
D03*
X18175Y17350D02*
D03*
X20400Y18275D02*
D03*
X17250Y15750D02*
D03*
X5800Y16250D02*
D03*
X29450Y8500D02*
D03*
X28826Y8600D02*
D03*
X30075Y8500D02*
D03*
X31300Y8625D02*
D03*
X26000Y8800D02*
D03*
X7400Y10150D02*
D03*
X11950Y8525D02*
D03*
X12450Y9000D02*
D03*
X13650Y10250D02*
D03*
X11575Y21400D02*
D03*
X16300Y1700D02*
D03*
X14700Y5675D02*
D03*
X2775Y11800D02*
D03*
X11435Y9250D02*
D03*
X12125Y5150D02*
D03*
X1300Y-4500D02*
D03*
X14676Y11126D02*
D03*
X14725Y-1200D02*
D03*
X12300Y-1425D02*
D03*
X2925Y775D02*
D03*
X8650Y6050D02*
D03*
X7100Y5125D02*
D03*
X9600Y4550D02*
D03*
X8950Y4575D02*
D03*
X10250D02*
D03*
X7950Y6275D02*
D03*
X12950Y5625D02*
D03*
X5825Y2900D02*
D03*
X5875Y2200D02*
D03*
X6950Y8675D02*
D03*
X12950Y8525D02*
D03*
X12850Y11000D02*
D03*
X10950Y8475D02*
D03*
X15975Y17475D02*
D03*
X5826Y13001D02*
D03*
X14675Y11750D02*
D03*
X10250Y8500D02*
D03*
X8450Y8475D02*
D03*
X13450Y6075D02*
D03*
X5750Y3600D02*
D03*
X28075Y-4700D02*
D03*
X21200Y2000D02*
D03*
X34000Y5600D02*
D03*
X24250Y-9325D02*
D03*
X17675Y-6300D02*
D03*
X20300Y-5150D02*
D03*
X17750Y-2125D02*
D03*
X34000Y-8200D02*
D03*
X24600Y4460D02*
D03*
X22025Y-5600D02*
D03*
X22600Y6000D02*
D03*
X25375Y9450D02*
D03*
X25100Y8725D02*
D03*
X26276Y9500D02*
D03*
X16525Y7800D02*
D03*
X23625Y8800D02*
D03*
X22775Y12500D02*
D03*
X31250Y9750D02*
D03*
X19258Y9652D02*
D03*
X8950Y-150D02*
D03*
X7325Y-7550D02*
D03*
Y-3500D02*
D03*
X13225Y-8525D02*
D03*
X23225Y16250D02*
D03*
X13954Y4604D02*
D03*
X9600Y-1700D02*
D03*
X13250Y250D02*
D03*
X7800Y-1675D02*
D03*
X13500Y2850D02*
D03*
X11975Y2175D02*
D03*
X32575Y17475D02*
D03*
X28275Y5075D02*
D03*
X26600Y5350D02*
D03*
X27675Y21100D02*
D03*
X34250Y14950D02*
D03*
X30350Y16500D02*
D03*
X24188Y3725D02*
D03*
X19900Y16750D02*
D03*
X24600Y5175D02*
D03*
X25400Y14163D02*
D03*
X22775Y11700D02*
D03*
X22400Y16250D02*
D03*
X34200Y15750D02*
D03*
X31325Y14725D02*
D03*
X20050Y21400D02*
D03*
X31450Y11250D02*
D03*
X21575Y4025D02*
D03*
X22025Y4975D02*
D03*
X18801Y13001D02*
D03*
X31550Y27025D02*
D03*
X2500Y16150D02*
D03*
X5575Y21100D02*
D03*
X16075Y20825D02*
D03*
X26625Y2950D02*
D03*
X29075Y5075D02*
D03*
X17500Y-9325D02*
D03*
X15000Y-7400D02*
D03*
X14600Y-6850D02*
D03*
X2350Y20925D02*
D03*
X34500Y23950D02*
D03*
X17525Y23500D02*
D03*
X12275Y28100D02*
D03*
X13300Y-1200D02*
D03*
X2400Y17350D02*
D03*
X875Y17375D02*
D03*
X13400Y-5050D02*
D03*
X12575Y-5525D02*
D03*
X4850Y3400D02*
D03*
X3625Y-200D02*
D03*
X18250Y5900D02*
D03*
X4950Y-6375D02*
D03*
X11225Y-6825D02*
D03*
X20900Y21100D02*
D03*
X18425Y20600D02*
D03*
X25700Y27225D02*
D03*
X24020Y29780D02*
D03*
X24300Y21100D02*
D03*
X23450Y21400D02*
D03*
X29225Y26175D02*
D03*
X32275Y25575D02*
D03*
X26850Y21400D02*
D03*
X32000Y27925D02*
D03*
X8875Y28075D02*
D03*
X9325Y26125D02*
D03*
X3450Y26050D02*
D03*
X11625Y26500D02*
D03*
X5775Y29601D02*
D03*
X7455Y26275D02*
D03*
X31055Y29775D02*
D03*
X32879Y28161D02*
D03*
X34250Y28050D02*
D03*
X23200Y4175D02*
D03*
X26000Y11975D02*
D03*
X2800Y-9075D02*
D03*
X32375Y19075D02*
D03*
X18800Y16825D02*
D03*
X15075Y-3650D02*
D03*
X17450Y24200D02*
D03*
X16650Y21400D02*
D03*
X22075Y21075D02*
D03*
X14175Y20925D02*
D03*
X25876Y29776D02*
D03*
X28725Y29775D02*
D03*
X34500Y29000D02*
D03*
X1700Y27825D02*
D03*
X1050Y24150D02*
D03*
X1713Y21812D02*
D03*
X1050Y28225D02*
D03*
X28775Y27425D02*
D03*
X1700Y24150D02*
D03*
X31150Y21100D02*
D03*
X30250Y21400D02*
D03*
X14950D02*
D03*
X12400Y21100D02*
D03*
X9000Y21100D02*
D03*
X8175Y21400D02*
D03*
X33950Y22200D02*
D03*
X2350Y25700D02*
D03*
X3804Y21054D02*
D03*
X4750Y21400D02*
D03*
X29775Y29775D02*
D03*
X26900D02*
D03*
X3925D02*
D03*
X4575Y27825D02*
D03*
D95*
X12225Y15950D02*
D03*
X10551Y15951D02*
D03*
X9011Y15975D02*
D03*
X12450Y17075D02*
D03*
X13614Y15975D02*
D03*
X11325Y17075D02*
D03*
X10200D02*
D03*
X9075D02*
D03*
X25200D02*
D03*
X26325D02*
D03*
X27450D02*
D03*
X28575D02*
D03*
X33278Y7060D02*
D03*
Y2060D02*
D03*
D96*
X8500Y3300D02*
D03*
X9600D02*
D03*
X10700D02*
D03*
X8500Y2200D02*
D03*
X9600D02*
D03*
X10700D02*
D03*
X8500Y1100D02*
D03*
X9600D02*
D03*
X10700D02*
D03*
M02*
