G04*
G04 #@! TF.GenerationSoftware,Altium Limited,Altium Designer,19.1.7 (138)*
G04*
G04 Layer_Color=16711935*
%FSLAX43Y43*%
%MOMM*%
G71*
G01*
G75*
%ADD20R,0.660X0.559*%
%ADD25R,0.559X0.660*%
%ADD54R,2.003X1.803*%
%ADD55R,0.743X0.803*%
%ADD56R,0.803X0.743*%
%ADD67R,1.003X1.203*%
%ADD81R,1.003X1.003*%
%ADD82R,1.133X1.093*%
%ADD85C,0.803*%
%ADD86C,0.606*%
%ADD87C,1.103*%
%ADD88C,0.703*%
%ADD99R,0.356X1.168*%
%ADD109R,0.660X0.762*%
%ADD110R,0.889X0.457*%
%ADD111R,0.660X0.508*%
%ADD112R,1.803X1.203*%
%ADD113R,1.153X1.153*%
%ADD114R,0.803X1.553*%
%ADD115R,1.703X3.603*%
%ADD116R,1.203X3.703*%
G04:AMPARAMS|DCode=117|XSize=0.803mm|YSize=1.203mm|CornerRadius=0.153mm|HoleSize=0mm|Usage=FLASHONLY|Rotation=90.000|XOffset=0mm|YOffset=0mm|HoleType=Round|Shape=RoundedRectangle|*
%AMROUNDEDRECTD117*
21,1,0.803,0.898,0,0,90.0*
21,1,0.498,1.203,0,0,90.0*
1,1,0.305,0.449,0.249*
1,1,0.305,0.449,-0.249*
1,1,0.305,-0.449,-0.249*
1,1,0.305,-0.449,0.249*
%
%ADD117ROUNDEDRECTD117*%
%ADD118R,2.203X1.403*%
%ADD119R,1.303X1.903*%
%ADD120R,1.703X0.903*%
%ADD121R,1.153X1.153*%
%ADD122R,1.423X1.113*%
D20*
X30171Y9425D02*
D03*
X29079D02*
D03*
X24521Y14150D02*
D03*
X23429D02*
D03*
D25*
X27050Y15196D02*
D03*
Y14104D02*
D03*
X27900Y15196D02*
D03*
Y14104D02*
D03*
X30300Y12421D02*
D03*
Y11329D02*
D03*
D54*
X27600Y12400D02*
D03*
Y9600D02*
D03*
D55*
X21236Y13300D02*
D03*
X22100D02*
D03*
X29957Y10250D02*
D03*
X29093D02*
D03*
X24407Y15075D02*
D03*
X23543D02*
D03*
D56*
X28725Y15082D02*
D03*
Y14218D02*
D03*
X29550Y15082D02*
D03*
Y14218D02*
D03*
X26000Y2064D02*
D03*
Y1200D02*
D03*
X26000Y11132D02*
D03*
Y10268D02*
D03*
X20300Y4832D02*
D03*
Y3968D02*
D03*
X30375Y13343D02*
D03*
Y14207D02*
D03*
D67*
X31335Y-1950D02*
D03*
X33265D02*
D03*
Y-9250D02*
D03*
X31335D02*
D03*
X32186Y9680D02*
D03*
X34421D02*
D03*
X32262Y-480D02*
D03*
X34421D02*
D03*
D81*
X4050Y19925D02*
D03*
Y18425D02*
D03*
X18400Y2975D02*
D03*
Y4475D02*
D03*
D82*
X29300Y12745D02*
D03*
Y11205D02*
D03*
X20300Y1230D02*
D03*
Y2770D02*
D03*
X26600Y7840D02*
D03*
Y6300D02*
D03*
X19300Y7670D02*
D03*
Y6130D02*
D03*
X20000Y13170D02*
D03*
Y11630D02*
D03*
D85*
X32300Y-4100D02*
D03*
Y-7100D02*
D03*
D86*
X20750Y28125D02*
D03*
X16750D02*
D03*
X18750D02*
D03*
X17750D02*
D03*
X20251Y28426D02*
D03*
X17250Y28375D02*
D03*
X23475Y27000D02*
D03*
X16250Y28375D02*
D03*
X19750Y28125D02*
D03*
X21250Y28426D02*
D03*
X15750Y28125D02*
D03*
X19125Y20600D02*
D03*
X18250Y28375D02*
D03*
X19251Y28426D02*
D03*
X15250Y28375D02*
D03*
X12725Y26875D02*
D03*
X17250Y29600D02*
D03*
X14251Y28375D02*
D03*
X14750Y28125D02*
D03*
X11225Y-9250D02*
D03*
X18175Y17350D02*
D03*
X20400Y18275D02*
D03*
X17250Y15750D02*
D03*
X5800Y16250D02*
D03*
X29450Y8500D02*
D03*
X28826Y8600D02*
D03*
X30075Y8500D02*
D03*
X31300Y8625D02*
D03*
X26000Y8800D02*
D03*
X7400Y10150D02*
D03*
X11950Y8525D02*
D03*
X12450Y9000D02*
D03*
X13650Y10250D02*
D03*
X11575Y21400D02*
D03*
X16300Y1700D02*
D03*
X14700Y5675D02*
D03*
X2775Y11800D02*
D03*
X11435Y9250D02*
D03*
X12125Y5150D02*
D03*
X1300Y-4500D02*
D03*
X14676Y11126D02*
D03*
X14725Y-1200D02*
D03*
X12300Y-1425D02*
D03*
X2925Y775D02*
D03*
X8650Y6050D02*
D03*
X7100Y5125D02*
D03*
X9600Y4550D02*
D03*
X8950Y4575D02*
D03*
X10250D02*
D03*
X7950Y6275D02*
D03*
X12950Y5625D02*
D03*
X5825Y2900D02*
D03*
X5875Y2200D02*
D03*
X6950Y8675D02*
D03*
X12950Y8525D02*
D03*
X12850Y11000D02*
D03*
X10950Y8475D02*
D03*
X15975Y17475D02*
D03*
X5826Y13001D02*
D03*
X14675Y11750D02*
D03*
X10250Y8500D02*
D03*
X8450Y8475D02*
D03*
X13450Y6075D02*
D03*
X5750Y3600D02*
D03*
X28075Y-4700D02*
D03*
X21200Y2000D02*
D03*
X34000Y5600D02*
D03*
X24250Y-9325D02*
D03*
X17675Y-6300D02*
D03*
X20300Y-5150D02*
D03*
X17750Y-2125D02*
D03*
X34000Y-8200D02*
D03*
X24600Y4460D02*
D03*
X22025Y-5600D02*
D03*
X22600Y6000D02*
D03*
X25375Y9450D02*
D03*
X25100Y8725D02*
D03*
X26276Y9500D02*
D03*
X16525Y7800D02*
D03*
X23625Y8800D02*
D03*
X22775Y12500D02*
D03*
X31250Y9750D02*
D03*
X19258Y9652D02*
D03*
X8950Y-150D02*
D03*
X7325Y-7550D02*
D03*
Y-3500D02*
D03*
X13225Y-8525D02*
D03*
X23225Y16250D02*
D03*
X13954Y4604D02*
D03*
X9600Y-1700D02*
D03*
X13250Y250D02*
D03*
X7800Y-1675D02*
D03*
X13500Y2850D02*
D03*
X11975Y2175D02*
D03*
X32575Y17475D02*
D03*
X28275Y5075D02*
D03*
X26600Y5350D02*
D03*
X27675Y21100D02*
D03*
X34250Y14950D02*
D03*
X30350Y16500D02*
D03*
X24188Y3725D02*
D03*
X19900Y16750D02*
D03*
X24600Y5175D02*
D03*
X25400Y14163D02*
D03*
X22775Y11700D02*
D03*
X22400Y16250D02*
D03*
X34200Y15750D02*
D03*
X31325Y14725D02*
D03*
X20050Y21400D02*
D03*
X31450Y11250D02*
D03*
X21575Y4025D02*
D03*
X22025Y4975D02*
D03*
X18801Y13001D02*
D03*
X31550Y27025D02*
D03*
X2500Y16150D02*
D03*
X5575Y21100D02*
D03*
X16075Y20825D02*
D03*
X26625Y2950D02*
D03*
X29075Y5075D02*
D03*
X17500Y-9325D02*
D03*
X15000Y-7400D02*
D03*
X14600Y-6850D02*
D03*
X2350Y20925D02*
D03*
X34500Y23950D02*
D03*
X17525Y23500D02*
D03*
X12275Y28100D02*
D03*
X13300Y-1200D02*
D03*
X2400Y17350D02*
D03*
X875Y17375D02*
D03*
X13400Y-5050D02*
D03*
X12575Y-5525D02*
D03*
X4850Y3400D02*
D03*
X3625Y-200D02*
D03*
X18250Y5900D02*
D03*
X4950Y-6375D02*
D03*
X11225Y-6825D02*
D03*
X20900Y21100D02*
D03*
X18425Y20600D02*
D03*
X25700Y27225D02*
D03*
X24020Y29780D02*
D03*
X24300Y21100D02*
D03*
X23450Y21400D02*
D03*
X29225Y26175D02*
D03*
X32275Y25575D02*
D03*
X26850Y21400D02*
D03*
X32000Y27925D02*
D03*
X8875Y28075D02*
D03*
X9325Y26125D02*
D03*
X3450Y26050D02*
D03*
X11625Y26500D02*
D03*
X5775Y29601D02*
D03*
X7455Y26275D02*
D03*
X31055Y29775D02*
D03*
X32879Y28161D02*
D03*
X34250Y28050D02*
D03*
X23200Y4175D02*
D03*
X26000Y11975D02*
D03*
X2800Y-9075D02*
D03*
X32375Y19075D02*
D03*
X18800Y16825D02*
D03*
X15075Y-3650D02*
D03*
X17450Y24200D02*
D03*
X16650Y21400D02*
D03*
X22075Y21075D02*
D03*
X14175Y20925D02*
D03*
X25876Y29776D02*
D03*
X28725Y29775D02*
D03*
X34500Y29000D02*
D03*
X1700Y27825D02*
D03*
X1050Y24150D02*
D03*
X1713Y21812D02*
D03*
X1050Y28225D02*
D03*
X28775Y27425D02*
D03*
X1700Y24150D02*
D03*
X31150Y21100D02*
D03*
X30250Y21400D02*
D03*
X14950D02*
D03*
X12400Y21100D02*
D03*
X9000Y21100D02*
D03*
X8175Y21400D02*
D03*
X33950Y22200D02*
D03*
X2350Y25700D02*
D03*
X3804Y21054D02*
D03*
X4750Y21400D02*
D03*
X29775Y29775D02*
D03*
X26900D02*
D03*
X3925D02*
D03*
X4575Y27825D02*
D03*
D87*
X12225Y15950D02*
D03*
X10551Y15951D02*
D03*
X9011Y15975D02*
D03*
X12450Y17075D02*
D03*
X13614Y15975D02*
D03*
X11325Y17075D02*
D03*
X10200D02*
D03*
X9075D02*
D03*
X25200D02*
D03*
X26325D02*
D03*
X27450D02*
D03*
X28575D02*
D03*
X33278Y7060D02*
D03*
Y2060D02*
D03*
D88*
X8500Y3300D02*
D03*
X9600D02*
D03*
X10700D02*
D03*
X8500Y2200D02*
D03*
X9600D02*
D03*
X10700D02*
D03*
X8500Y1100D02*
D03*
X9600D02*
D03*
X10700D02*
D03*
D99*
X2350Y29003D02*
D03*
X1700D02*
D03*
X2350Y27047D02*
D03*
X1700D02*
D03*
X1050Y29003D02*
D03*
Y27047D02*
D03*
X5225Y29003D02*
D03*
X4575D02*
D03*
X5225Y27047D02*
D03*
X4575D02*
D03*
X3925Y29003D02*
D03*
Y27047D02*
D03*
X8100Y29003D02*
D03*
X7450D02*
D03*
X8100Y27047D02*
D03*
X7450D02*
D03*
X6800Y29003D02*
D03*
Y27047D02*
D03*
X10975Y29003D02*
D03*
X10325D02*
D03*
X10975Y27047D02*
D03*
X10325D02*
D03*
X9675Y29003D02*
D03*
Y27047D02*
D03*
X25325Y29003D02*
D03*
X24675D02*
D03*
X25325Y27047D02*
D03*
X24675D02*
D03*
X24025Y29003D02*
D03*
Y27047D02*
D03*
X28200Y29003D02*
D03*
X27550D02*
D03*
X28200Y27047D02*
D03*
X27550D02*
D03*
X26900Y29003D02*
D03*
Y27047D02*
D03*
X31075Y29003D02*
D03*
X30425D02*
D03*
X31075Y27047D02*
D03*
X30425D02*
D03*
X29775Y29003D02*
D03*
Y27047D02*
D03*
X33950Y29003D02*
D03*
X33300D02*
D03*
X33950Y27047D02*
D03*
X33300D02*
D03*
X32650Y29003D02*
D03*
Y27047D02*
D03*
X33950Y24928D02*
D03*
Y22972D02*
D03*
X33300Y24928D02*
D03*
X32650D02*
D03*
Y22972D02*
D03*
X33300D02*
D03*
X1050D02*
D03*
X1700D02*
D03*
X2350D02*
D03*
Y24928D02*
D03*
X1700D02*
D03*
X1050D02*
D03*
D109*
X28825Y5924D02*
D03*
Y7575D02*
D03*
D110*
X29300Y22611D02*
D03*
Y23500D02*
D03*
Y24389D02*
D03*
Y25278D02*
D03*
X31129D02*
D03*
Y24389D02*
D03*
Y23500D02*
D03*
Y22611D02*
D03*
X26136Y22617D02*
D03*
Y23506D02*
D03*
Y24395D02*
D03*
Y25284D02*
D03*
X27964D02*
D03*
Y24395D02*
D03*
Y23506D02*
D03*
Y22617D02*
D03*
X22986D02*
D03*
Y23506D02*
D03*
Y24395D02*
D03*
Y25284D02*
D03*
X24814D02*
D03*
Y24395D02*
D03*
Y23506D02*
D03*
Y22617D02*
D03*
X19811D02*
D03*
Y23506D02*
D03*
Y24395D02*
D03*
Y25284D02*
D03*
X21639D02*
D03*
Y24395D02*
D03*
Y23506D02*
D03*
Y22617D02*
D03*
X16636D02*
D03*
Y23506D02*
D03*
Y24395D02*
D03*
Y25284D02*
D03*
X18464D02*
D03*
Y24395D02*
D03*
Y23506D02*
D03*
Y22617D02*
D03*
X15314Y25284D02*
D03*
Y24395D02*
D03*
Y23506D02*
D03*
Y22617D02*
D03*
X13486D02*
D03*
Y23506D02*
D03*
Y24395D02*
D03*
Y25284D02*
D03*
X12139D02*
D03*
Y24395D02*
D03*
Y23506D02*
D03*
Y22617D02*
D03*
X10311D02*
D03*
Y23506D02*
D03*
Y24395D02*
D03*
Y25284D02*
D03*
X8964D02*
D03*
Y24395D02*
D03*
Y23506D02*
D03*
Y22617D02*
D03*
X7136D02*
D03*
Y23506D02*
D03*
Y24395D02*
D03*
Y25284D02*
D03*
X5800Y25278D02*
D03*
Y24389D02*
D03*
Y23500D02*
D03*
Y22611D02*
D03*
X3971D02*
D03*
Y23500D02*
D03*
Y24389D02*
D03*
Y25278D02*
D03*
D111*
X23433Y13300D02*
D03*
X24500D02*
D03*
D112*
X21575Y17425D02*
D03*
X19275Y15675D02*
D03*
Y19175D02*
D03*
D113*
X16425Y19850D02*
D03*
Y18350D02*
D03*
X15000Y19850D02*
D03*
Y18350D02*
D03*
X18400Y1550D02*
D03*
Y50D02*
D03*
X5250Y19900D02*
D03*
Y18400D02*
D03*
X875Y19850D02*
D03*
Y18350D02*
D03*
X2650Y19875D02*
D03*
Y18375D02*
D03*
D114*
X29725Y515D02*
D03*
X28775D02*
D03*
X27825D02*
D03*
Y2885D02*
D03*
X29725D02*
D03*
D115*
X19650Y-8200D02*
D03*
X26350D02*
D03*
D116*
X22000Y-2450D02*
D03*
X24000D02*
D03*
D117*
X24575Y3050D02*
D03*
Y2100D02*
D03*
Y1150D02*
D03*
X21825D02*
D03*
Y3050D02*
D03*
X21550Y6000D02*
D03*
Y6950D02*
D03*
Y7900D02*
D03*
X24300D02*
D03*
Y6950D02*
D03*
Y6000D02*
D03*
X21550Y11700D02*
D03*
Y9800D02*
D03*
X24300D02*
D03*
Y10750D02*
D03*
Y11700D02*
D03*
D118*
X1300Y-1200D02*
D03*
Y800D02*
D03*
Y2800D02*
D03*
Y4800D02*
D03*
Y6800D02*
D03*
Y8800D02*
D03*
Y10800D02*
D03*
Y12800D02*
D03*
X16300D02*
D03*
Y10800D02*
D03*
Y8800D02*
D03*
Y6800D02*
D03*
Y4800D02*
D03*
Y2800D02*
D03*
Y800D02*
D03*
Y-1200D02*
D03*
D119*
X3800Y14300D02*
D03*
X5800D02*
D03*
X7800D02*
D03*
X9800D02*
D03*
X11800D02*
D03*
X13800D02*
D03*
D120*
X30550Y-6350D02*
D03*
Y-7850D02*
D03*
Y-3350D02*
D03*
X31500Y7600D02*
D03*
Y6096D02*
D03*
Y3100D02*
D03*
Y1600D02*
D03*
D121*
X28050Y-1100D02*
D03*
X29550D02*
D03*
D122*
X28400Y-2965D02*
D03*
Y-6235D02*
D03*
M02*
