G04*
G04 #@! TF.GenerationSoftware,Altium Limited,Altium Designer,19.1.7 (138)*
G04*
G04 Layer_Color=8388736*
%FSLAX43Y43*%
%MOMM*%
G71*
G01*
G75*
%ADD20R,0.660X0.559*%
%ADD25R,0.559X0.660*%
%ADD53R,0.753X0.853*%
%ADD54R,2.003X1.803*%
%ADD55R,0.743X0.803*%
%ADD56R,0.803X0.743*%
%ADD57R,1.093X1.133*%
%ADD58R,0.803X0.753*%
%ADD59R,0.823X0.823*%
%ADD60R,1.203X1.803*%
%ADD61R,0.603X1.003*%
%ADD62R,0.503X1.003*%
%ADD63R,1.403X0.903*%
%ADD64R,1.403X1.203*%
%ADD65R,2.103X1.503*%
%ADD66R,3.003X1.203*%
%ADD67R,1.003X1.203*%
G04:AMPARAMS|DCode=68|XSize=0.503mm|YSize=1.653mm|CornerRadius=0.151mm|HoleSize=0mm|Usage=FLASHONLY|Rotation=0.000|XOffset=0mm|YOffset=0mm|HoleType=Round|Shape=RoundedRectangle|*
%AMROUNDEDRECTD68*
21,1,0.503,1.351,0,0,0.0*
21,1,0.201,1.653,0,0,0.0*
1,1,0.302,0.101,-0.676*
1,1,0.302,-0.101,-0.676*
1,1,0.302,-0.101,0.676*
1,1,0.302,0.101,0.676*
%
%ADD68ROUNDEDRECTD68*%
G04:AMPARAMS|DCode=69|XSize=0.503mm|YSize=1.653mm|CornerRadius=0.151mm|HoleSize=0mm|Usage=FLASHONLY|Rotation=270.000|XOffset=0mm|YOffset=0mm|HoleType=Round|Shape=RoundedRectangle|*
%AMROUNDEDRECTD69*
21,1,0.503,1.351,0,0,270.0*
21,1,0.201,1.653,0,0,270.0*
1,1,0.302,-0.676,-0.101*
1,1,0.302,-0.676,0.101*
1,1,0.302,0.676,0.101*
1,1,0.302,0.676,-0.101*
%
%ADD69ROUNDEDRECTD69*%
G04:AMPARAMS|DCode=70|XSize=0.603mm|YSize=1.053mm|CornerRadius=0.152mm|HoleSize=0mm|Usage=FLASHONLY|Rotation=90.000|XOffset=0mm|YOffset=0mm|HoleType=Round|Shape=RoundedRectangle|*
%AMROUNDEDRECTD70*
21,1,0.603,0.750,0,0,90.0*
21,1,0.300,1.053,0,0,90.0*
1,1,0.303,0.375,0.150*
1,1,0.303,0.375,-0.150*
1,1,0.303,-0.375,-0.150*
1,1,0.303,-0.375,0.150*
%
%ADD70ROUNDEDRECTD70*%
%ADD71R,1.603X2.003*%
%ADD72O,1.103X0.503*%
%ADD73O,0.503X1.103*%
%ADD74R,4.133X4.133*%
%ADD75R,0.453X0.553*%
%ADD76R,0.553X0.453*%
%ADD77R,0.853X1.253*%
%ADD78R,1.253X0.853*%
%ADD79R,1.103X0.628*%
%ADD80R,0.853X0.803*%
%ADD81R,1.003X1.003*%
%ADD82R,1.133X1.093*%
%ADD83R,1.803X2.003*%
%ADD84R,0.553X0.903*%
%ADD85C,0.803*%
%ADD86C,0.606*%
%ADD87C,1.103*%
%ADD88C,0.703*%
G36*
X2850Y13125D02*
X200D01*
Y15275D01*
X2850D01*
Y13125D01*
D02*
G37*
D20*
X13096Y-9275D02*
D03*
X12004D02*
D03*
X2096Y13650D02*
D03*
X1004D02*
D03*
X18129Y13650D02*
D03*
X19221D02*
D03*
D25*
X34200Y14214D02*
D03*
Y13122D02*
D03*
X5225Y-129D02*
D03*
Y-1221D02*
D03*
X5225Y1254D02*
D03*
Y2346D02*
D03*
X17425Y12246D02*
D03*
Y11154D02*
D03*
D53*
X3425Y-6400D02*
D03*
X2425D02*
D03*
X14325Y-1925D02*
D03*
X13325D02*
D03*
D54*
X19275Y10900D02*
D03*
Y8100D02*
D03*
X1225Y10950D02*
D03*
Y8150D02*
D03*
D55*
X19657Y12225D02*
D03*
X18793D02*
D03*
X1882Y12225D02*
D03*
X1018D02*
D03*
X18843Y6625D02*
D03*
X19707D02*
D03*
D56*
X2950Y10257D02*
D03*
Y9393D02*
D03*
X34225Y8975D02*
D03*
Y8111D02*
D03*
X34225Y10618D02*
D03*
Y9754D02*
D03*
X34225Y12268D02*
D03*
Y11404D02*
D03*
X17425Y8657D02*
D03*
Y7793D02*
D03*
X17425Y6136D02*
D03*
Y7000D02*
D03*
X17425Y9443D02*
D03*
Y10307D02*
D03*
D57*
X2295Y14700D02*
D03*
X755D02*
D03*
X19445D02*
D03*
X17905D02*
D03*
X14480Y-9250D02*
D03*
X16020D02*
D03*
D58*
X34425Y19100D02*
D03*
X33575D02*
D03*
X17825Y19100D02*
D03*
X16975D02*
D03*
D59*
X34460Y18150D02*
D03*
X33540D02*
D03*
X17850Y18175D02*
D03*
X16930D02*
D03*
D60*
X32025Y28900D02*
D03*
X33775Y26600D02*
D03*
X30275D02*
D03*
X2750Y28800D02*
D03*
X4500Y26500D02*
D03*
X1000D02*
D03*
X10275Y28800D02*
D03*
X8525Y26500D02*
D03*
X6775Y28800D02*
D03*
D61*
X22750Y29600D02*
D03*
X12250D02*
D03*
D62*
X21250Y27100D02*
D03*
X20750D02*
D03*
X21750D02*
D03*
X19750D02*
D03*
X19250D02*
D03*
X20250D02*
D03*
X18250D02*
D03*
X17750D02*
D03*
X18750D02*
D03*
X17250D02*
D03*
X16250D02*
D03*
X15750D02*
D03*
X15250D02*
D03*
X14750D02*
D03*
X16750D02*
D03*
X13750D02*
D03*
X13250D02*
D03*
X14250D02*
D03*
D63*
X18800Y-6300D02*
D03*
Y-5200D02*
D03*
Y-4100D02*
D03*
Y-3000D02*
D03*
Y-1900D02*
D03*
Y-800D02*
D03*
Y300D02*
D03*
Y-7400D02*
D03*
Y-8350D02*
D03*
D64*
Y1850D02*
D03*
X23100Y-9300D02*
D03*
D65*
X33900Y4200D02*
D03*
D66*
X33450Y-9300D02*
D03*
D67*
X29300D02*
D03*
D68*
X13950Y18725D02*
D03*
X13450D02*
D03*
X12950D02*
D03*
X12450D02*
D03*
X11950D02*
D03*
X11450D02*
D03*
X10950D02*
D03*
X10450D02*
D03*
X9950D02*
D03*
X9450D02*
D03*
X8950D02*
D03*
X8450D02*
D03*
X7950D02*
D03*
X7450D02*
D03*
X6950D02*
D03*
X6450D02*
D03*
Y7275D02*
D03*
X6950D02*
D03*
X7450D02*
D03*
X7950D02*
D03*
X8450D02*
D03*
X8950D02*
D03*
X9450D02*
D03*
X9950D02*
D03*
X10450D02*
D03*
X10950D02*
D03*
X11450D02*
D03*
X11950D02*
D03*
X12450D02*
D03*
X12950D02*
D03*
X13450D02*
D03*
X13950D02*
D03*
X30600Y18725D02*
D03*
X30100D02*
D03*
X29600D02*
D03*
X29100D02*
D03*
X28600D02*
D03*
X28100D02*
D03*
X27600D02*
D03*
X27100D02*
D03*
X26600D02*
D03*
X26100D02*
D03*
X25600D02*
D03*
X25100D02*
D03*
X24600D02*
D03*
X24100D02*
D03*
X23600D02*
D03*
X23100D02*
D03*
Y7275D02*
D03*
X23600D02*
D03*
X24100D02*
D03*
X24600D02*
D03*
X25100D02*
D03*
X25600D02*
D03*
X26100D02*
D03*
X26600D02*
D03*
X27100D02*
D03*
X27600D02*
D03*
X28100D02*
D03*
X28600D02*
D03*
X29100D02*
D03*
X29600D02*
D03*
X30100D02*
D03*
X30600D02*
D03*
D69*
X4475Y16750D02*
D03*
Y16250D02*
D03*
Y15750D02*
D03*
Y15250D02*
D03*
Y14750D02*
D03*
Y14250D02*
D03*
Y13750D02*
D03*
Y13250D02*
D03*
Y12750D02*
D03*
Y12250D02*
D03*
Y11750D02*
D03*
Y11250D02*
D03*
Y10750D02*
D03*
Y10250D02*
D03*
Y9750D02*
D03*
Y9250D02*
D03*
X15925D02*
D03*
Y9750D02*
D03*
Y10250D02*
D03*
Y10750D02*
D03*
Y11250D02*
D03*
Y11750D02*
D03*
Y12250D02*
D03*
Y12750D02*
D03*
Y13250D02*
D03*
Y13750D02*
D03*
Y14250D02*
D03*
Y14750D02*
D03*
Y15250D02*
D03*
Y15750D02*
D03*
Y16250D02*
D03*
Y16750D02*
D03*
X21125Y16750D02*
D03*
Y16250D02*
D03*
Y15750D02*
D03*
Y15250D02*
D03*
Y14750D02*
D03*
Y14250D02*
D03*
Y13750D02*
D03*
Y13250D02*
D03*
Y12750D02*
D03*
Y12250D02*
D03*
Y11750D02*
D03*
Y11250D02*
D03*
Y10750D02*
D03*
Y10250D02*
D03*
Y9750D02*
D03*
Y9250D02*
D03*
X32575D02*
D03*
Y9750D02*
D03*
Y10250D02*
D03*
Y10750D02*
D03*
Y11250D02*
D03*
Y11750D02*
D03*
Y12250D02*
D03*
Y12750D02*
D03*
Y13250D02*
D03*
Y13750D02*
D03*
Y14250D02*
D03*
Y14750D02*
D03*
Y15250D02*
D03*
Y15750D02*
D03*
Y16250D02*
D03*
Y16750D02*
D03*
D70*
X10325Y-6175D02*
D03*
Y-6825D02*
D03*
Y-7475D02*
D03*
X12575D02*
D03*
Y-6175D02*
D03*
D71*
X3575Y2750D02*
D03*
Y-1650D02*
D03*
X1175D02*
D03*
Y2750D02*
D03*
D72*
X6650Y4150D02*
D03*
Y3500D02*
D03*
Y2850D02*
D03*
Y2200D02*
D03*
Y1550D02*
D03*
Y900D02*
D03*
Y250D02*
D03*
X12550D02*
D03*
Y900D02*
D03*
Y1550D02*
D03*
Y2200D02*
D03*
Y2850D02*
D03*
Y3500D02*
D03*
Y4150D02*
D03*
D73*
X7650Y-750D02*
D03*
X8300D02*
D03*
X8950D02*
D03*
X9600D02*
D03*
X10250D02*
D03*
X10900D02*
D03*
X11550D02*
D03*
Y5150D02*
D03*
X10900D02*
D03*
X10250D02*
D03*
X9600D02*
D03*
X8950D02*
D03*
X8300D02*
D03*
X7650D02*
D03*
D74*
X9600Y2200D02*
D03*
D75*
X16025Y-5625D02*
D03*
X15525D02*
D03*
X15025D02*
D03*
X14525D02*
D03*
X14025D02*
D03*
Y-8075D02*
D03*
X14525D02*
D03*
X15025D02*
D03*
X15525D02*
D03*
X16025D02*
D03*
D76*
X13800Y-6350D02*
D03*
Y-6850D02*
D03*
Y-7350D02*
D03*
X16250D02*
D03*
Y-6850D02*
D03*
Y-6350D02*
D03*
D77*
X17625Y4800D02*
D03*
X15475D02*
D03*
X17625Y650D02*
D03*
X15475D02*
D03*
X9475Y-4525D02*
D03*
X7325D02*
D03*
X9475Y-8675D02*
D03*
X7325D02*
D03*
D78*
X4925Y-9525D02*
D03*
Y-7375D02*
D03*
X775Y-9525D02*
D03*
Y-7375D02*
D03*
X4925Y-5400D02*
D03*
Y-3250D02*
D03*
X775Y-5400D02*
D03*
Y-3250D02*
D03*
D79*
X31950Y21800D02*
D03*
Y22600D02*
D03*
Y23400D02*
D03*
Y24200D02*
D03*
X30250D02*
D03*
Y23400D02*
D03*
Y22600D02*
D03*
Y21800D02*
D03*
X28550D02*
D03*
Y22600D02*
D03*
Y23400D02*
D03*
Y24200D02*
D03*
X26850D02*
D03*
Y23400D02*
D03*
Y22600D02*
D03*
Y21800D02*
D03*
X25150D02*
D03*
Y22600D02*
D03*
Y23400D02*
D03*
Y24200D02*
D03*
X23450D02*
D03*
Y23400D02*
D03*
Y22600D02*
D03*
Y21800D02*
D03*
X21750D02*
D03*
Y22600D02*
D03*
Y23400D02*
D03*
Y24200D02*
D03*
X20050D02*
D03*
Y23400D02*
D03*
Y22600D02*
D03*
Y21800D02*
D03*
X18350D02*
D03*
Y22600D02*
D03*
Y23400D02*
D03*
Y24200D02*
D03*
X16650D02*
D03*
Y23400D02*
D03*
Y22600D02*
D03*
Y21800D02*
D03*
X13250Y24200D02*
D03*
Y23400D02*
D03*
Y22600D02*
D03*
Y21800D02*
D03*
X14950D02*
D03*
Y22600D02*
D03*
Y23400D02*
D03*
Y24200D02*
D03*
X9850D02*
D03*
Y23400D02*
D03*
Y22600D02*
D03*
Y21800D02*
D03*
X11550D02*
D03*
Y22600D02*
D03*
Y23400D02*
D03*
Y24200D02*
D03*
X6450D02*
D03*
Y23400D02*
D03*
Y22600D02*
D03*
Y21800D02*
D03*
X8150D02*
D03*
Y22600D02*
D03*
Y23400D02*
D03*
Y24200D02*
D03*
X3050D02*
D03*
Y23400D02*
D03*
Y22600D02*
D03*
Y21800D02*
D03*
X4750D02*
D03*
Y22600D02*
D03*
Y23400D02*
D03*
Y24200D02*
D03*
D80*
X3550Y4375D02*
D03*
X2700D02*
D03*
D81*
X650Y5875D02*
D03*
Y4375D02*
D03*
D82*
X14325Y355D02*
D03*
Y1895D02*
D03*
D83*
X13675Y-3650D02*
D03*
X16475D02*
D03*
D84*
X34675Y3350D02*
D03*
D85*
X32300Y-4100D02*
D03*
Y-7100D02*
D03*
D86*
X20750Y28125D02*
D03*
X16750D02*
D03*
X18750D02*
D03*
X17750D02*
D03*
X20251Y28426D02*
D03*
X17250Y28375D02*
D03*
X23475Y27000D02*
D03*
X16250Y28375D02*
D03*
X19750Y28125D02*
D03*
X21250Y28426D02*
D03*
X15750Y28125D02*
D03*
X19125Y20600D02*
D03*
X18250Y28375D02*
D03*
X19251Y28426D02*
D03*
X15250Y28375D02*
D03*
X12725Y26875D02*
D03*
X17250Y29600D02*
D03*
X14251Y28375D02*
D03*
X14750Y28125D02*
D03*
X11225Y-9250D02*
D03*
X18175Y17350D02*
D03*
X20400Y18275D02*
D03*
X17250Y15750D02*
D03*
X5800Y16250D02*
D03*
X29450Y8500D02*
D03*
X28826Y8600D02*
D03*
X30075Y8500D02*
D03*
X31300Y8625D02*
D03*
X26000Y8800D02*
D03*
X7400Y10150D02*
D03*
X11950Y8525D02*
D03*
X12450Y9000D02*
D03*
X13650Y10250D02*
D03*
X11575Y21400D02*
D03*
X16300Y1700D02*
D03*
X14700Y5675D02*
D03*
X2775Y11800D02*
D03*
X11435Y9250D02*
D03*
X12125Y5150D02*
D03*
X1300Y-4500D02*
D03*
X14676Y11126D02*
D03*
X14725Y-1200D02*
D03*
X12300Y-1425D02*
D03*
X2925Y775D02*
D03*
X8650Y6050D02*
D03*
X7100Y5125D02*
D03*
X9600Y4550D02*
D03*
X8950Y4575D02*
D03*
X10250D02*
D03*
X7950Y6275D02*
D03*
X12950Y5625D02*
D03*
X5825Y2900D02*
D03*
X5875Y2200D02*
D03*
X6950Y8675D02*
D03*
X12950Y8525D02*
D03*
X12850Y11000D02*
D03*
X10950Y8475D02*
D03*
X15975Y17475D02*
D03*
X5826Y13001D02*
D03*
X14675Y11750D02*
D03*
X10250Y8500D02*
D03*
X8450Y8475D02*
D03*
X13450Y6075D02*
D03*
X5750Y3600D02*
D03*
X28075Y-4700D02*
D03*
X21200Y2000D02*
D03*
X34000Y5600D02*
D03*
X24250Y-9325D02*
D03*
X17675Y-6300D02*
D03*
X20300Y-5150D02*
D03*
X17750Y-2125D02*
D03*
X34000Y-8200D02*
D03*
X24600Y4460D02*
D03*
X22025Y-5600D02*
D03*
X22600Y6000D02*
D03*
X25375Y9450D02*
D03*
X25100Y8725D02*
D03*
X26276Y9500D02*
D03*
X16525Y7800D02*
D03*
X23625Y8800D02*
D03*
X22775Y12500D02*
D03*
X31250Y9750D02*
D03*
X19258Y9652D02*
D03*
X8950Y-150D02*
D03*
X7325Y-7550D02*
D03*
Y-3500D02*
D03*
X13225Y-8525D02*
D03*
X23225Y16250D02*
D03*
X13954Y4604D02*
D03*
X9600Y-1700D02*
D03*
X13250Y250D02*
D03*
X7800Y-1675D02*
D03*
X13500Y2850D02*
D03*
X11975Y2175D02*
D03*
X32575Y17475D02*
D03*
X28275Y5075D02*
D03*
X26600Y5350D02*
D03*
X27675Y21100D02*
D03*
X34250Y14950D02*
D03*
X30350Y16500D02*
D03*
X24188Y3725D02*
D03*
X19900Y16750D02*
D03*
X24600Y5175D02*
D03*
X25400Y14163D02*
D03*
X22775Y11700D02*
D03*
X22400Y16250D02*
D03*
X34200Y15750D02*
D03*
X31325Y14725D02*
D03*
X20050Y21400D02*
D03*
X31450Y11250D02*
D03*
X21575Y4025D02*
D03*
X22025Y4975D02*
D03*
X18801Y13001D02*
D03*
X31550Y27025D02*
D03*
X2500Y16150D02*
D03*
X5575Y21100D02*
D03*
X16075Y20825D02*
D03*
X26625Y2950D02*
D03*
X29075Y5075D02*
D03*
X17500Y-9325D02*
D03*
X15000Y-7400D02*
D03*
X14600Y-6850D02*
D03*
X2350Y20925D02*
D03*
X34500Y23950D02*
D03*
X17525Y23500D02*
D03*
X12275Y28100D02*
D03*
X13300Y-1200D02*
D03*
X2400Y17350D02*
D03*
X875Y17375D02*
D03*
X13400Y-5050D02*
D03*
X12575Y-5525D02*
D03*
X4850Y3400D02*
D03*
X3625Y-200D02*
D03*
X18250Y5900D02*
D03*
X4950Y-6375D02*
D03*
X11225Y-6825D02*
D03*
X20900Y21100D02*
D03*
X18425Y20600D02*
D03*
X25700Y27225D02*
D03*
X24020Y29780D02*
D03*
X24300Y21100D02*
D03*
X23450Y21400D02*
D03*
X29225Y26175D02*
D03*
X32275Y25575D02*
D03*
X26850Y21400D02*
D03*
X32000Y27925D02*
D03*
X8875Y28075D02*
D03*
X9325Y26125D02*
D03*
X3450Y26050D02*
D03*
X11625Y26500D02*
D03*
X5775Y29601D02*
D03*
X7455Y26275D02*
D03*
X31055Y29775D02*
D03*
X32879Y28161D02*
D03*
X34250Y28050D02*
D03*
X23200Y4175D02*
D03*
X26000Y11975D02*
D03*
X2800Y-9075D02*
D03*
X32375Y19075D02*
D03*
X18800Y16825D02*
D03*
X15075Y-3650D02*
D03*
X17450Y24200D02*
D03*
X16650Y21400D02*
D03*
X22075Y21075D02*
D03*
X14175Y20925D02*
D03*
X25876Y29776D02*
D03*
X28725Y29775D02*
D03*
X34500Y29000D02*
D03*
X1700Y27825D02*
D03*
X1050Y24150D02*
D03*
X1713Y21812D02*
D03*
X1050Y28225D02*
D03*
X28775Y27425D02*
D03*
X1700Y24150D02*
D03*
X31150Y21100D02*
D03*
X30250Y21400D02*
D03*
X14950D02*
D03*
X12400Y21100D02*
D03*
X9000Y21100D02*
D03*
X8175Y21400D02*
D03*
X33950Y22200D02*
D03*
X2350Y25700D02*
D03*
X3804Y21054D02*
D03*
X4750Y21400D02*
D03*
X29775Y29775D02*
D03*
X26900D02*
D03*
X3925D02*
D03*
X4575Y27825D02*
D03*
D87*
X12225Y15950D02*
D03*
X10551Y15951D02*
D03*
X9011Y15975D02*
D03*
X12450Y17075D02*
D03*
X13614Y15975D02*
D03*
X11325Y17075D02*
D03*
X10200D02*
D03*
X9075D02*
D03*
X25200D02*
D03*
X26325D02*
D03*
X27450D02*
D03*
X28575D02*
D03*
X33278Y7060D02*
D03*
Y2060D02*
D03*
D88*
X8500Y3300D02*
D03*
X9600D02*
D03*
X10700D02*
D03*
X8500Y2200D02*
D03*
X9600D02*
D03*
X10700D02*
D03*
X8500Y1100D02*
D03*
X9600D02*
D03*
X10700D02*
D03*
M02*
