G04*
G04 #@! TF.GenerationSoftware,Altium Limited,Altium Designer,19.1.7 (138)*
G04*
G04 Layer_Color=255*
%FSLAX43Y43*%
%MOMM*%
G71*
G01*
G75*
%ADD19R,0.550X0.650*%
%ADD20R,0.660X0.559*%
%ADD21R,1.800X1.600*%
%ADD22R,0.540X0.600*%
%ADD23R,0.600X0.540*%
%ADD24R,0.890X0.930*%
%ADD25R,0.559X0.660*%
%ADD26R,0.600X0.550*%
%ADD27R,0.620X0.620*%
%ADD28R,1.000X1.600*%
%ADD29R,0.400X0.800*%
%ADD30R,0.300X0.800*%
%ADD31R,1.200X0.700*%
%ADD32R,1.200X1.000*%
%ADD33R,1.900X1.300*%
%ADD34R,2.800X1.000*%
%ADD35R,0.800X1.000*%
G04:AMPARAMS|DCode=36|XSize=0.3mm|YSize=1.45mm|CornerRadius=0.05mm|HoleSize=0mm|Usage=FLASHONLY|Rotation=0.000|XOffset=0mm|YOffset=0mm|HoleType=Round|Shape=RoundedRectangle|*
%AMROUNDEDRECTD36*
21,1,0.300,1.351,0,0,0.0*
21,1,0.201,1.450,0,0,0.0*
1,1,0.099,0.101,-0.676*
1,1,0.099,-0.101,-0.676*
1,1,0.099,-0.101,0.676*
1,1,0.099,0.101,0.676*
%
%ADD36ROUNDEDRECTD36*%
G04:AMPARAMS|DCode=37|XSize=0.3mm|YSize=1.45mm|CornerRadius=0.05mm|HoleSize=0mm|Usage=FLASHONLY|Rotation=270.000|XOffset=0mm|YOffset=0mm|HoleType=Round|Shape=RoundedRectangle|*
%AMROUNDEDRECTD37*
21,1,0.300,1.351,0,0,270.0*
21,1,0.201,1.450,0,0,270.0*
1,1,0.099,-0.676,-0.101*
1,1,0.099,-0.676,0.101*
1,1,0.099,0.676,0.101*
1,1,0.099,0.676,-0.101*
%
%ADD37ROUNDEDRECTD37*%
G04:AMPARAMS|DCode=38|XSize=0.4mm|YSize=0.85mm|CornerRadius=0.05mm|HoleSize=0mm|Usage=FLASHONLY|Rotation=90.000|XOffset=0mm|YOffset=0mm|HoleType=Round|Shape=RoundedRectangle|*
%AMROUNDEDRECTD38*
21,1,0.400,0.750,0,0,90.0*
21,1,0.300,0.850,0,0,90.0*
1,1,0.100,0.375,0.150*
1,1,0.100,0.375,-0.150*
1,1,0.100,-0.375,-0.150*
1,1,0.100,-0.375,0.150*
%
%ADD38ROUNDEDRECTD38*%
%ADD39R,1.400X1.800*%
%ADD40O,0.900X0.300*%
%ADD41O,0.300X0.900*%
%ADD42R,3.930X3.930*%
%ADD43R,0.250X0.350*%
%ADD44R,0.350X0.250*%
%ADD45R,0.650X1.050*%
%ADD46R,1.050X0.650*%
%ADD47R,0.900X0.425*%
%ADD48R,0.650X0.600*%
%ADD49R,0.800X0.800*%
%ADD50R,0.930X0.890*%
%ADD51R,1.600X1.800*%
%ADD93C,0.600*%
D19*
X3425Y-6400D02*
D03*
X2425D02*
D03*
X14325Y-1925D02*
D03*
X13325D02*
D03*
D20*
X13096Y-9275D02*
D03*
X12004D02*
D03*
X2096Y13650D02*
D03*
X1004D02*
D03*
X18129Y13650D02*
D03*
X19221D02*
D03*
D21*
X19275Y10900D02*
D03*
Y8100D02*
D03*
X1225Y10950D02*
D03*
Y8150D02*
D03*
D22*
X19657Y12225D02*
D03*
X18793D02*
D03*
X1882Y12225D02*
D03*
X1018D02*
D03*
X18843Y6625D02*
D03*
X19707D02*
D03*
D23*
X2950Y10257D02*
D03*
Y9393D02*
D03*
X34225Y8975D02*
D03*
Y8111D02*
D03*
X34225Y10618D02*
D03*
Y9754D02*
D03*
X34225Y12268D02*
D03*
Y11404D02*
D03*
X17425Y8657D02*
D03*
Y7793D02*
D03*
X17425Y6136D02*
D03*
Y7000D02*
D03*
X17425Y9443D02*
D03*
Y10307D02*
D03*
D24*
X2295Y14700D02*
D03*
X755D02*
D03*
X19445D02*
D03*
X17905D02*
D03*
X14480Y-9250D02*
D03*
X16020D02*
D03*
D25*
X34200Y14214D02*
D03*
Y13122D02*
D03*
X5225Y-129D02*
D03*
Y-1221D02*
D03*
X5225Y1254D02*
D03*
Y2346D02*
D03*
X17425Y12246D02*
D03*
Y11154D02*
D03*
D26*
X34425Y19100D02*
D03*
X33575D02*
D03*
X17825Y19100D02*
D03*
X16975D02*
D03*
D27*
X34460Y18150D02*
D03*
X33540D02*
D03*
X17850Y18175D02*
D03*
X16930D02*
D03*
D28*
X32025Y28900D02*
D03*
X33775Y26600D02*
D03*
X30275D02*
D03*
X2750Y28800D02*
D03*
X4500Y26500D02*
D03*
X1000D02*
D03*
X10275Y28800D02*
D03*
X8525Y26500D02*
D03*
X6775Y28800D02*
D03*
D29*
X22750Y29600D02*
D03*
X12250D02*
D03*
D30*
X21250Y27100D02*
D03*
X20750D02*
D03*
X21750D02*
D03*
X19750D02*
D03*
X19250D02*
D03*
X20250D02*
D03*
X18250D02*
D03*
X17750D02*
D03*
X18750D02*
D03*
X17250D02*
D03*
X16250D02*
D03*
X15750D02*
D03*
X15250D02*
D03*
X14750D02*
D03*
X16750D02*
D03*
X13750D02*
D03*
X13250D02*
D03*
X14250D02*
D03*
D31*
X18800Y-6300D02*
D03*
Y-5200D02*
D03*
Y-4100D02*
D03*
Y-3000D02*
D03*
Y-1900D02*
D03*
Y-800D02*
D03*
Y300D02*
D03*
Y-7400D02*
D03*
Y-8350D02*
D03*
D32*
Y1850D02*
D03*
X23100Y-9300D02*
D03*
D33*
X33900Y4200D02*
D03*
D34*
X33450Y-9300D02*
D03*
D35*
X29300D02*
D03*
D36*
X13950Y18725D02*
D03*
X13450D02*
D03*
X12950D02*
D03*
X12450D02*
D03*
X11950D02*
D03*
X11450D02*
D03*
X10950D02*
D03*
X10450D02*
D03*
X9950D02*
D03*
X9450D02*
D03*
X8950D02*
D03*
X8450D02*
D03*
X7950D02*
D03*
X7450D02*
D03*
X6950D02*
D03*
X6450D02*
D03*
Y7275D02*
D03*
X6950D02*
D03*
X7450D02*
D03*
X7950D02*
D03*
X8450D02*
D03*
X8950D02*
D03*
X9450D02*
D03*
X9950D02*
D03*
X10450D02*
D03*
X10950D02*
D03*
X11450D02*
D03*
X11950D02*
D03*
X12450D02*
D03*
X12950D02*
D03*
X13450D02*
D03*
X13950D02*
D03*
X30600Y18725D02*
D03*
X30100D02*
D03*
X29600D02*
D03*
X29100D02*
D03*
X28600D02*
D03*
X28100D02*
D03*
X27600D02*
D03*
X27100D02*
D03*
X26600D02*
D03*
X26100D02*
D03*
X25600D02*
D03*
X25100D02*
D03*
X24600D02*
D03*
X24100D02*
D03*
X23600D02*
D03*
X23100D02*
D03*
Y7275D02*
D03*
X23600D02*
D03*
X24100D02*
D03*
X24600D02*
D03*
X25100D02*
D03*
X25600D02*
D03*
X26100D02*
D03*
X26600D02*
D03*
X27100D02*
D03*
X27600D02*
D03*
X28100D02*
D03*
X28600D02*
D03*
X29100D02*
D03*
X29600D02*
D03*
X30100D02*
D03*
X30600D02*
D03*
D37*
X4475Y16750D02*
D03*
Y16250D02*
D03*
Y15750D02*
D03*
Y15250D02*
D03*
Y14750D02*
D03*
Y14250D02*
D03*
Y13750D02*
D03*
Y13250D02*
D03*
Y12750D02*
D03*
Y12250D02*
D03*
Y11750D02*
D03*
Y11250D02*
D03*
Y10750D02*
D03*
Y10250D02*
D03*
Y9750D02*
D03*
Y9250D02*
D03*
X15925D02*
D03*
Y9750D02*
D03*
Y10250D02*
D03*
Y10750D02*
D03*
Y11250D02*
D03*
Y11750D02*
D03*
Y12250D02*
D03*
Y12750D02*
D03*
Y13250D02*
D03*
Y13750D02*
D03*
Y14250D02*
D03*
Y14750D02*
D03*
Y15250D02*
D03*
Y15750D02*
D03*
Y16250D02*
D03*
Y16750D02*
D03*
X21125Y16750D02*
D03*
Y16250D02*
D03*
Y15750D02*
D03*
Y15250D02*
D03*
Y14750D02*
D03*
Y14250D02*
D03*
Y13750D02*
D03*
Y13250D02*
D03*
Y12750D02*
D03*
Y12250D02*
D03*
Y11750D02*
D03*
Y11250D02*
D03*
Y10750D02*
D03*
Y10250D02*
D03*
Y9750D02*
D03*
Y9250D02*
D03*
X32575D02*
D03*
Y9750D02*
D03*
Y10250D02*
D03*
Y10750D02*
D03*
Y11250D02*
D03*
Y11750D02*
D03*
Y12250D02*
D03*
Y12750D02*
D03*
Y13250D02*
D03*
Y13750D02*
D03*
Y14250D02*
D03*
Y14750D02*
D03*
Y15250D02*
D03*
Y15750D02*
D03*
Y16250D02*
D03*
Y16750D02*
D03*
D38*
X10325Y-6175D02*
D03*
Y-6825D02*
D03*
Y-7475D02*
D03*
X12575D02*
D03*
Y-6175D02*
D03*
D39*
X3575Y2750D02*
D03*
Y-1650D02*
D03*
X1175D02*
D03*
Y2750D02*
D03*
D40*
X6650Y4150D02*
D03*
Y3500D02*
D03*
Y2850D02*
D03*
Y2200D02*
D03*
Y1550D02*
D03*
Y900D02*
D03*
Y250D02*
D03*
X12550D02*
D03*
Y900D02*
D03*
Y1550D02*
D03*
Y2200D02*
D03*
Y2850D02*
D03*
Y3500D02*
D03*
Y4150D02*
D03*
D41*
X7650Y-750D02*
D03*
X8300D02*
D03*
X8950D02*
D03*
X9600D02*
D03*
X10250D02*
D03*
X10900D02*
D03*
X11550D02*
D03*
Y5150D02*
D03*
X10900D02*
D03*
X10250D02*
D03*
X9600D02*
D03*
X8950D02*
D03*
X8300D02*
D03*
X7650D02*
D03*
D42*
X9600Y2200D02*
D03*
D43*
X16025Y-5625D02*
D03*
X15525D02*
D03*
X15025D02*
D03*
X14525D02*
D03*
X14025D02*
D03*
Y-8075D02*
D03*
X14525D02*
D03*
X15025D02*
D03*
X15525D02*
D03*
X16025D02*
D03*
D44*
X13800Y-6350D02*
D03*
Y-6850D02*
D03*
Y-7350D02*
D03*
X16250D02*
D03*
Y-6850D02*
D03*
Y-6350D02*
D03*
D45*
X17625Y4800D02*
D03*
X15475D02*
D03*
X17625Y650D02*
D03*
X15475D02*
D03*
X9475Y-4525D02*
D03*
X7325D02*
D03*
X9475Y-8675D02*
D03*
X7325D02*
D03*
D46*
X4925Y-9525D02*
D03*
Y-7375D02*
D03*
X775Y-9525D02*
D03*
Y-7375D02*
D03*
X4925Y-5400D02*
D03*
Y-3250D02*
D03*
X775Y-5400D02*
D03*
Y-3250D02*
D03*
D47*
X31950Y21800D02*
D03*
Y22600D02*
D03*
Y23400D02*
D03*
Y24200D02*
D03*
X30250D02*
D03*
Y23400D02*
D03*
Y22600D02*
D03*
Y21800D02*
D03*
X28550D02*
D03*
Y22600D02*
D03*
Y23400D02*
D03*
Y24200D02*
D03*
X26850D02*
D03*
Y23400D02*
D03*
Y22600D02*
D03*
Y21800D02*
D03*
X25150D02*
D03*
Y22600D02*
D03*
Y23400D02*
D03*
Y24200D02*
D03*
X23450D02*
D03*
Y23400D02*
D03*
Y22600D02*
D03*
Y21800D02*
D03*
X21750D02*
D03*
Y22600D02*
D03*
Y23400D02*
D03*
Y24200D02*
D03*
X20050D02*
D03*
Y23400D02*
D03*
Y22600D02*
D03*
Y21800D02*
D03*
X18350D02*
D03*
Y22600D02*
D03*
Y23400D02*
D03*
Y24200D02*
D03*
X16650D02*
D03*
Y23400D02*
D03*
Y22600D02*
D03*
Y21800D02*
D03*
X13250Y24200D02*
D03*
Y23400D02*
D03*
Y22600D02*
D03*
Y21800D02*
D03*
X14950D02*
D03*
Y22600D02*
D03*
Y23400D02*
D03*
Y24200D02*
D03*
X9850D02*
D03*
Y23400D02*
D03*
Y22600D02*
D03*
Y21800D02*
D03*
X11550D02*
D03*
Y22600D02*
D03*
Y23400D02*
D03*
Y24200D02*
D03*
X6450D02*
D03*
Y23400D02*
D03*
Y22600D02*
D03*
Y21800D02*
D03*
X8150D02*
D03*
Y22600D02*
D03*
Y23400D02*
D03*
Y24200D02*
D03*
X3050D02*
D03*
Y23400D02*
D03*
Y22600D02*
D03*
Y21800D02*
D03*
X4750D02*
D03*
Y22600D02*
D03*
Y23400D02*
D03*
Y24200D02*
D03*
D48*
X3550Y4375D02*
D03*
X2700D02*
D03*
D49*
X650Y5875D02*
D03*
Y4375D02*
D03*
D50*
X14325Y355D02*
D03*
Y1895D02*
D03*
D51*
X13675Y-3650D02*
D03*
X16475D02*
D03*
D93*
X32300Y-4100D02*
D03*
Y-7100D02*
D03*
M02*
