G04*
G04 #@! TF.GenerationSoftware,Altium Limited,Altium Designer,19.1.7 (138)*
G04*
G04 Layer_Color=128*
%FSLAX43Y43*%
%MOMM*%
G71*
G01*
G75*
%ADD20R,0.660X0.559*%
%ADD21R,1.800X1.600*%
%ADD22R,0.540X0.600*%
%ADD23R,0.600X0.540*%
%ADD25R,0.559X0.660*%
%ADD35R,0.800X1.000*%
%ADD49R,0.800X0.800*%
%ADD50R,0.930X0.890*%
%ADD97R,1.600X1.000*%
%ADD98R,0.950X0.950*%
%ADD99R,0.356X1.168*%
%ADD100R,0.600X1.350*%
%ADD101R,1.500X3.400*%
%ADD102R,1.000X3.500*%
G04:AMPARAMS|DCode=103|XSize=0.6mm|YSize=1mm|CornerRadius=0.051mm|HoleSize=0mm|Usage=FLASHONLY|Rotation=90.000|XOffset=0mm|YOffset=0mm|HoleType=Round|Shape=RoundedRectangle|*
%AMROUNDEDRECTD103*
21,1,0.600,0.898,0,0,90.0*
21,1,0.498,1.000,0,0,90.0*
1,1,0.102,0.449,0.249*
1,1,0.102,0.449,-0.249*
1,1,0.102,-0.449,-0.249*
1,1,0.102,-0.449,0.249*
%
%ADD103ROUNDEDRECTD103*%
%ADD104R,2.000X1.200*%
%ADD105R,1.100X1.700*%
%ADD106R,1.500X0.700*%
%ADD107R,0.950X0.950*%
%ADD108R,1.220X0.910*%
%ADD109R,0.660X0.762*%
%ADD110R,0.889X0.457*%
%ADD111R,0.660X0.508*%
D20*
X30171Y9425D02*
D03*
X29079D02*
D03*
X24521Y14150D02*
D03*
X23429D02*
D03*
D21*
X27600Y12400D02*
D03*
Y9600D02*
D03*
D22*
X21236Y13300D02*
D03*
X22100D02*
D03*
X29957Y10250D02*
D03*
X29093D02*
D03*
X24407Y15075D02*
D03*
X23543D02*
D03*
D23*
X28725Y15082D02*
D03*
Y14218D02*
D03*
X29550Y15082D02*
D03*
Y14218D02*
D03*
X26000Y2064D02*
D03*
Y1200D02*
D03*
X26000Y11132D02*
D03*
Y10268D02*
D03*
X20300Y4832D02*
D03*
Y3968D02*
D03*
X30375Y13343D02*
D03*
Y14207D02*
D03*
D25*
X27050Y15196D02*
D03*
Y14104D02*
D03*
X27900Y15196D02*
D03*
Y14104D02*
D03*
X30300Y12421D02*
D03*
Y11329D02*
D03*
D35*
X31335Y-1950D02*
D03*
X33265D02*
D03*
Y-9250D02*
D03*
X31335D02*
D03*
X32186Y9680D02*
D03*
X34421D02*
D03*
X32262Y-480D02*
D03*
X34421D02*
D03*
D49*
X4050Y19925D02*
D03*
Y18425D02*
D03*
X18400Y2975D02*
D03*
Y4475D02*
D03*
D50*
X29300Y12745D02*
D03*
Y11205D02*
D03*
X20300Y1230D02*
D03*
Y2770D02*
D03*
X26600Y7840D02*
D03*
Y6300D02*
D03*
X19300Y7670D02*
D03*
Y6130D02*
D03*
X20000Y13170D02*
D03*
Y11630D02*
D03*
D97*
X21575Y17425D02*
D03*
X19275Y15675D02*
D03*
Y19175D02*
D03*
D98*
X16425Y19850D02*
D03*
Y18350D02*
D03*
X15000Y19850D02*
D03*
Y18350D02*
D03*
X18400Y1550D02*
D03*
Y50D02*
D03*
X5250Y19900D02*
D03*
Y18400D02*
D03*
X875Y19850D02*
D03*
Y18350D02*
D03*
X2650Y19875D02*
D03*
Y18375D02*
D03*
D99*
X2350Y29003D02*
D03*
X1700D02*
D03*
X2350Y27047D02*
D03*
X1700D02*
D03*
X1050Y29003D02*
D03*
Y27047D02*
D03*
X5225Y29003D02*
D03*
X4575D02*
D03*
X5225Y27047D02*
D03*
X4575D02*
D03*
X3925Y29003D02*
D03*
Y27047D02*
D03*
X8100Y29003D02*
D03*
X7450D02*
D03*
X8100Y27047D02*
D03*
X7450D02*
D03*
X6800Y29003D02*
D03*
Y27047D02*
D03*
X10975Y29003D02*
D03*
X10325D02*
D03*
X10975Y27047D02*
D03*
X10325D02*
D03*
X9675Y29003D02*
D03*
Y27047D02*
D03*
X25325Y29003D02*
D03*
X24675D02*
D03*
X25325Y27047D02*
D03*
X24675D02*
D03*
X24025Y29003D02*
D03*
Y27047D02*
D03*
X28200Y29003D02*
D03*
X27550D02*
D03*
X28200Y27047D02*
D03*
X27550D02*
D03*
X26900Y29003D02*
D03*
Y27047D02*
D03*
X31075Y29003D02*
D03*
X30425D02*
D03*
X31075Y27047D02*
D03*
X30425D02*
D03*
X29775Y29003D02*
D03*
Y27047D02*
D03*
X33950Y29003D02*
D03*
X33300D02*
D03*
X33950Y27047D02*
D03*
X33300D02*
D03*
X32650Y29003D02*
D03*
Y27047D02*
D03*
X33950Y24928D02*
D03*
Y22972D02*
D03*
X33300Y24928D02*
D03*
X32650D02*
D03*
Y22972D02*
D03*
X33300D02*
D03*
X1050D02*
D03*
X1700D02*
D03*
X2350D02*
D03*
Y24928D02*
D03*
X1700D02*
D03*
X1050D02*
D03*
D100*
X29725Y515D02*
D03*
X28775D02*
D03*
X27825D02*
D03*
Y2885D02*
D03*
X29725D02*
D03*
D101*
X19650Y-8200D02*
D03*
X26350D02*
D03*
D102*
X22000Y-2450D02*
D03*
X24000D02*
D03*
D103*
X24575Y3050D02*
D03*
Y2100D02*
D03*
Y1150D02*
D03*
X21825D02*
D03*
Y3050D02*
D03*
X21550Y6000D02*
D03*
Y6950D02*
D03*
Y7900D02*
D03*
X24300D02*
D03*
Y6950D02*
D03*
Y6000D02*
D03*
X21550Y11700D02*
D03*
Y9800D02*
D03*
X24300D02*
D03*
Y10750D02*
D03*
Y11700D02*
D03*
D104*
X1300Y-1200D02*
D03*
Y800D02*
D03*
Y2800D02*
D03*
Y4800D02*
D03*
Y6800D02*
D03*
Y8800D02*
D03*
Y10800D02*
D03*
Y12800D02*
D03*
X16300D02*
D03*
Y10800D02*
D03*
Y8800D02*
D03*
Y6800D02*
D03*
Y4800D02*
D03*
Y2800D02*
D03*
Y800D02*
D03*
Y-1200D02*
D03*
D105*
X3800Y14300D02*
D03*
X5800D02*
D03*
X7800D02*
D03*
X9800D02*
D03*
X11800D02*
D03*
X13800D02*
D03*
D106*
X30550Y-6350D02*
D03*
Y-7850D02*
D03*
Y-3350D02*
D03*
X31500Y7600D02*
D03*
Y6096D02*
D03*
Y3100D02*
D03*
Y1600D02*
D03*
D107*
X28050Y-1100D02*
D03*
X29550D02*
D03*
D108*
X28400Y-2965D02*
D03*
Y-6235D02*
D03*
D109*
X28825Y5924D02*
D03*
Y7575D02*
D03*
D110*
X29300Y22611D02*
D03*
Y23500D02*
D03*
Y24389D02*
D03*
Y25278D02*
D03*
X31129D02*
D03*
Y24389D02*
D03*
Y23500D02*
D03*
Y22611D02*
D03*
X26136Y22617D02*
D03*
Y23506D02*
D03*
Y24395D02*
D03*
Y25284D02*
D03*
X27964D02*
D03*
Y24395D02*
D03*
Y23506D02*
D03*
Y22617D02*
D03*
X22986D02*
D03*
Y23506D02*
D03*
Y24395D02*
D03*
Y25284D02*
D03*
X24814D02*
D03*
Y24395D02*
D03*
Y23506D02*
D03*
Y22617D02*
D03*
X19811D02*
D03*
Y23506D02*
D03*
Y24395D02*
D03*
Y25284D02*
D03*
X21639D02*
D03*
Y24395D02*
D03*
Y23506D02*
D03*
Y22617D02*
D03*
X16636D02*
D03*
Y23506D02*
D03*
Y24395D02*
D03*
Y25284D02*
D03*
X18464D02*
D03*
Y24395D02*
D03*
Y23506D02*
D03*
Y22617D02*
D03*
X15314Y25284D02*
D03*
Y24395D02*
D03*
Y23506D02*
D03*
Y22617D02*
D03*
X13486D02*
D03*
Y23506D02*
D03*
Y24395D02*
D03*
Y25284D02*
D03*
X12139D02*
D03*
Y24395D02*
D03*
Y23506D02*
D03*
Y22617D02*
D03*
X10311D02*
D03*
Y23506D02*
D03*
Y24395D02*
D03*
Y25284D02*
D03*
X8964D02*
D03*
Y24395D02*
D03*
Y23506D02*
D03*
Y22617D02*
D03*
X7136D02*
D03*
Y23506D02*
D03*
Y24395D02*
D03*
Y25284D02*
D03*
X5800Y25278D02*
D03*
Y24389D02*
D03*
Y23500D02*
D03*
Y22611D02*
D03*
X3971D02*
D03*
Y23500D02*
D03*
Y24389D02*
D03*
Y25278D02*
D03*
D111*
X23433Y13300D02*
D03*
X24500D02*
D03*
M02*
