G04*
G04 #@! TF.GenerationSoftware,Altium Limited,Altium Designer,19.1.7 (138)*
G04*
G04 Layer_Physical_Order=2*
G04 Layer_Color=36540*
%FSLAX43Y43*%
%MOMM*%
G71*
G01*
G75*
%ADD16C,0.254*%
%ADD89C,0.152*%
%ADD91C,0.300*%
%ADD94C,0.403*%
D16*
X11225Y-8100D02*
X12575Y-6750D01*
X11225Y-9250D02*
X11250D01*
X11300Y-9300D01*
X11225Y-9250D02*
Y-8100D01*
X11300Y-9300D02*
X17475D01*
X17500Y-9325D01*
X23144Y6635D02*
Y9211D01*
X23256Y9323D02*
Y12019D01*
X23144Y9211D02*
X23256Y9323D01*
X23144Y6635D02*
X23200Y6579D01*
X22025Y11750D02*
X22775Y12500D01*
X23256Y12019D01*
X23200Y4175D02*
Y6579D01*
X29075Y-7425D02*
Y5075D01*
X28450Y-8050D02*
X29075Y-7425D01*
X23945Y-8050D02*
X28450D01*
X22670Y-9325D02*
X23945Y-8050D01*
X17500Y-9325D02*
X22670D01*
X33325Y23650D02*
X33625Y23950D01*
X34500D01*
X33325Y21325D02*
Y23650D01*
X31302Y19302D02*
X33325Y21325D01*
X31302Y17452D02*
Y19302D01*
X30350Y16500D02*
X31302Y17452D01*
X14675Y11750D02*
X22025D01*
X12575Y-6750D02*
Y-5525D01*
D89*
X8600Y10150D02*
X10250Y8500D01*
X7400Y10150D02*
X8600D01*
X5800Y16250D02*
X6800D01*
X8575Y18025D01*
X13225D01*
X15000Y16250D01*
X22400D01*
X17250Y15750D02*
X34200D01*
X5826Y13001D02*
X18801D01*
X7007Y8732D02*
Y9801D01*
X5008Y11800D02*
X7007Y9801D01*
X2775Y11800D02*
X5008D01*
X6950Y8675D02*
X7007Y8732D01*
X8650Y6050D02*
X8663Y6062D01*
X13438D02*
X13450Y6075D01*
X8663Y6062D02*
X13438D01*
X7100Y5125D02*
X7130Y5095D01*
Y4695D02*
X7300Y4525D01*
X7130Y4695D02*
Y5095D01*
X7950Y3173D02*
Y6275D01*
X5825Y2900D02*
Y2900D01*
X6599Y3674D01*
X16525Y7800D02*
X18250Y6075D01*
X22775Y8825D02*
Y11700D01*
X22025Y8075D02*
X22775Y8825D01*
X18250Y5900D02*
Y6075D01*
X14675Y9283D02*
Y11125D01*
X14676Y11126D01*
X19725Y2175D02*
X21575Y4025D01*
X11975Y2175D02*
X19725D01*
X22025Y-5600D02*
Y4975D01*
Y8075D01*
X28075Y-4700D02*
Y4825D01*
X28275Y5025D01*
Y5075D01*
X5825Y13000D02*
X5826Y13001D01*
X30325Y27025D02*
X31550D01*
X29228Y28122D02*
X30325Y27025D01*
X9325Y25975D02*
Y26125D01*
X4750Y21400D02*
X9325Y25975D01*
X17750Y28125D02*
Y28975D01*
X16750Y28125D02*
Y28975D01*
X15678Y26445D02*
X17250Y28017D01*
X15750Y28125D02*
Y28483D01*
X16250Y27725D02*
Y28375D01*
X14066Y28560D02*
X14251Y28375D01*
X2435Y28560D02*
X14066D01*
X8525Y27625D02*
X14975D01*
X7729Y27320D02*
X15845D01*
X15250Y27900D02*
Y28375D01*
X15062Y29171D02*
X15750Y28483D01*
X9775Y-4675D02*
X11225D01*
X7300Y-2200D02*
X9775Y-4675D01*
X8375Y-2250D02*
X12250D01*
X13300Y-1200D01*
X7800Y-1675D02*
X8375Y-2250D01*
X11225Y-4675D02*
X13775Y-2125D01*
X7300Y-2200D02*
Y4525D01*
X1825Y1875D02*
X2925Y775D01*
X1825Y1875D02*
Y16775D01*
X2400Y17350D01*
X875Y-4075D02*
Y17375D01*
Y-4075D02*
X1300Y-4500D01*
X13150Y6950D02*
X13889Y7688D01*
Y8497D01*
X14675Y9283D01*
X7350Y6950D02*
X13150D01*
X6599Y6199D02*
X7350Y6950D01*
X6599Y3674D02*
Y6199D01*
X7950Y3173D02*
X8445Y2679D01*
X10898D02*
X11402Y2175D01*
X11975D01*
X8445Y2679D02*
X10898D01*
X13775Y-2125D02*
X17750D01*
X11225Y-6825D02*
Y-4675D01*
X18911Y26711D02*
X23156D01*
X18425Y26225D02*
X18911Y26711D01*
X18425Y20600D02*
Y26225D01*
X23156Y26711D02*
X23445Y27000D01*
X23475D01*
X19125Y20600D02*
X21600D01*
X22075Y21075D01*
X25425Y27500D02*
X25700Y27225D01*
X23146Y27817D02*
X27983D01*
X21555Y28122D02*
X29228D01*
X21251Y28426D02*
X29355D01*
X29477Y28735D02*
X30051Y28161D01*
X21875Y28735D02*
X29477D01*
X22001Y29040D02*
X29040D01*
X23260Y27500D02*
X25425D01*
X22128Y29345D02*
X26470D01*
X18555Y29780D02*
X24020D01*
X17750Y28975D02*
X18555Y29780D01*
X27983Y27817D02*
X28375Y27425D01*
X22776Y27015D02*
X23260Y27500D01*
X18910Y27015D02*
X22776D01*
X18250Y27675D02*
X18910Y27015D01*
X18250Y27675D02*
Y28375D01*
X22719Y27390D02*
X23146Y27817D01*
X19560Y27390D02*
X22719D01*
X21128Y27695D02*
X21555Y28122D01*
X20455Y27695D02*
X21128D01*
X23350Y26150D02*
X29200D01*
X29225Y26175D01*
X22505Y25305D02*
X23350Y26150D01*
X22505Y19355D02*
Y25305D01*
X19900Y16750D02*
X22505Y19355D01*
X32258Y27575D02*
X33678D01*
X32178Y27495D02*
X32258Y27575D01*
X31822Y27495D02*
X32178D01*
X31742Y27575D02*
X31822Y27495D01*
X30206Y27575D02*
X31742D01*
X32372Y28161D02*
X32879D01*
X32178Y28355D02*
X32372Y28161D01*
X31822Y28355D02*
X32178D01*
X31628Y28161D02*
X31822Y28355D01*
X30051Y28161D02*
X31628D01*
X30056Y27725D02*
X30206Y27575D01*
X33678D02*
X34153Y28050D01*
X15950Y29775D02*
X16750Y28975D01*
X5949Y29775D02*
X15950D01*
X5775Y29601D02*
X5949Y29775D01*
X3000Y21858D02*
X3804Y21054D01*
X3000Y21858D02*
Y26858D01*
X4397Y28255D01*
X6801D01*
X6981Y28075D01*
X8875D01*
X6800Y27825D02*
X6996Y27629D01*
X8521D02*
X8525Y27625D01*
X6996Y27629D02*
X8521D01*
X4575Y27825D02*
X6800D01*
X7450Y27050D02*
X7725Y27325D01*
X7729Y27320D01*
X12670Y26930D02*
X12725Y26875D01*
X9005Y26930D02*
X12670D01*
X7850Y25775D02*
X9005Y26930D01*
X3450Y26050D02*
X4425D01*
X4700Y25775D01*
X7850D01*
X7450Y26325D02*
Y27050D01*
X11680Y26445D02*
X15678D01*
X11625Y26500D02*
X11680Y26445D01*
X17250Y28017D02*
Y28375D01*
X15845Y27320D02*
X16250Y27725D01*
X4529Y29171D02*
X15062D01*
X3925Y29775D02*
X4529Y29171D01*
X2309Y28865D02*
X14560D01*
X1700Y27825D02*
X2435Y28560D01*
X1699Y28255D02*
X2309Y28865D01*
X7450Y26325D02*
X7500Y26275D01*
X34153Y28050D02*
X34250D01*
X21997Y29475D02*
X22128Y29345D01*
X21073Y28857D02*
X21754D01*
X20771Y28555D02*
X21073Y28857D01*
X21754D02*
X21875Y28735D01*
X21880Y29161D02*
X22001Y29040D01*
X29040D02*
X29775Y29775D01*
X20086Y29161D02*
X21880D01*
X21250Y28426D02*
X21251Y28426D01*
X26470Y29345D02*
X26900Y29775D01*
X19250Y29475D02*
X21997D01*
X19251Y27699D02*
Y28426D01*
Y27699D02*
X19560Y27390D01*
X19750Y28125D02*
Y28825D01*
X20750Y28125D02*
X20771Y28146D01*
X20250Y27900D02*
Y28425D01*
X20251Y28426D01*
X20250Y27900D02*
X20455Y27695D01*
X20771Y28146D02*
Y28555D01*
X14750Y28125D02*
X14775Y28150D01*
X14975Y27625D02*
X15250Y27900D01*
X18750Y28125D02*
Y28975D01*
X14775Y28150D02*
Y28650D01*
X29355Y28426D02*
X30056Y27725D01*
X28375Y27425D02*
X28775D01*
X19750Y28825D02*
X20086Y29161D01*
X18750Y28975D02*
X19250Y29475D01*
X1080Y28255D02*
X1699D01*
X14560Y28865D02*
X14775Y28650D01*
D91*
X9600Y4550D02*
X9620Y4530D01*
Y4106D02*
X9776Y3950D01*
X9620Y4106D02*
Y4530D01*
X9776Y3950D02*
X11436D01*
X12090Y4604D01*
X13954D01*
D94*
X20750Y28125D02*
D03*
X16750D02*
D03*
X18750D02*
D03*
X17750D02*
D03*
X20251Y28426D02*
D03*
X17250Y28375D02*
D03*
X23475Y27000D02*
D03*
X16250Y28375D02*
D03*
X19750Y28125D02*
D03*
X21250Y28426D02*
D03*
X15750Y28125D02*
D03*
X19125Y20600D02*
D03*
X18250Y28375D02*
D03*
X19251Y28426D02*
D03*
X15250Y28375D02*
D03*
X12725Y26875D02*
D03*
X14251Y28375D02*
D03*
X14750Y28125D02*
D03*
X11225Y-9250D02*
D03*
X17250Y15750D02*
D03*
X5800Y16250D02*
D03*
X7400Y10150D02*
D03*
X2775Y11800D02*
D03*
X1300Y-4500D02*
D03*
X14676Y11126D02*
D03*
X2925Y775D02*
D03*
X8650Y6050D02*
D03*
X7100Y5125D02*
D03*
X9600Y4550D02*
D03*
X7950Y6275D02*
D03*
X5825Y2900D02*
D03*
X6950Y8675D02*
D03*
X5826Y13001D02*
D03*
X14675Y11750D02*
D03*
X10250Y8500D02*
D03*
X13450Y6075D02*
D03*
X28075Y-4700D02*
D03*
X17750Y-2125D02*
D03*
X22025Y-5600D02*
D03*
X16525Y7800D02*
D03*
X22775Y12500D02*
D03*
X13954Y4604D02*
D03*
X7800Y-1675D02*
D03*
X11975Y2175D02*
D03*
X28275Y5075D02*
D03*
X30350Y16500D02*
D03*
X19900Y16750D02*
D03*
X22775Y11700D02*
D03*
X22400Y16250D02*
D03*
X34200Y15750D02*
D03*
X21575Y4025D02*
D03*
X22025Y4975D02*
D03*
X18801Y13001D02*
D03*
X31550Y27025D02*
D03*
X29075Y5075D02*
D03*
X17500Y-9325D02*
D03*
X34500Y23950D02*
D03*
X13300Y-1200D02*
D03*
X2400Y17350D02*
D03*
X875Y17375D02*
D03*
X12575Y-5525D02*
D03*
X18250Y5900D02*
D03*
X11225Y-6825D02*
D03*
X18425Y20600D02*
D03*
X25700Y27225D02*
D03*
X24020Y29780D02*
D03*
X29225Y26175D02*
D03*
X8875Y28075D02*
D03*
X9325Y26125D02*
D03*
X3450Y26050D02*
D03*
X11625Y26500D02*
D03*
X5775Y29601D02*
D03*
X7455Y26275D02*
D03*
X32879Y28161D02*
D03*
X34250Y28050D02*
D03*
X23200Y4175D02*
D03*
X22075Y21075D02*
D03*
X1700Y27825D02*
D03*
X1050Y28225D02*
D03*
X28775Y27425D02*
D03*
X3804Y21054D02*
D03*
X4750Y21400D02*
D03*
X29775Y29775D02*
D03*
X26900D02*
D03*
X3925D02*
D03*
X4575Y27825D02*
D03*
M02*
