G04*
G04 #@! TF.GenerationSoftware,Altium Limited,Altium Designer,19.1.7 (138)*
G04*
G04 Layer_Physical_Order=3*
G04 Layer_Color=16440176*
%FSLAX43Y43*%
%MOMM*%
G71*
G01*
G75*
%ADD16C,0.254*%
%ADD89C,0.152*%
%ADD90C,0.154*%
%ADD91C,0.300*%
%ADD94C,0.403*%
%ADD95C,0.900*%
G36*
X34900Y29433D02*
X34773Y29366D01*
X34678Y29429D01*
X34627Y29439D01*
Y29000D01*
Y28561D01*
X34678Y28571D01*
X34773Y28634D01*
X34900Y28567D01*
Y24217D01*
X34773Y24179D01*
X34755Y24205D01*
X34638Y24283D01*
X34500Y24311D01*
X34362Y24283D01*
X34245Y24205D01*
X34167Y24088D01*
X34139Y23950D01*
X34167Y23812D01*
X34245Y23695D01*
X34362Y23617D01*
X34500Y23589D01*
X34638Y23617D01*
X34755Y23695D01*
X34773Y23721D01*
X34900Y23683D01*
Y-9900D01*
X24346D01*
X24333Y-9773D01*
X24428Y-9754D01*
X24578Y-9653D01*
X24679Y-9503D01*
X24689Y-9452D01*
X23811D01*
X23821Y-9503D01*
X23922Y-9653D01*
X24072Y-9754D01*
X24167Y-9773D01*
X24154Y-9900D01*
X100D01*
Y29900D01*
X3489D01*
X3569Y29802D01*
X3564Y29775D01*
X3592Y29637D01*
X3670Y29520D01*
X3787Y29442D01*
X3925Y29414D01*
X4063Y29442D01*
X4180Y29520D01*
X4258Y29637D01*
X4286Y29775D01*
X4281Y29802D01*
X4361Y29900D01*
X5396D01*
X5464Y29773D01*
X5442Y29740D01*
X5414Y29601D01*
X5442Y29463D01*
X5520Y29346D01*
X5637Y29268D01*
X5775Y29241D01*
X5913Y29268D01*
X6030Y29346D01*
X6109Y29463D01*
X6136Y29601D01*
X6109Y29740D01*
X6086Y29773D01*
X6154Y29900D01*
X16755D01*
X16822Y29796D01*
X16820Y29773D01*
X16811Y29727D01*
X17689D01*
X17680Y29773D01*
X17678Y29796D01*
X17745Y29900D01*
X23583D01*
X23664Y29802D01*
X23659Y29780D01*
X23687Y29642D01*
X23765Y29525D01*
X23882Y29446D01*
X24020Y29419D01*
X24158Y29446D01*
X24275Y29525D01*
X24354Y29642D01*
X24381Y29780D01*
X24377Y29802D01*
X24457Y29900D01*
X25336D01*
X25417Y29802D01*
X25412Y29776D01*
X25447Y29599D01*
X25548Y29448D01*
X25698Y29347D01*
X25749Y29337D01*
Y29776D01*
X26003D01*
Y29337D01*
X26054Y29347D01*
X26205Y29448D01*
X26305Y29599D01*
X26341Y29776D01*
X26440Y29825D01*
X26539Y29775D01*
X26567Y29637D01*
X26645Y29520D01*
X26762Y29442D01*
X26900Y29414D01*
X27038Y29442D01*
X27155Y29520D01*
X27233Y29637D01*
X27261Y29775D01*
X27256Y29802D01*
X27336Y29900D01*
X28185D01*
X28266Y29802D01*
X28260Y29775D01*
X28296Y29597D01*
X28397Y29447D01*
X28547Y29346D01*
X28598Y29336D01*
Y29775D01*
X28852D01*
Y29336D01*
X28903Y29346D01*
X29053Y29447D01*
X29154Y29597D01*
X29190Y29775D01*
X29289Y29857D01*
X29315D01*
X29414Y29775D01*
X29442Y29637D01*
X29520Y29520D01*
X29637Y29442D01*
X29775Y29414D01*
X29913Y29442D01*
X30030Y29520D01*
X30108Y29637D01*
X30136Y29775D01*
X30131Y29802D01*
X30211Y29900D01*
X30515D01*
X30596Y29802D01*
X30590Y29775D01*
X30626Y29597D01*
X30727Y29447D01*
X30877Y29346D01*
X30928Y29336D01*
Y29775D01*
X31182D01*
Y29336D01*
X31233Y29346D01*
X31383Y29447D01*
X31484Y29597D01*
X31520Y29775D01*
X31514Y29802D01*
X31595Y29900D01*
X34900D01*
Y29433D01*
D02*
G37*
%LPC*%
G36*
X17689Y29473D02*
X17377D01*
Y29161D01*
X17428Y29171D01*
X17578Y29272D01*
X17679Y29422D01*
X17689Y29473D01*
D02*
G37*
G36*
X17123D02*
X16811D01*
X16821Y29422D01*
X16922Y29272D01*
X17072Y29171D01*
X17123Y29161D01*
Y29473D01*
D02*
G37*
G36*
X34373Y29439D02*
X34322Y29429D01*
X34172Y29328D01*
X34071Y29178D01*
X34061Y29127D01*
X34373D01*
Y29439D01*
D02*
G37*
G36*
Y28873D02*
X34061D01*
X34071Y28822D01*
X34172Y28672D01*
X34322Y28571D01*
X34373Y28561D01*
Y28873D01*
D02*
G37*
G36*
X20251Y28787D02*
X20113Y28760D01*
X19996Y28682D01*
X19918Y28565D01*
X19913Y28540D01*
X19888Y28458D01*
X19750Y28486D01*
X19730Y28482D01*
X19584Y28565D01*
X19506Y28682D01*
X19389Y28760D01*
X19251Y28787D01*
X19113Y28760D01*
X18996Y28682D01*
X18917Y28565D01*
X18772Y28482D01*
X18750Y28486D01*
X18715Y28479D01*
X18583Y28513D01*
X18505Y28630D01*
X18388Y28708D01*
X18250Y28736D01*
X18112Y28708D01*
X17995Y28630D01*
X17917Y28513D01*
X17785Y28479D01*
X17750Y28486D01*
X17612Y28458D01*
X17593Y28466D01*
X17583Y28513D01*
X17505Y28630D01*
X17388Y28708D01*
X17250Y28736D01*
X17112Y28708D01*
X16995Y28630D01*
X16917Y28513D01*
X16907Y28466D01*
X16888Y28458D01*
X16750Y28486D01*
X16720Y28480D01*
X16583Y28513D01*
X16505Y28630D01*
X16388Y28708D01*
X16250Y28736D01*
X16112Y28708D01*
X15995Y28630D01*
X15917Y28513D01*
X15907Y28466D01*
X15888Y28458D01*
X15750Y28486D01*
X15720Y28480D01*
X15583Y28513D01*
X15505Y28630D01*
X15388Y28708D01*
X15250Y28736D01*
X15112Y28708D01*
X14995Y28630D01*
X14917Y28513D01*
X14907Y28466D01*
X14888Y28458D01*
X14750Y28486D01*
X14612Y28458D01*
X14594Y28466D01*
X14584Y28513D01*
X14506Y28630D01*
X14389Y28708D01*
X14251Y28736D01*
X14113Y28708D01*
X13995Y28630D01*
X13917Y28513D01*
X13890Y28375D01*
X13917Y28237D01*
X13995Y28120D01*
X14113Y28042D01*
X14251Y28014D01*
X14389Y28042D01*
X14407Y28034D01*
X14417Y27987D01*
X14495Y27870D01*
X14612Y27792D01*
X14750Y27764D01*
X14888Y27792D01*
X15005Y27870D01*
X15083Y27987D01*
X15093Y28034D01*
X15112Y28042D01*
X15250Y28014D01*
X15280Y28020D01*
X15417Y27987D01*
X15495Y27870D01*
X15612Y27792D01*
X15750Y27764D01*
X15888Y27792D01*
X16005Y27870D01*
X16083Y27987D01*
X16093Y28034D01*
X16112Y28042D01*
X16250Y28014D01*
X16280Y28020D01*
X16417Y27987D01*
X16495Y27870D01*
X16612Y27792D01*
X16750Y27764D01*
X16888Y27792D01*
X17005Y27870D01*
X17083Y27987D01*
X17093Y28034D01*
X17112Y28042D01*
X17250Y28014D01*
X17388Y28042D01*
X17407Y28034D01*
X17417Y27987D01*
X17495Y27870D01*
X17612Y27792D01*
X17750Y27764D01*
X17888Y27792D01*
X18005Y27870D01*
X18083Y27987D01*
X18215Y28021D01*
X18250Y28014D01*
X18285Y28021D01*
X18417Y27987D01*
X18495Y27870D01*
X18612Y27792D01*
X18750Y27764D01*
X18888Y27792D01*
X19005Y27870D01*
X19083Y27987D01*
X19104Y28089D01*
X19113Y28093D01*
X19251Y28065D01*
X19271Y28069D01*
X19417Y27987D01*
X19495Y27870D01*
X19612Y27792D01*
X19750Y27764D01*
X19888Y27792D01*
X20005Y27870D01*
X20083Y27987D01*
X20088Y28012D01*
X20113Y28093D01*
X20251Y28065D01*
X20272Y28070D01*
X20417Y27987D01*
X20495Y27870D01*
X20612Y27792D01*
X20750Y27764D01*
X20888Y27792D01*
X21005Y27870D01*
X21083Y27987D01*
X21229Y28069D01*
X21250Y28065D01*
X21389Y28092D01*
X21506Y28171D01*
X21584Y28288D01*
X21611Y28426D01*
X21584Y28564D01*
X21506Y28681D01*
X21389Y28759D01*
X21250Y28787D01*
X21112Y28759D01*
X20995Y28681D01*
X20917Y28564D01*
X20771Y28482D01*
X20750Y28486D01*
X20729Y28482D01*
X20584Y28565D01*
X20506Y28682D01*
X20389Y28760D01*
X20251Y28787D01*
D02*
G37*
G36*
X12402Y28539D02*
Y28227D01*
X12714D01*
X12704Y28278D01*
X12603Y28428D01*
X12453Y28529D01*
X12402Y28539D01*
D02*
G37*
G36*
X12148D02*
X12097Y28529D01*
X11947Y28428D01*
X11846Y28278D01*
X11836Y28227D01*
X12148D01*
Y28539D01*
D02*
G37*
G36*
X32879Y28522D02*
X32741Y28495D01*
X32624Y28417D01*
X32546Y28299D01*
X32518Y28161D01*
X32546Y28023D01*
X32624Y27906D01*
X32741Y27828D01*
X32879Y27800D01*
X33017Y27828D01*
X33134Y27906D01*
X33212Y28023D01*
X33240Y28161D01*
X33212Y28299D01*
X33134Y28417D01*
X33017Y28495D01*
X32879Y28522D01*
D02*
G37*
G36*
X8875Y28436D02*
X8737Y28408D01*
X8620Y28330D01*
X8542Y28213D01*
X8514Y28075D01*
X8542Y27937D01*
X8620Y27820D01*
X8737Y27742D01*
X8875Y27714D01*
X9013Y27742D01*
X9130Y27820D01*
X9208Y27937D01*
X9236Y28075D01*
X9208Y28213D01*
X9130Y28330D01*
X9013Y28408D01*
X8875Y28436D01*
D02*
G37*
G36*
X34250Y28411D02*
X34112Y28383D01*
X33995Y28305D01*
X33917Y28188D01*
X33889Y28050D01*
X33917Y27912D01*
X33995Y27795D01*
X34112Y27717D01*
X34250Y27689D01*
X34388Y27717D01*
X34505Y27795D01*
X34583Y27912D01*
X34611Y28050D01*
X34583Y28188D01*
X34505Y28305D01*
X34388Y28383D01*
X34250Y28411D01*
D02*
G37*
G36*
X12714Y27973D02*
X12402D01*
Y27661D01*
X12453Y27671D01*
X12603Y27772D01*
X12704Y27922D01*
X12714Y27973D01*
D02*
G37*
G36*
X12148D02*
X11836D01*
X11846Y27922D01*
X11947Y27772D01*
X12097Y27671D01*
X12148Y27661D01*
Y27973D01*
D02*
G37*
G36*
X32000Y28286D02*
X31862Y28258D01*
X31745Y28180D01*
X31667Y28063D01*
X31639Y27925D01*
X31667Y27787D01*
X31745Y27670D01*
X31862Y27592D01*
X32000Y27564D01*
X32138Y27592D01*
X32255Y27670D01*
X32333Y27787D01*
X32361Y27925D01*
X32333Y28063D01*
X32255Y28180D01*
X32138Y28258D01*
X32000Y28286D01*
D02*
G37*
G36*
X1050Y28586D02*
X912Y28558D01*
X795Y28480D01*
X717Y28363D01*
X689Y28225D01*
X717Y28087D01*
X795Y27970D01*
X912Y27892D01*
X1050Y27864D01*
X1188Y27892D01*
X1228Y27918D01*
X1342Y27842D01*
X1339Y27825D01*
X1367Y27687D01*
X1445Y27570D01*
X1562Y27492D01*
X1700Y27464D01*
X1838Y27492D01*
X1955Y27570D01*
X2033Y27687D01*
X2061Y27825D01*
X2033Y27963D01*
X1955Y28080D01*
X1838Y28158D01*
X1700Y28186D01*
X1562Y28158D01*
X1522Y28132D01*
X1408Y28208D01*
X1411Y28225D01*
X1383Y28363D01*
X1305Y28480D01*
X1188Y28558D01*
X1050Y28586D01*
D02*
G37*
G36*
X4575Y28186D02*
X4437Y28158D01*
X4320Y28080D01*
X4242Y27963D01*
X4214Y27825D01*
X4242Y27687D01*
X4320Y27570D01*
X4437Y27492D01*
X4575Y27464D01*
X4713Y27492D01*
X4830Y27570D01*
X4908Y27687D01*
X4936Y27825D01*
X4908Y27963D01*
X4830Y28080D01*
X4713Y28158D01*
X4575Y28186D01*
D02*
G37*
G36*
X28775Y27786D02*
X28637Y27758D01*
X28520Y27680D01*
X28442Y27563D01*
X28414Y27425D01*
X28442Y27287D01*
X28520Y27170D01*
X28637Y27092D01*
X28775Y27064D01*
X28913Y27092D01*
X29030Y27170D01*
X29108Y27287D01*
X29136Y27425D01*
X29108Y27563D01*
X29030Y27680D01*
X28913Y27758D01*
X28775Y27786D01*
D02*
G37*
G36*
X25700Y27586D02*
X25562Y27558D01*
X25445Y27480D01*
X25367Y27363D01*
X25339Y27225D01*
X25367Y27087D01*
X25445Y26970D01*
X25562Y26892D01*
X25700Y26864D01*
X25838Y26892D01*
X25955Y26970D01*
X26033Y27087D01*
X26061Y27225D01*
X26033Y27363D01*
X25955Y27480D01*
X25838Y27558D01*
X25700Y27586D01*
D02*
G37*
G36*
X31550Y27386D02*
X31412Y27358D01*
X31295Y27280D01*
X31217Y27163D01*
X31189Y27025D01*
X31217Y26887D01*
X31295Y26770D01*
X31412Y26692D01*
X31550Y26664D01*
X31688Y26692D01*
X31805Y26770D01*
X31883Y26887D01*
X31911Y27025D01*
X31883Y27163D01*
X31805Y27280D01*
X31688Y27358D01*
X31550Y27386D01*
D02*
G37*
G36*
X23475Y27361D02*
X23337Y27333D01*
X23220Y27255D01*
X23142Y27138D01*
X23114Y27000D01*
X23142Y26862D01*
X23220Y26745D01*
X23337Y26667D01*
X23475Y26639D01*
X23613Y26667D01*
X23730Y26745D01*
X23808Y26862D01*
X23836Y27000D01*
X23808Y27138D01*
X23730Y27255D01*
X23613Y27333D01*
X23475Y27361D01*
D02*
G37*
G36*
X12725Y27236D02*
X12587Y27208D01*
X12470Y27130D01*
X12392Y27013D01*
X12364Y26875D01*
X12392Y26737D01*
X12470Y26620D01*
X12587Y26542D01*
X12725Y26514D01*
X12863Y26542D01*
X12980Y26620D01*
X13058Y26737D01*
X13086Y26875D01*
X13058Y27013D01*
X12980Y27130D01*
X12863Y27208D01*
X12725Y27236D01*
D02*
G37*
G36*
X11625Y26861D02*
X11487Y26833D01*
X11370Y26755D01*
X11292Y26638D01*
X11264Y26500D01*
X11292Y26362D01*
X11370Y26245D01*
X11487Y26167D01*
X11625Y26139D01*
X11763Y26167D01*
X11880Y26245D01*
X11958Y26362D01*
X11986Y26500D01*
X11958Y26638D01*
X11880Y26755D01*
X11763Y26833D01*
X11625Y26861D01*
D02*
G37*
G36*
X7455Y26636D02*
X7317Y26608D01*
X7200Y26530D01*
X7122Y26413D01*
X7094Y26275D01*
X7122Y26137D01*
X7200Y26020D01*
X7317Y25942D01*
X7455Y25914D01*
X7593Y25942D01*
X7710Y26020D01*
X7788Y26137D01*
X7816Y26275D01*
X7788Y26413D01*
X7710Y26530D01*
X7593Y26608D01*
X7455Y26636D01*
D02*
G37*
G36*
X2477Y26139D02*
Y25827D01*
X2789D01*
X2779Y25878D01*
X2678Y26028D01*
X2528Y26129D01*
X2477Y26139D01*
D02*
G37*
G36*
X2223D02*
X2172Y26129D01*
X2022Y26028D01*
X1921Y25878D01*
X1911Y25827D01*
X2223D01*
Y26139D01*
D02*
G37*
G36*
X29225Y26536D02*
X29087Y26508D01*
X28970Y26430D01*
X28892Y26313D01*
X28864Y26175D01*
X28892Y26037D01*
X28970Y25920D01*
X29087Y25842D01*
X29225Y25814D01*
X29363Y25842D01*
X29480Y25920D01*
X29558Y26037D01*
X29586Y26175D01*
X29558Y26313D01*
X29480Y26430D01*
X29363Y26508D01*
X29225Y26536D01*
D02*
G37*
G36*
X9325Y26486D02*
X9187Y26458D01*
X9070Y26380D01*
X8992Y26263D01*
X8964Y26125D01*
X8992Y25987D01*
X9070Y25870D01*
X9187Y25792D01*
X9325Y25764D01*
X9463Y25792D01*
X9580Y25870D01*
X9658Y25987D01*
X9686Y26125D01*
X9658Y26263D01*
X9580Y26380D01*
X9463Y26458D01*
X9325Y26486D01*
D02*
G37*
G36*
X3450Y26411D02*
X3312Y26383D01*
X3195Y26305D01*
X3117Y26188D01*
X3089Y26050D01*
X3117Y25912D01*
X3195Y25795D01*
X3312Y25717D01*
X3450Y25689D01*
X3588Y25717D01*
X3705Y25795D01*
X3783Y25912D01*
X3811Y26050D01*
X3783Y26188D01*
X3705Y26305D01*
X3588Y26383D01*
X3450Y26411D01*
D02*
G37*
G36*
X2789Y25573D02*
X2477D01*
Y25261D01*
X2528Y25271D01*
X2678Y25372D01*
X2779Y25522D01*
X2789Y25573D01*
D02*
G37*
G36*
X2223D02*
X1911D01*
X1921Y25522D01*
X2022Y25372D01*
X2172Y25271D01*
X2223Y25261D01*
Y25573D01*
D02*
G37*
G36*
X32275Y25936D02*
X32137Y25908D01*
X32020Y25830D01*
X31942Y25713D01*
X31914Y25575D01*
X31942Y25437D01*
X32020Y25320D01*
X32137Y25242D01*
X32275Y25214D01*
X32413Y25242D01*
X32530Y25320D01*
X32608Y25437D01*
X32636Y25575D01*
X32608Y25713D01*
X32530Y25830D01*
X32413Y25908D01*
X32275Y25936D01*
D02*
G37*
G36*
X1700Y24511D02*
X1562Y24483D01*
X1445Y24405D01*
X1439Y24396D01*
X1312D01*
X1305Y24405D01*
X1188Y24483D01*
X1050Y24511D01*
X912Y24483D01*
X795Y24405D01*
X717Y24288D01*
X689Y24150D01*
X717Y24012D01*
X795Y23895D01*
X912Y23817D01*
X1050Y23789D01*
X1188Y23817D01*
X1305Y23895D01*
X1312Y23904D01*
X1439D01*
X1445Y23895D01*
X1562Y23817D01*
X1700Y23789D01*
X1838Y23817D01*
X1955Y23895D01*
X2033Y24012D01*
X2061Y24150D01*
X2033Y24288D01*
X1955Y24405D01*
X1838Y24483D01*
X1700Y24511D01*
D02*
G37*
G36*
X17450Y24561D02*
X17312Y24533D01*
X17195Y24455D01*
X17117Y24338D01*
X17089Y24200D01*
X17117Y24062D01*
X17195Y23945D01*
X17179Y23802D01*
X17096Y23678D01*
X17086Y23627D01*
X17964D01*
X17954Y23678D01*
X17853Y23828D01*
X17795Y23868D01*
X17710Y23941D01*
X17762Y24030D01*
X17783Y24062D01*
X17811Y24200D01*
X17783Y24338D01*
X17705Y24455D01*
X17588Y24533D01*
X17450Y24561D01*
D02*
G37*
G36*
X17964Y23373D02*
X17652D01*
Y23061D01*
X17703Y23071D01*
X17853Y23172D01*
X17954Y23322D01*
X17964Y23373D01*
D02*
G37*
G36*
X17398D02*
X17086D01*
X17096Y23322D01*
X17197Y23172D01*
X17347Y23071D01*
X17398Y23061D01*
Y23373D01*
D02*
G37*
G36*
X34077Y22639D02*
Y22327D01*
X34389D01*
X34379Y22378D01*
X34278Y22528D01*
X34128Y22629D01*
X34077Y22639D01*
D02*
G37*
G36*
X33823D02*
X33772Y22629D01*
X33622Y22528D01*
X33521Y22378D01*
X33511Y22327D01*
X33823D01*
Y22639D01*
D02*
G37*
G36*
X34389Y22073D02*
X34077D01*
Y21761D01*
X34128Y21771D01*
X34278Y21872D01*
X34379Y22022D01*
X34389Y22073D01*
D02*
G37*
G36*
X33823D02*
X33511D01*
X33521Y22022D01*
X33622Y21872D01*
X33772Y21771D01*
X33823Y21761D01*
Y22073D01*
D02*
G37*
G36*
X1713Y22173D02*
X1574Y22146D01*
X1457Y22068D01*
X1379Y21951D01*
X1352Y21812D01*
X1379Y21674D01*
X1457Y21557D01*
X1574Y21479D01*
X1713Y21452D01*
X1851Y21479D01*
X1968Y21557D01*
X2046Y21674D01*
X2073Y21812D01*
X2046Y21951D01*
X1968Y22068D01*
X1851Y22146D01*
X1713Y22173D01*
D02*
G37*
G36*
X16650Y21761D02*
X16512Y21733D01*
X16395Y21655D01*
X16317Y21538D01*
X16289Y21400D01*
X16317Y21262D01*
X16228Y21168D01*
X16213Y21158D01*
X16075Y21186D01*
X15937Y21158D01*
X15820Y21080D01*
X15742Y20963D01*
X15724Y20877D01*
X15082Y20235D01*
X6300D01*
X6300Y20235D01*
X6191Y20213D01*
X6099Y20151D01*
X6099Y20151D01*
X2448Y16501D01*
X2362Y16483D01*
X2245Y16405D01*
X2167Y16288D01*
X2139Y16150D01*
X2167Y16012D01*
X2168Y16010D01*
X2100Y15883D01*
X1722D01*
X1083Y16522D01*
Y17088D01*
X1130Y17120D01*
X1208Y17237D01*
X1236Y17375D01*
X1208Y17513D01*
X1130Y17630D01*
X1013Y17708D01*
X875Y17736D01*
X737Y17708D01*
X620Y17630D01*
X542Y17513D01*
X514Y17375D01*
X542Y17237D01*
X617Y17124D01*
Y16425D01*
X635Y16336D01*
X685Y16260D01*
X1460Y15485D01*
X1536Y15435D01*
X1625Y15417D01*
X2850D01*
X2939Y15435D01*
X3015Y15485D01*
X4372Y16842D01*
X8507D01*
X8508Y16840D01*
X8641Y16641D01*
X8667Y16623D01*
Y16470D01*
X8576Y16409D01*
X8443Y16210D01*
X8397Y15975D01*
X8443Y15740D01*
X8576Y15541D01*
X8681Y15471D01*
X8697Y15308D01*
X6298Y12908D01*
X6181Y12971D01*
X6187Y13001D01*
X6159Y13139D01*
X6081Y13256D01*
X5964Y13334D01*
X5826Y13362D01*
X5688Y13334D01*
X5570Y13256D01*
X5492Y13139D01*
X5465Y13001D01*
X5492Y12863D01*
X5570Y12745D01*
X5688Y12667D01*
X5826Y12640D01*
X5855Y12646D01*
X5918Y12529D01*
X4331Y10942D01*
X4280Y10866D01*
X4263Y10777D01*
Y4854D01*
X4280Y4765D01*
X4331Y4689D01*
X5082Y3938D01*
X5055Y3883D01*
X5008Y3833D01*
X4977Y3839D01*
Y3400D01*
Y2961D01*
X5028Y2971D01*
X5178Y3072D01*
X5279Y3222D01*
X5312Y3389D01*
X5346Y3407D01*
X5438Y3430D01*
X5495Y3345D01*
X5560Y3301D01*
X5570Y3156D01*
X5569Y3154D01*
X5492Y3038D01*
X5464Y2900D01*
X5492Y2762D01*
X5570Y2645D01*
X5623Y2610D01*
X5626Y2459D01*
X5620Y2455D01*
X5542Y2338D01*
X5514Y2200D01*
X5542Y2062D01*
X5620Y1945D01*
X5737Y1867D01*
X5875Y1839D01*
X6013Y1867D01*
X6130Y1945D01*
X6208Y2062D01*
X6236Y2200D01*
X6231Y2226D01*
X6420Y2416D01*
X6471Y2491D01*
X6489Y2580D01*
Y5966D01*
X6606Y6014D01*
X7021Y5600D01*
X6979Y5462D01*
X6962Y5458D01*
X6845Y5380D01*
X6767Y5263D01*
X6739Y5125D01*
X6767Y4987D01*
X6845Y4870D01*
X6962Y4792D01*
X7100Y4764D01*
X7238Y4792D01*
X7355Y4870D01*
X7433Y4987D01*
X7437Y5004D01*
X7575Y5046D01*
X7780Y4840D01*
X7856Y4790D01*
X7945Y4772D01*
X8515D01*
X8603Y4645D01*
X8589Y4575D01*
X8617Y4437D01*
X8695Y4320D01*
X8812Y4242D01*
X8950Y4214D01*
X9088Y4242D01*
X9205Y4320D01*
X9328D01*
X9345Y4295D01*
X9462Y4217D01*
X9600Y4189D01*
X9738Y4217D01*
X9855Y4295D01*
X9920Y4249D01*
X9922Y4247D01*
X10072Y4146D01*
X10123Y4136D01*
Y4575D01*
X10377D01*
Y4136D01*
X10428Y4146D01*
X10578Y4247D01*
X10679Y4397D01*
X10715Y4575D01*
X10713Y4582D01*
X10830Y4645D01*
X10946Y4529D01*
Y3761D01*
X10819Y3687D01*
X10700Y3710D01*
X10543Y3679D01*
X10410Y3590D01*
X10321Y3457D01*
X10290Y3300D01*
X10321Y3143D01*
X10410Y3010D01*
X10543Y2921D01*
X10700Y2890D01*
X10819Y2913D01*
X10946Y2839D01*
Y2661D01*
X10819Y2587D01*
X10700Y2610D01*
X10543Y2579D01*
X10410Y2490D01*
X10321Y2357D01*
X10290Y2200D01*
X10321Y2043D01*
X10410Y1910D01*
X10543Y1821D01*
X10700Y1790D01*
X10819Y1813D01*
X10946Y1739D01*
Y1561D01*
X10819Y1487D01*
X10700Y1510D01*
X10543Y1479D01*
X10410Y1390D01*
X10321Y1257D01*
X10290Y1100D01*
X10321Y943D01*
X10410Y810D01*
X10543Y721D01*
X10700Y690D01*
X10857Y721D01*
X10982Y804D01*
X11014Y757D01*
X12944Y-1174D01*
X12939Y-1200D01*
X12967Y-1338D01*
X13045Y-1455D01*
X13162Y-1533D01*
X13300Y-1561D01*
X13438Y-1533D01*
X13555Y-1455D01*
X13633Y-1338D01*
X13661Y-1200D01*
X13633Y-1062D01*
X13555Y-945D01*
X13438Y-867D01*
X13300Y-839D01*
X13274Y-844D01*
X13167Y-737D01*
X13216Y-620D01*
X13815D01*
X14369Y-1174D01*
X14364Y-1200D01*
X14392Y-1338D01*
X14470Y-1455D01*
X14587Y-1533D01*
X14725Y-1561D01*
X14863Y-1533D01*
X14980Y-1455D01*
X15058Y-1338D01*
X15086Y-1200D01*
X15058Y-1062D01*
X14980Y-945D01*
X14863Y-867D01*
X14725Y-839D01*
X14699Y-844D01*
X14077Y-222D01*
X14001Y-172D01*
X13912Y-154D01*
X13614D01*
X13553Y-27D01*
X13589Y17D01*
X21321D01*
X21410Y35D01*
X21486Y85D01*
X25695Y4294D01*
X25746Y4370D01*
X25763Y4459D01*
Y8391D01*
X25890Y8461D01*
X26000Y8439D01*
X26026Y8444D01*
X27472Y6998D01*
X27548Y6948D01*
X27637Y6930D01*
X29780D01*
X29869Y6948D01*
X29945Y6998D01*
X30976Y8030D01*
X31027Y8106D01*
X31027Y8107D01*
X31116Y8190D01*
X31168Y8187D01*
X31173Y8186D01*
Y8625D01*
Y9064D01*
X31172Y9064D01*
X31045Y9143D01*
Y9320D01*
X31172Y9405D01*
X31250Y9389D01*
X31388Y9417D01*
X31505Y9495D01*
X31583Y9612D01*
X31611Y9750D01*
X31583Y9888D01*
X31505Y10005D01*
X31388Y10083D01*
X31250Y10111D01*
X31172Y10095D01*
X31045Y10180D01*
Y10991D01*
X31172Y11029D01*
X31195Y10995D01*
X31312Y10917D01*
X31450Y10889D01*
X31588Y10917D01*
X31705Y10995D01*
X31783Y11112D01*
X31811Y11250D01*
X31783Y11388D01*
X31705Y11505D01*
X31588Y11583D01*
X31450Y11611D01*
X31312Y11583D01*
X31195Y11505D01*
X31172Y11471D01*
X31045Y11509D01*
Y14223D01*
X31172Y14291D01*
X31198Y14286D01*
Y14725D01*
Y15164D01*
X31147Y15154D01*
X30997Y15053D01*
X30932Y15047D01*
X29141Y16838D01*
X29142Y16840D01*
X29189Y17075D01*
X29142Y17310D01*
X29009Y17509D01*
X28810Y17642D01*
X28575Y17689D01*
X28340Y17642D01*
X28141Y17509D01*
X28076Y17412D01*
X27949D01*
X27884Y17509D01*
X27685Y17642D01*
X27450Y17689D01*
X27215Y17642D01*
X27016Y17509D01*
X26951Y17412D01*
X26824D01*
X26759Y17509D01*
X26560Y17642D01*
X26325Y17689D01*
X26318Y17688D01*
X25715Y18290D01*
X25640Y18341D01*
X25550Y18359D01*
X24650D01*
X24560Y18341D01*
X24485Y18290D01*
X24060Y17865D01*
X24009Y17790D01*
X23991Y17700D01*
Y16887D01*
X24009Y16797D01*
X24060Y16721D01*
X26880Y13901D01*
X26832Y13783D01*
X25698D01*
X25661Y13891D01*
X25657Y13910D01*
X25733Y14024D01*
X25761Y14163D01*
X25733Y14301D01*
X25655Y14418D01*
X25538Y14496D01*
X25400Y14523D01*
X25262Y14496D01*
X25145Y14418D01*
X25067Y14301D01*
X25039Y14163D01*
X25067Y14024D01*
X25143Y13910D01*
X25139Y13891D01*
X25102Y13783D01*
X24178D01*
X20250Y17711D01*
X20273Y17753D01*
Y18148D01*
X19878D01*
X19836Y18125D01*
X16943Y21018D01*
X16936Y21028D01*
X16905Y21145D01*
X16924Y21173D01*
X16983Y21262D01*
X17011Y21400D01*
X16983Y21538D01*
X16905Y21655D01*
X16788Y21733D01*
X16650Y21761D01*
D02*
G37*
G36*
X30250D02*
X30112Y21733D01*
X29995Y21655D01*
X29917Y21538D01*
X29889Y21400D01*
X29917Y21262D01*
X29995Y21145D01*
X30112Y21067D01*
X30250Y21039D01*
X30388Y21067D01*
X30505Y21145D01*
X30583Y21262D01*
X30611Y21400D01*
X30583Y21538D01*
X30505Y21655D01*
X30388Y21733D01*
X30250Y21761D01*
D02*
G37*
G36*
X26850D02*
X26712Y21733D01*
X26595Y21655D01*
X26517Y21538D01*
X26489Y21400D01*
X26517Y21262D01*
X26595Y21145D01*
X26712Y21067D01*
X26850Y21039D01*
X26988Y21067D01*
X27105Y21145D01*
X27183Y21262D01*
X27211Y21400D01*
X27183Y21538D01*
X27105Y21655D01*
X26988Y21733D01*
X26850Y21761D01*
D02*
G37*
G36*
X23450D02*
X23312Y21733D01*
X23195Y21655D01*
X23117Y21538D01*
X23089Y21400D01*
X23117Y21262D01*
X23195Y21145D01*
X23312Y21067D01*
X23450Y21039D01*
X23588Y21067D01*
X23705Y21145D01*
X23783Y21262D01*
X23811Y21400D01*
X23783Y21538D01*
X23705Y21655D01*
X23588Y21733D01*
X23450Y21761D01*
D02*
G37*
G36*
X20050D02*
X19912Y21733D01*
X19795Y21655D01*
X19717Y21538D01*
X19689Y21400D01*
X19717Y21262D01*
X19795Y21145D01*
X19912Y21067D01*
X20050Y21039D01*
X20188Y21067D01*
X20305Y21145D01*
X20383Y21262D01*
X20411Y21400D01*
X20383Y21538D01*
X20305Y21655D01*
X20188Y21733D01*
X20050Y21761D01*
D02*
G37*
G36*
X14950D02*
X14812Y21733D01*
X14695Y21655D01*
X14617Y21538D01*
X14589Y21400D01*
X14617Y21262D01*
X14695Y21145D01*
X14812Y21067D01*
X14950Y21039D01*
X15088Y21067D01*
X15205Y21145D01*
X15283Y21262D01*
X15311Y21400D01*
X15283Y21538D01*
X15205Y21655D01*
X15088Y21733D01*
X14950Y21761D01*
D02*
G37*
G36*
X11575D02*
X11437Y21733D01*
X11320Y21655D01*
X11242Y21538D01*
X11214Y21400D01*
X11242Y21262D01*
X11320Y21145D01*
X11437Y21067D01*
X11575Y21039D01*
X11713Y21067D01*
X11830Y21145D01*
X11908Y21262D01*
X11936Y21400D01*
X11908Y21538D01*
X11830Y21655D01*
X11713Y21733D01*
X11575Y21761D01*
D02*
G37*
G36*
X8175D02*
X8037Y21733D01*
X7920Y21655D01*
X7842Y21538D01*
X7814Y21400D01*
X7842Y21262D01*
X7920Y21145D01*
X8037Y21067D01*
X8175Y21039D01*
X8313Y21067D01*
X8430Y21145D01*
X8508Y21262D01*
X8536Y21400D01*
X8508Y21538D01*
X8430Y21655D01*
X8313Y21733D01*
X8175Y21761D01*
D02*
G37*
G36*
X4750D02*
X4612Y21733D01*
X4495Y21655D01*
X4417Y21538D01*
X4389Y21400D01*
X4417Y21262D01*
X4495Y21145D01*
X4612Y21067D01*
X4750Y21039D01*
X4888Y21067D01*
X5005Y21145D01*
X5083Y21262D01*
X5111Y21400D01*
X5083Y21538D01*
X5005Y21655D01*
X4888Y21733D01*
X4750Y21761D01*
D02*
G37*
G36*
X19125Y20961D02*
X18987Y20933D01*
X18870Y20855D01*
X18851Y20828D01*
X18699D01*
X18680Y20855D01*
X18563Y20933D01*
X18425Y20961D01*
X18287Y20933D01*
X18170Y20855D01*
X18092Y20738D01*
X18064Y20600D01*
X18092Y20462D01*
X18170Y20345D01*
X18287Y20267D01*
X18425Y20239D01*
X18563Y20267D01*
X18680Y20345D01*
X18699Y20372D01*
X18851D01*
X18870Y20345D01*
X18987Y20267D01*
X19125Y20239D01*
X19263Y20267D01*
X19380Y20345D01*
X19458Y20462D01*
X19486Y20600D01*
X19458Y20738D01*
X19380Y20855D01*
X19263Y20933D01*
X19125Y20961D01*
D02*
G37*
G36*
X31150Y21461D02*
X31012Y21433D01*
X30895Y21355D01*
X30817Y21238D01*
X30789Y21100D01*
X30817Y20962D01*
X30895Y20845D01*
X31012Y20767D01*
X31150Y20739D01*
X31288Y20767D01*
X31405Y20845D01*
X31483Y20962D01*
X31511Y21100D01*
X31483Y21238D01*
X31405Y21355D01*
X31288Y21433D01*
X31150Y21461D01*
D02*
G37*
G36*
X12400D02*
X12262Y21433D01*
X12145Y21355D01*
X12067Y21238D01*
X12039Y21100D01*
X12067Y20962D01*
X12145Y20845D01*
X12262Y20767D01*
X12400Y20739D01*
X12538Y20767D01*
X12655Y20845D01*
X12733Y20962D01*
X12761Y21100D01*
X12733Y21238D01*
X12655Y21355D01*
X12538Y21433D01*
X12400Y21461D01*
D02*
G37*
G36*
X20900Y21461D02*
X20762Y21433D01*
X20645Y21355D01*
X20567Y21238D01*
X20539Y21100D01*
X20567Y20962D01*
X20645Y20845D01*
X20762Y20767D01*
X20900Y20739D01*
X21038Y20767D01*
X21155Y20845D01*
X21233Y20962D01*
X21261Y21100D01*
X21233Y21238D01*
X21155Y21355D01*
X21038Y21433D01*
X20900Y21461D01*
D02*
G37*
G36*
X5575D02*
X5437Y21433D01*
X5320Y21355D01*
X5242Y21238D01*
X5214Y21100D01*
X5242Y20962D01*
X5320Y20845D01*
X5437Y20767D01*
X5575Y20739D01*
X5713Y20767D01*
X5830Y20845D01*
X5908Y20962D01*
X5936Y21100D01*
X5908Y21238D01*
X5830Y21355D01*
X5713Y21433D01*
X5575Y21461D01*
D02*
G37*
G36*
X27675Y21461D02*
X27537Y21433D01*
X27420Y21355D01*
X27342Y21238D01*
X27314Y21100D01*
X27342Y20962D01*
X27420Y20845D01*
X27537Y20767D01*
X27675Y20739D01*
X27813Y20767D01*
X27930Y20845D01*
X28008Y20962D01*
X28036Y21100D01*
X28008Y21238D01*
X27930Y21355D01*
X27813Y21433D01*
X27675Y21461D01*
D02*
G37*
G36*
X24300D02*
X24162Y21433D01*
X24045Y21355D01*
X23967Y21238D01*
X23939Y21100D01*
X23967Y20962D01*
X24045Y20845D01*
X24162Y20767D01*
X24300Y20739D01*
X24438Y20767D01*
X24555Y20845D01*
X24633Y20962D01*
X24661Y21100D01*
X24633Y21238D01*
X24555Y21355D01*
X24438Y21433D01*
X24300Y21461D01*
D02*
G37*
G36*
X9000D02*
X8862Y21433D01*
X8745Y21355D01*
X8667Y21238D01*
X8639Y21100D01*
X8667Y20962D01*
X8745Y20845D01*
X8862Y20767D01*
X9000Y20739D01*
X9138Y20767D01*
X9255Y20845D01*
X9333Y20962D01*
X9361Y21100D01*
X9333Y21238D01*
X9255Y21355D01*
X9138Y21433D01*
X9000Y21461D01*
D02*
G37*
G36*
X22075Y21436D02*
X21937Y21408D01*
X21820Y21330D01*
X21742Y21213D01*
X21714Y21075D01*
X21742Y20937D01*
X21820Y20820D01*
X21937Y20742D01*
X22075Y20714D01*
X22213Y20742D01*
X22330Y20820D01*
X22408Y20937D01*
X22436Y21075D01*
X22408Y21213D01*
X22330Y21330D01*
X22213Y21408D01*
X22075Y21436D01*
D02*
G37*
G36*
X3804Y21415D02*
X3666Y21388D01*
X3549Y21309D01*
X3471Y21192D01*
X3443Y21054D01*
X3471Y20916D01*
X3549Y20799D01*
X3666Y20721D01*
X3804Y20693D01*
X3942Y20721D01*
X4059Y20799D01*
X4138Y20916D01*
X4165Y21054D01*
X4138Y21192D01*
X4059Y21309D01*
X3942Y21388D01*
X3804Y21415D01*
D02*
G37*
G36*
X14175Y21286D02*
X14037Y21258D01*
X13920Y21180D01*
X13842Y21063D01*
X13814Y20925D01*
X13842Y20787D01*
X13920Y20670D01*
X14037Y20592D01*
X14175Y20564D01*
X14313Y20592D01*
X14430Y20670D01*
X14508Y20787D01*
X14536Y20925D01*
X14508Y21063D01*
X14430Y21180D01*
X14313Y21258D01*
X14175Y21286D01*
D02*
G37*
G36*
X2350D02*
X2212Y21258D01*
X2095Y21180D01*
X2017Y21063D01*
X1989Y20925D01*
X2017Y20787D01*
X2095Y20670D01*
X2212Y20592D01*
X2350Y20564D01*
X2488Y20592D01*
X2605Y20670D01*
X2683Y20787D01*
X2711Y20925D01*
X2683Y21063D01*
X2605Y21180D01*
X2488Y21258D01*
X2350Y21286D01*
D02*
G37*
G36*
X32375Y19436D02*
X32237Y19408D01*
X32120Y19330D01*
X32042Y19213D01*
X32014Y19075D01*
X32042Y18937D01*
X32120Y18820D01*
X32237Y18742D01*
X32375Y18714D01*
X32513Y18742D01*
X32630Y18820D01*
X32708Y18937D01*
X32736Y19075D01*
X32708Y19213D01*
X32630Y19330D01*
X32513Y19408D01*
X32375Y19436D01*
D02*
G37*
G36*
X20527Y18714D02*
Y18402D01*
X20839D01*
X20829Y18453D01*
X20728Y18603D01*
X20578Y18704D01*
X20527Y18714D01*
D02*
G37*
G36*
X20273D02*
X20222Y18704D01*
X20072Y18603D01*
X19971Y18453D01*
X19961Y18402D01*
X20273D01*
Y18714D01*
D02*
G37*
G36*
X20839Y18148D02*
X20527D01*
Y17836D01*
X20578Y17846D01*
X20728Y17947D01*
X20829Y18097D01*
X20839Y18148D01*
D02*
G37*
G36*
X32702Y17914D02*
Y17602D01*
X33014D01*
X33004Y17653D01*
X32903Y17803D01*
X32753Y17904D01*
X32702Y17914D01*
D02*
G37*
G36*
X32448D02*
X32397Y17904D01*
X32247Y17803D01*
X32146Y17653D01*
X32136Y17602D01*
X32448D01*
Y17914D01*
D02*
G37*
G36*
X33014Y17348D02*
X32702D01*
Y17036D01*
X32753Y17046D01*
X32903Y17147D01*
X33004Y17297D01*
X33014Y17348D01*
D02*
G37*
G36*
X32448D02*
X32136D01*
X32146Y17297D01*
X32247Y17147D01*
X32397Y17046D01*
X32448Y17036D01*
Y17348D01*
D02*
G37*
G36*
X2400Y17711D02*
X2262Y17683D01*
X2145Y17605D01*
X2067Y17488D01*
X2039Y17350D01*
X2067Y17212D01*
X2145Y17095D01*
X2262Y17017D01*
X2400Y16989D01*
X2538Y17017D01*
X2655Y17095D01*
X2733Y17212D01*
X2761Y17350D01*
X2733Y17488D01*
X2655Y17605D01*
X2538Y17683D01*
X2400Y17711D01*
D02*
G37*
G36*
X23098Y16689D02*
X23047Y16679D01*
X22897Y16578D01*
X22828Y16476D01*
X22690Y16464D01*
X22681Y16467D01*
X22655Y16505D01*
X22538Y16583D01*
X22400Y16611D01*
X22262Y16583D01*
X22145Y16505D01*
X22067Y16388D01*
X22039Y16250D01*
X22067Y16112D01*
X22145Y15995D01*
X22262Y15917D01*
X22400Y15889D01*
X22538Y15917D01*
X22655Y15995D01*
X22681Y16033D01*
X22690Y16036D01*
X22828Y16024D01*
X22897Y15922D01*
X23047Y15821D01*
X23098Y15811D01*
Y16250D01*
Y16689D01*
D02*
G37*
G36*
X23352D02*
Y16377D01*
X23664D01*
X23654Y16428D01*
X23553Y16578D01*
X23403Y16679D01*
X23352Y16689D01*
D02*
G37*
G36*
X30350Y16861D02*
X30212Y16833D01*
X30095Y16755D01*
X30017Y16638D01*
X29989Y16500D01*
X30017Y16362D01*
X30095Y16245D01*
X30212Y16167D01*
X30350Y16139D01*
X30488Y16167D01*
X30605Y16245D01*
X30683Y16362D01*
X30711Y16500D01*
X30683Y16638D01*
X30605Y16755D01*
X30488Y16833D01*
X30350Y16861D01*
D02*
G37*
G36*
X5800Y16611D02*
X5662Y16583D01*
X5545Y16505D01*
X5467Y16388D01*
X5439Y16250D01*
X5467Y16112D01*
X5545Y15995D01*
X5662Y15917D01*
X5800Y15889D01*
X5938Y15917D01*
X6055Y15995D01*
X6133Y16112D01*
X6161Y16250D01*
X6133Y16388D01*
X6055Y16505D01*
X5938Y16583D01*
X5800Y16611D01*
D02*
G37*
G36*
X23664Y16123D02*
X23352D01*
Y15811D01*
X23403Y15821D01*
X23553Y15922D01*
X23654Y16072D01*
X23664Y16123D01*
D02*
G37*
G36*
X31452Y15164D02*
Y14852D01*
X31764D01*
X31754Y14903D01*
X31653Y15053D01*
X31503Y15154D01*
X31452Y15164D01*
D02*
G37*
G36*
X34200Y16111D02*
X34062Y16083D01*
X33945Y16005D01*
X33867Y15888D01*
X33839Y15750D01*
X33867Y15612D01*
X33945Y15495D01*
X34062Y15417D01*
X34096Y15410D01*
X34109Y15310D01*
X34105Y15279D01*
X33995Y15205D01*
X33917Y15088D01*
X33889Y14950D01*
X33917Y14812D01*
X33995Y14695D01*
X34112Y14617D01*
X34250Y14589D01*
X34388Y14617D01*
X34505Y14695D01*
X34583Y14812D01*
X34611Y14950D01*
X34583Y15088D01*
X34505Y15205D01*
X34388Y15283D01*
X34354Y15290D01*
X34341Y15390D01*
X34345Y15421D01*
X34455Y15495D01*
X34533Y15612D01*
X34561Y15750D01*
X34533Y15888D01*
X34455Y16005D01*
X34338Y16083D01*
X34200Y16111D01*
D02*
G37*
G36*
X31764Y14598D02*
X31452D01*
Y14286D01*
X31503Y14296D01*
X31653Y14397D01*
X31754Y14547D01*
X31764Y14598D01*
D02*
G37*
G36*
X2775Y12161D02*
X2637Y12133D01*
X2520Y12055D01*
X2442Y11938D01*
X2414Y11800D01*
X2442Y11662D01*
X2520Y11545D01*
X2637Y11467D01*
X2775Y11439D01*
X2913Y11467D01*
X3030Y11545D01*
X3108Y11662D01*
X3136Y11800D01*
X3108Y11938D01*
X3030Y12055D01*
X2913Y12133D01*
X2775Y12161D01*
D02*
G37*
G36*
X31427Y9064D02*
Y8752D01*
X31739D01*
X31729Y8803D01*
X31628Y8953D01*
X31478Y9054D01*
X31427Y9064D01*
D02*
G37*
G36*
X31739Y8498D02*
X31427D01*
Y8186D01*
X31478Y8196D01*
X31628Y8297D01*
X31729Y8447D01*
X31739Y8498D01*
D02*
G37*
G36*
X33278Y7674D02*
X33043Y7627D01*
X32844Y7494D01*
X32711Y7295D01*
X32664Y7060D01*
X32711Y6825D01*
X32844Y6626D01*
X33043Y6493D01*
X33278Y6446D01*
X33513Y6493D01*
X33712Y6626D01*
X33845Y6825D01*
X33892Y7060D01*
X33845Y7295D01*
X33712Y7494D01*
X33513Y7627D01*
X33278Y7674D01*
D02*
G37*
G36*
X34127Y6039D02*
Y5727D01*
X34439D01*
X34429Y5778D01*
X34328Y5928D01*
X34178Y6029D01*
X34127Y6039D01*
D02*
G37*
G36*
X33873D02*
X33822Y6029D01*
X33672Y5928D01*
X33571Y5778D01*
X33561Y5727D01*
X33873D01*
Y6039D01*
D02*
G37*
G36*
X26727Y5789D02*
Y5477D01*
X27039D01*
X27029Y5528D01*
X26928Y5678D01*
X26778Y5779D01*
X26727Y5789D01*
D02*
G37*
G36*
X26473D02*
X26422Y5779D01*
X26272Y5678D01*
X26171Y5528D01*
X26161Y5477D01*
X26473D01*
Y5789D01*
D02*
G37*
G36*
X29075Y5436D02*
X28937Y5408D01*
X28820Y5330D01*
X28742Y5213D01*
X28740Y5204D01*
X28610D01*
X28608Y5213D01*
X28530Y5330D01*
X28413Y5408D01*
X28275Y5436D01*
X28137Y5408D01*
X28020Y5330D01*
X27942Y5213D01*
X27914Y5075D01*
X27942Y4937D01*
X28020Y4820D01*
X28137Y4742D01*
X28275Y4714D01*
X28413Y4742D01*
X28530Y4820D01*
X28608Y4937D01*
X28610Y4946D01*
X28740D01*
X28742Y4937D01*
X28820Y4820D01*
X28937Y4742D01*
X29075Y4714D01*
X29213Y4742D01*
X29330Y4820D01*
X29408Y4937D01*
X29436Y5075D01*
X29408Y5213D01*
X29330Y5330D01*
X29213Y5408D01*
X29075Y5436D01*
D02*
G37*
G36*
X34439Y5473D02*
X34127D01*
Y5161D01*
X34178Y5171D01*
X34328Y5272D01*
X34429Y5422D01*
X34439Y5473D01*
D02*
G37*
G36*
X33873D02*
X33561D01*
X33571Y5422D01*
X33672Y5272D01*
X33822Y5171D01*
X33873Y5161D01*
Y5473D01*
D02*
G37*
G36*
X27039Y5223D02*
X26727D01*
Y4911D01*
X26778Y4921D01*
X26928Y5022D01*
X27029Y5172D01*
X27039Y5223D01*
D02*
G37*
G36*
X26473D02*
X26161D01*
X26171Y5172D01*
X26272Y5022D01*
X26422Y4921D01*
X26473Y4911D01*
Y5223D01*
D02*
G37*
G36*
X4723Y3839D02*
X4672Y3829D01*
X4522Y3728D01*
X4421Y3578D01*
X4411Y3527D01*
X4723D01*
Y3839D01*
D02*
G37*
G36*
X26752Y3389D02*
Y3077D01*
X27064D01*
X27054Y3128D01*
X26953Y3278D01*
X26803Y3379D01*
X26752Y3389D01*
D02*
G37*
G36*
X26498D02*
X26447Y3379D01*
X26297Y3278D01*
X26196Y3128D01*
X26186Y3077D01*
X26498D01*
Y3389D01*
D02*
G37*
G36*
X4723Y3273D02*
X4411D01*
X4421Y3222D01*
X4522Y3072D01*
X4672Y2971D01*
X4723Y2961D01*
Y3273D01*
D02*
G37*
G36*
X9600Y3710D02*
X9443Y3679D01*
X9310Y3590D01*
X9221Y3457D01*
X9190Y3300D01*
X9221Y3143D01*
X9310Y3010D01*
X9443Y2921D01*
X9600Y2890D01*
X9757Y2921D01*
X9890Y3010D01*
X9979Y3143D01*
X10010Y3300D01*
X9979Y3457D01*
X9890Y3590D01*
X9757Y3679D01*
X9600Y3710D01*
D02*
G37*
G36*
X8500D02*
X8343Y3679D01*
X8210Y3590D01*
X8121Y3457D01*
X8090Y3300D01*
X8121Y3143D01*
X8210Y3010D01*
X8343Y2921D01*
X8500Y2890D01*
X8657Y2921D01*
X8790Y3010D01*
X8879Y3143D01*
X8910Y3300D01*
X8879Y3457D01*
X8790Y3590D01*
X8657Y3679D01*
X8500Y3710D01*
D02*
G37*
G36*
X27064Y2823D02*
X26752D01*
Y2511D01*
X26803Y2521D01*
X26953Y2622D01*
X27054Y2772D01*
X27064Y2823D01*
D02*
G37*
G36*
X26498D02*
X26186D01*
X26196Y2772D01*
X26297Y2622D01*
X26447Y2521D01*
X26498Y2511D01*
Y2823D01*
D02*
G37*
G36*
X9600Y2610D02*
X9443Y2579D01*
X9310Y2490D01*
X9221Y2357D01*
X9190Y2200D01*
X9221Y2043D01*
X9310Y1910D01*
X9443Y1821D01*
X9600Y1790D01*
X9757Y1821D01*
X9890Y1910D01*
X9979Y2043D01*
X10010Y2200D01*
X9979Y2357D01*
X9890Y2490D01*
X9757Y2579D01*
X9600Y2610D01*
D02*
G37*
G36*
X8500D02*
X8343Y2579D01*
X8210Y2490D01*
X8121Y2357D01*
X8090Y2200D01*
X8121Y2043D01*
X8210Y1910D01*
X8343Y1821D01*
X8500Y1790D01*
X8657Y1821D01*
X8790Y1910D01*
X8879Y2043D01*
X8910Y2200D01*
X8879Y2357D01*
X8790Y2490D01*
X8657Y2579D01*
X8500Y2610D01*
D02*
G37*
G36*
X33278Y2674D02*
X33043Y2627D01*
X32844Y2494D01*
X32711Y2295D01*
X32664Y2060D01*
X32711Y1825D01*
X32844Y1626D01*
X33043Y1493D01*
X33278Y1446D01*
X33513Y1493D01*
X33712Y1626D01*
X33845Y1825D01*
X33892Y2060D01*
X33845Y2295D01*
X33712Y2494D01*
X33513Y2627D01*
X33278Y2674D01*
D02*
G37*
G36*
X9600Y1510D02*
X9443Y1479D01*
X9310Y1390D01*
X9221Y1257D01*
X9190Y1100D01*
X9221Y943D01*
X9310Y810D01*
X9443Y721D01*
X9600Y690D01*
X9757Y721D01*
X9890Y810D01*
X9979Y943D01*
X10010Y1100D01*
X9979Y1257D01*
X9890Y1390D01*
X9757Y1479D01*
X9600Y1510D01*
D02*
G37*
G36*
X8500D02*
X8343Y1479D01*
X8210Y1390D01*
X8121Y1257D01*
X8090Y1100D01*
X8121Y943D01*
X8210Y810D01*
X8343Y721D01*
X8500Y690D01*
X8657Y721D01*
X8790Y810D01*
X8879Y943D01*
X8910Y1100D01*
X8879Y1257D01*
X8790Y1390D01*
X8657Y1479D01*
X8500Y1510D01*
D02*
G37*
G36*
X2925Y1136D02*
X2787Y1108D01*
X2670Y1030D01*
X2592Y913D01*
X2564Y775D01*
X2592Y637D01*
X2670Y520D01*
X2787Y442D01*
X2925Y414D01*
X3063Y442D01*
X3180Y520D01*
X3258Y637D01*
X3286Y775D01*
X3258Y913D01*
X3180Y1030D01*
X3063Y1108D01*
X2925Y1136D01*
D02*
G37*
G36*
X3752Y239D02*
Y-73D01*
X4064D01*
X4054Y-22D01*
X3953Y128D01*
X3803Y229D01*
X3752Y239D01*
D02*
G37*
G36*
X3498D02*
X3447Y229D01*
X3297Y128D01*
X3196Y-22D01*
X3186Y-73D01*
X3498D01*
Y239D01*
D02*
G37*
G36*
X8950Y211D02*
X8812Y183D01*
X8695Y105D01*
X8617Y-12D01*
X8589Y-150D01*
X8617Y-288D01*
X8695Y-405D01*
X8812Y-483D01*
X8950Y-511D01*
X9088Y-483D01*
X9205Y-405D01*
X9283Y-288D01*
X9311Y-150D01*
X9283Y-12D01*
X9205Y105D01*
X9088Y183D01*
X8950Y211D01*
D02*
G37*
G36*
X4064Y-327D02*
X3752D01*
Y-639D01*
X3803Y-629D01*
X3953Y-528D01*
X4054Y-378D01*
X4064Y-327D01*
D02*
G37*
G36*
X3498D02*
X3186D01*
X3196Y-378D01*
X3297Y-528D01*
X3447Y-629D01*
X3498Y-639D01*
Y-327D01*
D02*
G37*
G36*
X12300Y-1064D02*
X12162Y-1092D01*
X12045Y-1170D01*
X11967Y-1287D01*
X11939Y-1425D01*
X11967Y-1563D01*
X12045Y-1680D01*
X12162Y-1758D01*
X12300Y-1786D01*
X12438Y-1758D01*
X12555Y-1680D01*
X12633Y-1563D01*
X12661Y-1425D01*
X12633Y-1287D01*
X12555Y-1170D01*
X12438Y-1092D01*
X12300Y-1064D01*
D02*
G37*
G36*
X7800Y-1314D02*
X7662Y-1342D01*
X7545Y-1420D01*
X7467Y-1537D01*
X7439Y-1675D01*
X7467Y-1813D01*
X7545Y-1930D01*
X7662Y-2008D01*
X7800Y-2036D01*
X7938Y-2008D01*
X8055Y-1930D01*
X8133Y-1813D01*
X8161Y-1675D01*
X8133Y-1537D01*
X8055Y-1420D01*
X7938Y-1342D01*
X7800Y-1314D01*
D02*
G37*
G36*
X9600Y-1339D02*
X9462Y-1367D01*
X9345Y-1445D01*
X9267Y-1562D01*
X9239Y-1700D01*
X9267Y-1838D01*
X9345Y-1955D01*
X9462Y-2033D01*
X9600Y-2061D01*
X9738Y-2033D01*
X9855Y-1955D01*
X9933Y-1838D01*
X9961Y-1700D01*
X9933Y-1562D01*
X9855Y-1445D01*
X9738Y-1367D01*
X9600Y-1339D01*
D02*
G37*
G36*
X17750Y-1764D02*
X17612Y-1792D01*
X17495Y-1870D01*
X17417Y-1987D01*
X17389Y-2125D01*
X17417Y-2263D01*
X17495Y-2380D01*
X17612Y-2458D01*
X17750Y-2486D01*
X17888Y-2458D01*
X18005Y-2380D01*
X18083Y-2263D01*
X18111Y-2125D01*
X18083Y-1987D01*
X18005Y-1870D01*
X17888Y-1792D01*
X17750Y-1764D01*
D02*
G37*
G36*
X15202Y-3211D02*
Y-3523D01*
X15514D01*
X15504Y-3472D01*
X15403Y-3322D01*
X15253Y-3221D01*
X15202Y-3211D01*
D02*
G37*
G36*
X14948D02*
X14897Y-3221D01*
X14747Y-3322D01*
X14646Y-3472D01*
X14636Y-3523D01*
X14948D01*
Y-3211D01*
D02*
G37*
G36*
X7325Y-3139D02*
X7187Y-3167D01*
X7070Y-3245D01*
X6992Y-3362D01*
X6964Y-3500D01*
X6992Y-3638D01*
X7070Y-3755D01*
X7187Y-3833D01*
X7325Y-3861D01*
X7463Y-3833D01*
X7580Y-3755D01*
X7658Y-3638D01*
X7686Y-3500D01*
X7658Y-3362D01*
X7580Y-3245D01*
X7463Y-3167D01*
X7325Y-3139D01*
D02*
G37*
G36*
X15514Y-3777D02*
X15202D01*
Y-4089D01*
X15253Y-4079D01*
X15403Y-3978D01*
X15504Y-3828D01*
X15514Y-3777D01*
D02*
G37*
G36*
X14948D02*
X14636D01*
X14646Y-3828D01*
X14747Y-3978D01*
X14897Y-4079D01*
X14948Y-4089D01*
Y-3777D01*
D02*
G37*
G36*
X32300Y-3486D02*
X32065Y-3533D01*
X31866Y-3666D01*
X31733Y-3865D01*
X31686Y-4100D01*
X31733Y-4335D01*
X31866Y-4534D01*
X32065Y-4667D01*
X32300Y-4714D01*
X32535Y-4667D01*
X32734Y-4534D01*
X32867Y-4335D01*
X32914Y-4100D01*
X32867Y-3865D01*
X32734Y-3666D01*
X32535Y-3533D01*
X32300Y-3486D01*
D02*
G37*
G36*
X1300Y-4139D02*
X1162Y-4167D01*
X1045Y-4245D01*
X967Y-4362D01*
X939Y-4500D01*
X967Y-4638D01*
X1045Y-4755D01*
X1162Y-4833D01*
X1300Y-4861D01*
X1438Y-4833D01*
X1555Y-4755D01*
X1633Y-4638D01*
X1661Y-4500D01*
X1633Y-4362D01*
X1555Y-4245D01*
X1438Y-4167D01*
X1300Y-4139D01*
D02*
G37*
G36*
X20427Y-4711D02*
Y-5023D01*
X20739D01*
X20729Y-4972D01*
X20628Y-4822D01*
X20478Y-4721D01*
X20427Y-4711D01*
D02*
G37*
G36*
X20173D02*
X20122Y-4721D01*
X19972Y-4822D01*
X19871Y-4972D01*
X19861Y-5023D01*
X20173D01*
Y-4711D01*
D02*
G37*
G36*
X28075Y-4339D02*
X27937Y-4367D01*
X27820Y-4445D01*
X27742Y-4562D01*
X27714Y-4700D01*
X27742Y-4838D01*
X27820Y-4955D01*
X27937Y-5033D01*
X28075Y-5061D01*
X28213Y-5033D01*
X28330Y-4955D01*
X28408Y-4838D01*
X28436Y-4700D01*
X28408Y-4562D01*
X28330Y-4445D01*
X28213Y-4367D01*
X28075Y-4339D01*
D02*
G37*
G36*
X13400Y-4689D02*
X13262Y-4717D01*
X13145Y-4795D01*
X13067Y-4912D01*
X13039Y-5050D01*
X13067Y-5188D01*
X13145Y-5305D01*
X13262Y-5383D01*
X13400Y-5411D01*
X13538Y-5383D01*
X13655Y-5305D01*
X13733Y-5188D01*
X13761Y-5050D01*
X13733Y-4912D01*
X13655Y-4795D01*
X13538Y-4717D01*
X13400Y-4689D01*
D02*
G37*
G36*
X20739Y-5277D02*
X20427D01*
Y-5589D01*
X20478Y-5579D01*
X20628Y-5478D01*
X20729Y-5328D01*
X20739Y-5277D01*
D02*
G37*
G36*
X20173D02*
X19861D01*
X19871Y-5328D01*
X19972Y-5478D01*
X20122Y-5579D01*
X20173Y-5589D01*
Y-5277D01*
D02*
G37*
G36*
X12575Y-5164D02*
X12437Y-5192D01*
X12320Y-5270D01*
X12242Y-5387D01*
X12214Y-5525D01*
X12242Y-5663D01*
X12320Y-5780D01*
X12437Y-5858D01*
X12575Y-5886D01*
X12713Y-5858D01*
X12830Y-5780D01*
X12908Y-5663D01*
X12936Y-5525D01*
X12908Y-5387D01*
X12830Y-5270D01*
X12713Y-5192D01*
X12575Y-5164D01*
D02*
G37*
G36*
X22025Y-5239D02*
X21887Y-5267D01*
X21770Y-5345D01*
X21692Y-5462D01*
X21664Y-5600D01*
X21692Y-5738D01*
X21770Y-5855D01*
X21887Y-5933D01*
X22025Y-5961D01*
X22163Y-5933D01*
X22280Y-5855D01*
X22358Y-5738D01*
X22386Y-5600D01*
X22358Y-5462D01*
X22280Y-5345D01*
X22163Y-5267D01*
X22025Y-5239D01*
D02*
G37*
G36*
X17675Y-5939D02*
X17537Y-5967D01*
X17420Y-6045D01*
X17342Y-6162D01*
X17314Y-6300D01*
X17342Y-6438D01*
X17420Y-6555D01*
X17537Y-6633D01*
X17675Y-6661D01*
X17813Y-6633D01*
X17930Y-6555D01*
X18008Y-6438D01*
X18036Y-6300D01*
X18008Y-6162D01*
X17930Y-6045D01*
X17813Y-5967D01*
X17675Y-5939D01*
D02*
G37*
G36*
X4950Y-6014D02*
X4812Y-6042D01*
X4695Y-6120D01*
X4617Y-6237D01*
X4589Y-6375D01*
X4617Y-6513D01*
X4695Y-6630D01*
X4812Y-6708D01*
X4950Y-6736D01*
X5088Y-6708D01*
X5205Y-6630D01*
X5283Y-6513D01*
X5311Y-6375D01*
X5283Y-6237D01*
X5205Y-6120D01*
X5088Y-6042D01*
X4950Y-6014D01*
D02*
G37*
G36*
X11225Y-6464D02*
X11087Y-6492D01*
X10970Y-6570D01*
X10892Y-6687D01*
X10864Y-6825D01*
X10892Y-6963D01*
X10970Y-7080D01*
X11087Y-7158D01*
X11225Y-7186D01*
X11363Y-7158D01*
X11480Y-7080D01*
X11558Y-6963D01*
X11586Y-6825D01*
X11558Y-6687D01*
X11480Y-6570D01*
X11363Y-6492D01*
X11225Y-6464D01*
D02*
G37*
G36*
X32300Y-6486D02*
X32065Y-6533D01*
X31866Y-6666D01*
X31733Y-6865D01*
X31686Y-7100D01*
X31733Y-7335D01*
X31866Y-7534D01*
X32065Y-7667D01*
X32300Y-7714D01*
X32535Y-7667D01*
X32734Y-7534D01*
X32867Y-7335D01*
X32914Y-7100D01*
X32867Y-6865D01*
X32734Y-6666D01*
X32535Y-6533D01*
X32300Y-6486D01*
D02*
G37*
G36*
X14600Y-6489D02*
X14462Y-6517D01*
X14345Y-6595D01*
X14267Y-6712D01*
X14239Y-6850D01*
X14267Y-6988D01*
X14345Y-7105D01*
X14462Y-7183D01*
X14559Y-7203D01*
X14609Y-7230D01*
X14653Y-7330D01*
X14639Y-7400D01*
X14667Y-7538D01*
X14745Y-7655D01*
X14862Y-7733D01*
X15000Y-7761D01*
X15138Y-7733D01*
X15255Y-7655D01*
X15333Y-7538D01*
X15361Y-7400D01*
X15333Y-7262D01*
X15255Y-7145D01*
X15138Y-7067D01*
X15041Y-7047D01*
X14991Y-7020D01*
X14947Y-6920D01*
X14961Y-6850D01*
X14933Y-6712D01*
X14855Y-6595D01*
X14738Y-6517D01*
X14600Y-6489D01*
D02*
G37*
G36*
X7325Y-7189D02*
X7187Y-7217D01*
X7070Y-7295D01*
X6992Y-7412D01*
X6964Y-7550D01*
X6992Y-7688D01*
X7070Y-7805D01*
X7187Y-7883D01*
X7325Y-7911D01*
X7463Y-7883D01*
X7580Y-7805D01*
X7658Y-7688D01*
X7686Y-7550D01*
X7658Y-7412D01*
X7580Y-7295D01*
X7463Y-7217D01*
X7325Y-7189D01*
D02*
G37*
G36*
X34127Y-7761D02*
Y-8073D01*
X34439D01*
X34429Y-8022D01*
X34328Y-7872D01*
X34178Y-7771D01*
X34127Y-7761D01*
D02*
G37*
G36*
X33873D02*
X33822Y-7771D01*
X33672Y-7872D01*
X33571Y-8022D01*
X33561Y-8073D01*
X33873D01*
Y-7761D01*
D02*
G37*
G36*
X13352Y-8086D02*
Y-8398D01*
X13664D01*
X13654Y-8347D01*
X13553Y-8197D01*
X13403Y-8096D01*
X13352Y-8086D01*
D02*
G37*
G36*
X13098D02*
X13047Y-8096D01*
X12897Y-8197D01*
X12796Y-8347D01*
X12786Y-8398D01*
X13098D01*
Y-8086D01*
D02*
G37*
G36*
X34439Y-8327D02*
X34127D01*
Y-8639D01*
X34178Y-8629D01*
X34328Y-8528D01*
X34429Y-8378D01*
X34439Y-8327D01*
D02*
G37*
G36*
X33873D02*
X33561D01*
X33571Y-8378D01*
X33672Y-8528D01*
X33822Y-8629D01*
X33873Y-8639D01*
Y-8327D01*
D02*
G37*
G36*
X2927Y-8636D02*
Y-8948D01*
X3239D01*
X3229Y-8897D01*
X3128Y-8747D01*
X2978Y-8646D01*
X2927Y-8636D01*
D02*
G37*
G36*
X2673D02*
X2622Y-8646D01*
X2472Y-8747D01*
X2371Y-8897D01*
X2361Y-8948D01*
X2673D01*
Y-8636D01*
D02*
G37*
G36*
X13664Y-8652D02*
X13352D01*
Y-8964D01*
X13403Y-8954D01*
X13553Y-8853D01*
X13654Y-8703D01*
X13664Y-8652D01*
D02*
G37*
G36*
X13098D02*
X12786D01*
X12796Y-8703D01*
X12897Y-8853D01*
X13047Y-8954D01*
X13098Y-8964D01*
Y-8652D01*
D02*
G37*
G36*
X24377Y-8886D02*
Y-9198D01*
X24689D01*
X24679Y-9147D01*
X24578Y-8997D01*
X24428Y-8896D01*
X24377Y-8886D01*
D02*
G37*
G36*
X24123D02*
X24072Y-8896D01*
X23922Y-8997D01*
X23821Y-9147D01*
X23811Y-9198D01*
X24123D01*
Y-8886D01*
D02*
G37*
G36*
X3239Y-9202D02*
X2927D01*
Y-9514D01*
X2978Y-9504D01*
X3128Y-9403D01*
X3229Y-9253D01*
X3239Y-9202D01*
D02*
G37*
G36*
X2673D02*
X2361D01*
X2371Y-9253D01*
X2472Y-9403D01*
X2622Y-9504D01*
X2673Y-9514D01*
Y-9202D01*
D02*
G37*
G36*
X11225Y-8889D02*
X11087Y-8917D01*
X10970Y-8995D01*
X10892Y-9112D01*
X10864Y-9250D01*
X10892Y-9388D01*
X10970Y-9505D01*
X11087Y-9583D01*
X11225Y-9611D01*
X11363Y-9583D01*
X11480Y-9505D01*
X11558Y-9388D01*
X11586Y-9250D01*
X11558Y-9112D01*
X11480Y-8995D01*
X11363Y-8917D01*
X11225Y-8889D01*
D02*
G37*
G36*
X17500Y-8964D02*
X17362Y-8992D01*
X17245Y-9070D01*
X17167Y-9187D01*
X17139Y-9325D01*
X17167Y-9463D01*
X17245Y-9580D01*
X17362Y-9658D01*
X17500Y-9686D01*
X17638Y-9658D01*
X17755Y-9580D01*
X17833Y-9463D01*
X17861Y-9325D01*
X17833Y-9187D01*
X17755Y-9070D01*
X17638Y-8992D01*
X17500Y-8964D01*
D02*
G37*
%LPD*%
G36*
X19857Y17232D02*
X19815Y17094D01*
X19762Y17083D01*
X19645Y17005D01*
X19567Y16888D01*
X19539Y16750D01*
X19567Y16612D01*
X19645Y16495D01*
X19762Y16417D01*
X19900Y16389D01*
X20038Y16417D01*
X20155Y16495D01*
X20233Y16612D01*
X20244Y16665D01*
X20382Y16707D01*
X23832Y13257D01*
X23832Y13257D01*
X23932Y13190D01*
X24050Y13167D01*
X24050Y13167D01*
X26972D01*
X28518Y11621D01*
Y8810D01*
X28455Y8773D01*
X28379Y8769D01*
X27184Y9964D01*
X27179Y9971D01*
X26186Y10964D01*
X26110Y11015D01*
X26021Y11032D01*
X21014D01*
X20925Y11015D01*
X20849Y10964D01*
X19790Y9905D01*
X19626Y9921D01*
X19586Y9980D01*
X19436Y10081D01*
X19385Y10091D01*
Y9652D01*
X19258D01*
Y9525D01*
X18819D01*
X18829Y9474D01*
X18884Y9392D01*
X18816Y9265D01*
X12691D01*
X12588Y9333D01*
X12450Y9361D01*
X12312Y9333D01*
X12195Y9255D01*
X12117Y9138D01*
X12089Y9000D01*
X12092Y8987D01*
X11984Y8879D01*
X11950Y8886D01*
X11812Y8858D01*
X11695Y8780D01*
X11617Y8663D01*
X11589Y8525D01*
X11617Y8387D01*
X11695Y8270D01*
X11716Y8256D01*
Y7775D01*
X11734Y7685D01*
X11785Y7610D01*
X11884Y7510D01*
X11960Y7459D01*
X12050Y7442D01*
X15528D01*
X15540Y7423D01*
X15472Y7296D01*
X11558D01*
X11183Y7672D01*
Y8205D01*
X11205Y8220D01*
X11283Y8337D01*
X11311Y8475D01*
X11283Y8613D01*
X11205Y8730D01*
X11088Y8808D01*
X10950Y8836D01*
X10812Y8808D01*
X10695Y8730D01*
X10644D01*
X10578Y8828D01*
X10428Y8929D01*
X10377Y8939D01*
Y8500D01*
X10123D01*
Y8939D01*
X10072Y8929D01*
X9922Y8828D01*
X9821Y8678D01*
X9804Y8595D01*
X9667Y8553D01*
X9543Y8676D01*
X9451Y8738D01*
X9342Y8760D01*
X9342Y8760D01*
X8661D01*
X8588Y8808D01*
X8450Y8836D01*
X8380Y8822D01*
X8253Y8910D01*
Y10190D01*
X13455Y15392D01*
X13614Y15361D01*
X13849Y15408D01*
X14049Y15541D01*
X14182Y15740D01*
X14228Y15975D01*
X14182Y16210D01*
X14049Y16409D01*
X13849Y16542D01*
X13614Y16589D01*
X13379Y16542D01*
X13180Y16409D01*
X13047Y16210D01*
X13000Y15975D01*
X13047Y15740D01*
X13086Y15682D01*
X7882Y10478D01*
X7766Y10470D01*
X7728Y10478D01*
X7578Y10579D01*
X7521Y10590D01*
X7479Y10728D01*
X12110Y15359D01*
X12225Y15336D01*
X12460Y15383D01*
X12659Y15516D01*
X12792Y15715D01*
X12839Y15950D01*
X12792Y16185D01*
X12666Y16374D01*
X12677Y16448D01*
X12694Y16514D01*
X12884Y16641D01*
X13017Y16840D01*
X13064Y17075D01*
X13017Y17310D01*
X12884Y17509D01*
X12685Y17642D01*
X12450Y17689D01*
X12215Y17642D01*
X12016Y17509D01*
X11951Y17412D01*
X11824D01*
X11759Y17509D01*
X11560Y17642D01*
X11325Y17689D01*
X11090Y17642D01*
X10891Y17509D01*
X10826Y17412D01*
X10699D01*
X10634Y17509D01*
X10435Y17642D01*
X10200Y17689D01*
X9965Y17642D01*
X9766Y17509D01*
X9701Y17412D01*
X9574D01*
X9509Y17509D01*
X9310Y17642D01*
X9075Y17689D01*
X8840Y17642D01*
X8641Y17509D01*
X8508Y17310D01*
X8507Y17308D01*
X4275D01*
X4232Y17300D01*
X4169Y17417D01*
X6418Y19665D01*
X15200D01*
X15200Y19665D01*
X15309Y19687D01*
X15401Y19749D01*
X16127Y20474D01*
X16213Y20492D01*
X16221Y20497D01*
X16592D01*
X19857Y17232D01*
D02*
G37*
G36*
X27016Y16641D02*
X27215Y16508D01*
X27450Y16461D01*
X27685Y16508D01*
X27686Y16508D01*
X30272Y13922D01*
Y12513D01*
X30145Y12461D01*
X26255Y16351D01*
X26315Y16463D01*
X26325Y16461D01*
X26560Y16508D01*
X26759Y16641D01*
X26824Y16738D01*
X26951D01*
X27016Y16641D01*
D02*
G37*
G36*
X29841Y12103D02*
Y8892D01*
X29763Y8843D01*
X29684Y8892D01*
Y11662D01*
X29666Y11751D01*
X29615Y11827D01*
X25089Y16353D01*
X25151Y16470D01*
X25200Y16461D01*
X25435Y16508D01*
X25436Y16508D01*
X29841Y12103D01*
D02*
G37*
G36*
X7527Y9711D02*
X7578Y9721D01*
X7660Y9776D01*
X7787Y9708D01*
Y8297D01*
X7804Y8208D01*
X7855Y8132D01*
X8627Y7360D01*
X8578Y7243D01*
X7330D01*
X6253Y8320D01*
Y9502D01*
X6822Y10071D01*
X6960Y10029D01*
X6971Y9972D01*
X7072Y9822D01*
X7222Y9721D01*
X7273Y9711D01*
Y10150D01*
X7527D01*
Y9711D01*
D02*
G37*
G36*
X24695Y10141D02*
X24199Y9645D01*
X24148Y9569D01*
X24130Y9480D01*
Y9070D01*
X24040Y8992D01*
X23910Y9011D01*
X23880Y9055D01*
X23763Y9133D01*
X23625Y9161D01*
X23487Y9133D01*
X23370Y9055D01*
X23292Y8938D01*
X23264Y8800D01*
X23292Y8662D01*
X23370Y8545D01*
X23429Y8505D01*
X23457Y8353D01*
X23163Y8059D01*
X17749D01*
X17660Y8041D01*
X17584Y7990D01*
X17196Y7603D01*
X16960D01*
X16872Y7730D01*
X16886Y7800D01*
X16858Y7938D01*
X16780Y8055D01*
X16663Y8133D01*
X16525Y8161D01*
X16387Y8133D01*
X16270Y8055D01*
X16192Y7938D01*
X16164Y7800D01*
X16178Y7731D01*
X16061Y7669D01*
X15889Y7841D01*
X15813Y7891D01*
X15723Y7909D01*
X15263D01*
X15217Y8036D01*
X15671Y8491D01*
X19373D01*
X19463Y8509D01*
X19539Y8559D01*
X21238Y10258D01*
X24646D01*
X24695Y10141D01*
D02*
G37*
G36*
X25297Y8290D02*
Y4556D01*
X25063Y4322D01*
X24946Y4384D01*
X24961Y4460D01*
X24933Y4598D01*
X24855Y4715D01*
X24816Y4741D01*
Y4894D01*
X24855Y4920D01*
X24933Y5037D01*
X24961Y5175D01*
X24933Y5313D01*
X24855Y5430D01*
X24738Y5508D01*
X24600Y5536D01*
X24462Y5508D01*
X24345Y5430D01*
X24267Y5313D01*
X24265Y5304D01*
X24127Y5263D01*
X23820Y5570D01*
X23744Y5621D01*
X23655Y5638D01*
X23059D01*
X22991Y5765D01*
X23029Y5822D01*
X23039Y5873D01*
X22161D01*
X22171Y5822D01*
X22209Y5765D01*
X22141Y5638D01*
X21847D01*
X21758Y5621D01*
X21682Y5570D01*
X21495Y5383D01*
X15083D01*
X15016Y5510D01*
X15033Y5537D01*
X15061Y5675D01*
X15033Y5813D01*
X14955Y5930D01*
X14838Y6008D01*
X14700Y6036D01*
X14562Y6008D01*
X14445Y5930D01*
X14367Y5813D01*
X14339Y5675D01*
X14367Y5537D01*
X14384Y5510D01*
X14317Y5383D01*
X13355D01*
X13288Y5510D01*
X13311Y5625D01*
X13422Y5720D01*
X13450Y5714D01*
X13588Y5742D01*
X13705Y5820D01*
X13783Y5937D01*
X13811Y6075D01*
X13783Y6213D01*
X13728Y6296D01*
X13772Y6408D01*
X13784Y6423D01*
X22202D01*
X22250Y6296D01*
X22171Y6178D01*
X22161Y6127D01*
X23039D01*
X23029Y6178D01*
X22950Y6296D01*
X22998Y6423D01*
X23083D01*
X23083Y6423D01*
X23192Y6445D01*
X23284Y6506D01*
X25152Y8374D01*
X25170Y8378D01*
X25297Y8290D01*
D02*
G37*
G36*
X24244Y4486D02*
X24239Y4460D01*
X24267Y4322D01*
X24345Y4205D01*
X24462Y4127D01*
X24600Y4099D01*
X24676Y4114D01*
X24738Y3997D01*
X24635Y3893D01*
X24482Y3921D01*
X24443Y3980D01*
X24326Y4058D01*
X24188Y4086D01*
X24049Y4058D01*
X23932Y3980D01*
X23854Y3863D01*
X23827Y3725D01*
X23854Y3587D01*
X23932Y3470D01*
X23992Y3430D01*
X24019Y3278D01*
X21224Y483D01*
X13520D01*
X13505Y505D01*
X13388Y583D01*
X13250Y611D01*
X13112Y583D01*
X12995Y505D01*
X12917Y388D01*
X12889Y250D01*
X12890Y245D01*
X12789Y103D01*
X12762Y99D01*
X11716Y1144D01*
Y1769D01*
X11835Y1841D01*
X11843Y1840D01*
X11975Y1814D01*
X12113Y1842D01*
X12230Y1920D01*
X12308Y2037D01*
X12336Y2175D01*
X12308Y2313D01*
X12230Y2430D01*
X12113Y2508D01*
X11975Y2536D01*
X11843Y2510D01*
X11835Y2509D01*
X11716Y2581D01*
Y4464D01*
X11843Y4499D01*
X11902Y4460D01*
X11992Y4442D01*
X13178D01*
X15944Y1676D01*
X15967Y1562D01*
X16045Y1445D01*
X16162Y1367D01*
X16300Y1339D01*
X16438Y1367D01*
X16555Y1445D01*
X16633Y1562D01*
X16661Y1700D01*
X16633Y1838D01*
X16555Y1955D01*
X16438Y2033D01*
X16300Y2061D01*
X16232Y2047D01*
X14122Y4157D01*
X14150Y4309D01*
X14209Y4349D01*
X14287Y4466D01*
X14315Y4604D01*
X14287Y4742D01*
X14256Y4790D01*
X14323Y4917D01*
X21595D01*
X21673Y4932D01*
X21692Y4837D01*
X21770Y4720D01*
X21887Y4642D01*
X22025Y4614D01*
X22163Y4642D01*
X22280Y4720D01*
X22358Y4837D01*
X22386Y4975D01*
X22372Y5045D01*
X22460Y5172D01*
X23558D01*
X24244Y4486D01*
D02*
G37*
G36*
X6022Y6167D02*
Y3996D01*
X5895Y3929D01*
X5888Y3933D01*
X5750Y3961D01*
X5724Y3956D01*
X4729Y4951D01*
Y7295D01*
X4846Y7343D01*
X6022Y6167D01*
D02*
G37*
%LPC*%
G36*
X16102Y17914D02*
Y17602D01*
X16414D01*
X16404Y17653D01*
X16303Y17803D01*
X16153Y17904D01*
X16102Y17914D01*
D02*
G37*
G36*
X15848D02*
X15797Y17904D01*
X15647Y17803D01*
X15546Y17653D01*
X15536Y17602D01*
X15848D01*
Y17914D01*
D02*
G37*
G36*
X18302Y17789D02*
Y17477D01*
X18614D01*
X18604Y17528D01*
X18503Y17678D01*
X18353Y17779D01*
X18302Y17789D01*
D02*
G37*
G36*
X18048D02*
X17997Y17779D01*
X17847Y17678D01*
X17746Y17528D01*
X17736Y17477D01*
X18048D01*
Y17789D01*
D02*
G37*
G36*
X16414Y17348D02*
X16102D01*
Y17036D01*
X16153Y17046D01*
X16303Y17147D01*
X16404Y17297D01*
X16414Y17348D01*
D02*
G37*
G36*
X15848D02*
X15536D01*
X15546Y17297D01*
X15647Y17147D01*
X15797Y17046D01*
X15848Y17036D01*
Y17348D01*
D02*
G37*
G36*
X18048Y17223D02*
X17736D01*
X17746Y17172D01*
X17847Y17022D01*
X17997Y16921D01*
X18048Y16911D01*
Y17223D01*
D02*
G37*
G36*
X18680D02*
X18302D01*
Y16911D01*
X18328Y16916D01*
X18404Y16865D01*
X18439Y16826D01*
X18439Y16825D01*
X18467Y16687D01*
X18545Y16570D01*
X18662Y16492D01*
X18800Y16464D01*
X18938Y16492D01*
X19055Y16570D01*
X19133Y16687D01*
X19161Y16825D01*
X19133Y16963D01*
X19055Y17080D01*
X18938Y17158D01*
X18800Y17186D01*
X18734Y17173D01*
X18680Y17223D01*
D02*
G37*
G36*
X17250Y16111D02*
X17112Y16083D01*
X16995Y16005D01*
X16917Y15888D01*
X16889Y15750D01*
X16917Y15612D01*
X16995Y15495D01*
X17112Y15417D01*
X17250Y15389D01*
X17388Y15417D01*
X17505Y15495D01*
X17583Y15612D01*
X17611Y15750D01*
X17583Y15888D01*
X17505Y16005D01*
X17388Y16083D01*
X17250Y16111D01*
D02*
G37*
G36*
X18801Y13362D02*
X18663Y13334D01*
X18546Y13256D01*
X18467Y13139D01*
X18440Y13001D01*
X18467Y12863D01*
X18546Y12745D01*
X18663Y12667D01*
X18801Y12640D01*
X18939Y12667D01*
X19056Y12745D01*
X19134Y12863D01*
X19162Y13001D01*
X19134Y13139D01*
X19056Y13256D01*
X18939Y13334D01*
X18801Y13362D01*
D02*
G37*
G36*
X26127Y12414D02*
Y12102D01*
X26439D01*
X26429Y12153D01*
X26328Y12303D01*
X26178Y12404D01*
X26127Y12414D01*
D02*
G37*
G36*
X25873D02*
X25822Y12404D01*
X25672Y12303D01*
X25571Y12153D01*
X25561Y12102D01*
X25873D01*
Y12414D01*
D02*
G37*
G36*
X26439Y11848D02*
X26127D01*
Y11536D01*
X26178Y11546D01*
X26328Y11647D01*
X26429Y11797D01*
X26439Y11848D01*
D02*
G37*
G36*
X25873D02*
X25561D01*
X25571Y11797D01*
X25672Y11647D01*
X25822Y11546D01*
X25873Y11536D01*
Y11848D01*
D02*
G37*
G36*
X22775Y12861D02*
X22637Y12833D01*
X22520Y12755D01*
X22442Y12638D01*
X22414Y12500D01*
X22442Y12362D01*
X22520Y12245D01*
X22637Y12167D01*
X22646Y12165D01*
Y12035D01*
X22637Y12033D01*
X22520Y11955D01*
X22442Y11838D01*
X22414Y11700D01*
X22442Y11562D01*
X22520Y11445D01*
X22637Y11367D01*
X22775Y11339D01*
X22913Y11367D01*
X23030Y11445D01*
X23108Y11562D01*
X23136Y11700D01*
X23108Y11838D01*
X23030Y11955D01*
X22913Y12033D01*
X22904Y12035D01*
Y12165D01*
X22913Y12167D01*
X23030Y12245D01*
X23108Y12362D01*
X23136Y12500D01*
X23108Y12638D01*
X23030Y12755D01*
X22913Y12833D01*
X22775Y12861D01*
D02*
G37*
G36*
X14675Y12111D02*
X14537Y12083D01*
X14420Y12005D01*
X14342Y11888D01*
X14314Y11750D01*
X14342Y11612D01*
X14402Y11521D01*
X14413Y11439D01*
X14402Y11354D01*
X14342Y11264D01*
X14315Y11126D01*
X14342Y10987D01*
X14420Y10870D01*
X14538Y10792D01*
X14676Y10765D01*
X14814Y10792D01*
X14931Y10870D01*
X15009Y10987D01*
X15037Y11126D01*
X15009Y11264D01*
X14949Y11354D01*
X14938Y11437D01*
X14948Y11522D01*
X15008Y11612D01*
X15036Y11750D01*
X15008Y11888D01*
X14930Y12005D01*
X14813Y12083D01*
X14675Y12111D01*
D02*
G37*
G36*
X12850Y11361D02*
X12712Y11333D01*
X12595Y11255D01*
X12517Y11138D01*
X12489Y11000D01*
X12517Y10862D01*
X12595Y10745D01*
X12712Y10667D01*
X12850Y10639D01*
X12988Y10667D01*
X13105Y10745D01*
X13183Y10862D01*
X13211Y11000D01*
X13183Y11138D01*
X13105Y11255D01*
X12988Y11333D01*
X12850Y11361D01*
D02*
G37*
G36*
X13777Y10689D02*
Y10377D01*
X14089D01*
X14079Y10428D01*
X13978Y10578D01*
X13828Y10679D01*
X13777Y10689D01*
D02*
G37*
G36*
X13523D02*
X13472Y10679D01*
X13322Y10578D01*
X13221Y10428D01*
X13211Y10377D01*
X13523D01*
Y10689D01*
D02*
G37*
G36*
X14089Y10123D02*
X13777D01*
Y9811D01*
X13828Y9821D01*
X13978Y9922D01*
X14079Y10072D01*
X14089Y10123D01*
D02*
G37*
G36*
X13523D02*
X13211D01*
X13221Y10072D01*
X13322Y9922D01*
X13472Y9821D01*
X13523Y9811D01*
Y10123D01*
D02*
G37*
G36*
X19131Y10091D02*
X19080Y10081D01*
X18930Y9980D01*
X18829Y9830D01*
X18819Y9779D01*
X19131D01*
Y10091D01*
D02*
G37*
G36*
X11435Y9611D02*
X11297Y9583D01*
X11180Y9505D01*
X11102Y9388D01*
X11074Y9250D01*
X11102Y9112D01*
X11180Y8995D01*
X11297Y8917D01*
X11435Y8889D01*
X11573Y8917D01*
X11690Y8995D01*
X11768Y9112D01*
X11796Y9250D01*
X11768Y9388D01*
X11690Y9505D01*
X11573Y9583D01*
X11435Y9611D01*
D02*
G37*
G36*
X6950Y9036D02*
X6812Y9008D01*
X6695Y8930D01*
X6617Y8813D01*
X6589Y8675D01*
X6617Y8537D01*
X6695Y8420D01*
X6812Y8342D01*
X6950Y8314D01*
X7088Y8342D01*
X7205Y8420D01*
X7283Y8537D01*
X7311Y8675D01*
X7283Y8813D01*
X7205Y8930D01*
X7088Y9008D01*
X6950Y9036D01*
D02*
G37*
G36*
X18250Y6261D02*
X18112Y6233D01*
X17995Y6155D01*
X17917Y6038D01*
X17889Y5900D01*
X17917Y5762D01*
X17995Y5645D01*
X18112Y5567D01*
X18250Y5539D01*
X18388Y5567D01*
X18505Y5645D01*
X18583Y5762D01*
X18611Y5900D01*
X18583Y6038D01*
X18505Y6155D01*
X18388Y6233D01*
X18250Y6261D01*
D02*
G37*
G36*
X23200Y4536D02*
X23062Y4508D01*
X22945Y4430D01*
X22867Y4313D01*
X22839Y4175D01*
X22867Y4037D01*
X22945Y3920D01*
X23062Y3842D01*
X23200Y3814D01*
X23338Y3842D01*
X23455Y3920D01*
X23533Y4037D01*
X23561Y4175D01*
X23533Y4313D01*
X23455Y4430D01*
X23338Y4508D01*
X23200Y4536D01*
D02*
G37*
G36*
X21575Y4386D02*
X21437Y4358D01*
X21320Y4280D01*
X21242Y4163D01*
X21214Y4025D01*
X21242Y3887D01*
X21320Y3770D01*
X21437Y3692D01*
X21575Y3664D01*
X21713Y3692D01*
X21830Y3770D01*
X21908Y3887D01*
X21936Y4025D01*
X21908Y4163D01*
X21830Y4280D01*
X21713Y4358D01*
X21575Y4386D01*
D02*
G37*
G36*
X13500Y3211D02*
X13362Y3183D01*
X13245Y3105D01*
X13167Y2988D01*
X13139Y2850D01*
X13167Y2712D01*
X13245Y2595D01*
X13362Y2517D01*
X13500Y2489D01*
X13638Y2517D01*
X13755Y2595D01*
X13833Y2712D01*
X13861Y2850D01*
X13833Y2988D01*
X13755Y3105D01*
X13638Y3183D01*
X13500Y3211D01*
D02*
G37*
G36*
X21327Y2439D02*
Y2127D01*
X21639D01*
X21629Y2178D01*
X21528Y2328D01*
X21378Y2429D01*
X21327Y2439D01*
D02*
G37*
G36*
X21073D02*
X21022Y2429D01*
X20872Y2328D01*
X20771Y2178D01*
X20761Y2127D01*
X21073D01*
Y2439D01*
D02*
G37*
G36*
X21639Y1873D02*
X21327D01*
Y1561D01*
X21378Y1571D01*
X21528Y1672D01*
X21629Y1822D01*
X21639Y1873D01*
D02*
G37*
G36*
X21073D02*
X20761D01*
X20771Y1822D01*
X20872Y1672D01*
X21022Y1571D01*
X21073Y1561D01*
Y1873D01*
D02*
G37*
%LPD*%
D16*
X9342Y8475D02*
X11109Y6708D01*
X8450Y8475D02*
X9342D01*
X11109Y6708D02*
X23083D01*
X25100Y8725D01*
X6300Y19950D02*
X15200D01*
X16075Y20825D01*
X2500Y16150D02*
X6300Y19950D01*
D89*
X12225Y15803D02*
Y15950D01*
X11546Y16231D02*
X12390Y17075D01*
X11546Y15556D02*
Y16231D01*
X5715Y9725D02*
X11546Y15556D01*
X10551Y15801D02*
Y15951D01*
X11242Y15682D02*
Y16992D01*
X5410Y9851D02*
X11242Y15682D01*
X9712Y15562D02*
Y16587D01*
X4801Y10651D02*
X9712Y15562D01*
X9011Y15292D02*
Y15975D01*
X12390Y17075D02*
X12450D01*
X13614Y15881D02*
Y15975D01*
X8020Y10286D02*
X13614Y15881D01*
X11242Y16992D02*
X11325Y17075D01*
X6020Y8223D02*
Y9598D01*
X5105Y10355D02*
X10551Y15801D01*
X9712Y16587D02*
X10200Y17075D01*
X4496Y10777D02*
X9011Y15292D01*
X6020Y9598D02*
X12225Y15803D01*
X8020Y8297D02*
Y10286D01*
Y8297D02*
X10067Y6250D01*
X4275Y17075D02*
X9075D01*
X30812Y8195D02*
Y14838D01*
X27637Y7163D02*
X29780D01*
X30812Y8195D01*
X26000Y8800D02*
X27637Y7163D01*
X25805Y9363D02*
Y9634D01*
Y9363D02*
X26000Y9168D01*
X25559Y9880D02*
X25805Y9634D01*
X26000Y8800D02*
Y9168D01*
X28575Y17075D02*
X30812Y14838D01*
X9825Y5630D02*
X10606D01*
X8749Y6705D02*
X9825Y5630D01*
X7107Y6705D02*
X8749D01*
X9951Y5935D02*
X10732D01*
X8876Y7010D02*
X9951Y5935D01*
X7233Y7010D02*
X8876D01*
X10067Y6250D02*
X12325D01*
X12950Y5625D01*
X10732Y5935D02*
X11992Y4675D01*
X10479Y5325D02*
X11179Y4626D01*
X8056Y5325D02*
X10479D01*
X11179Y921D02*
Y4626D01*
Y921D02*
X13300Y-1200D01*
X10606Y5630D02*
X11483Y4752D01*
X6020Y8223D02*
X7233Y7010D01*
X5715Y8097D02*
X7107Y6705D01*
X5715Y8097D02*
Y9725D01*
X5410Y7971D02*
X8056Y5325D01*
X5410Y7971D02*
Y9851D01*
X11462Y7063D02*
X17420D01*
X10950Y7575D02*
X11462Y7063D01*
X10950Y7575D02*
Y8475D01*
X4496Y4854D02*
X5750Y3600D01*
X4801Y7718D02*
X6255Y6263D01*
X5105Y7845D02*
X7945Y5005D01*
X5105Y7845D02*
Y10355D01*
X4801Y7718D02*
Y10651D01*
X4496Y4854D02*
Y10777D01*
X11483Y1048D02*
X12918Y-387D01*
X11992Y4675D02*
X13275D01*
X11483Y1048D02*
Y4752D01*
X13275Y4675D02*
X16250Y1700D01*
X16300D01*
X7945Y5005D02*
X8955D01*
X12918Y-387D02*
X13912D01*
X14725Y-1200D01*
X6255Y2580D02*
Y6263D01*
X8950Y4575D02*
X8955Y4580D01*
Y5005D01*
X5875Y2200D02*
X6255Y2580D01*
X850Y16425D02*
Y17350D01*
X875Y17375D01*
X850Y16425D02*
X1625Y15650D01*
X2850D01*
X4275Y17075D01*
X24600Y4460D02*
X24610Y4450D01*
X23655Y5405D02*
X24600Y4460D01*
X24670Y9353D02*
X25197Y9880D01*
X24670Y8803D02*
Y9353D01*
X23297Y7431D02*
X24670Y8803D01*
X25375Y9450D02*
X25414Y9411D01*
X25197Y9880D02*
X25559D01*
X25530Y4459D02*
Y8903D01*
X25414Y9020D02*
X25530Y8903D01*
X25414Y9020D02*
Y9411D01*
X17420Y7063D02*
X17787Y7431D01*
X23297D01*
X13250Y250D02*
X21321D01*
X25530Y4459D01*
X12125Y5150D02*
X21595D01*
Y5153D02*
X21847Y5405D01*
X24610Y4450D02*
X24700D01*
X21595Y5150D02*
Y5153D01*
X21847Y5405D02*
X23655D01*
D90*
X24225Y17700D02*
X24650Y18125D01*
X24225Y16887D02*
Y17700D01*
Y16887D02*
X29450Y11662D01*
X24650Y18125D02*
X25550D01*
X26325Y17350D01*
Y17075D02*
Y17350D01*
X30506Y8321D02*
Y14019D01*
X27450Y17075D02*
X30506Y14019D01*
X30075Y8500D02*
Y12200D01*
X25200Y17075D02*
X30075Y12200D01*
X29653Y7469D02*
X30506Y8321D01*
X28308Y7469D02*
X29653D01*
X26276Y9500D02*
X28308Y7469D01*
X29423Y7863D02*
X30060Y8500D01*
X28521Y7863D02*
X29423D01*
X30060Y8500D02*
X30075D01*
X26707Y9677D02*
X28521Y7863D01*
X29450Y8500D02*
Y11662D01*
X29119Y8169D02*
X29450Y8500D01*
X26707Y9677D02*
Y9679D01*
X25894Y10492D02*
X26707Y9679D01*
X28648Y8169D02*
X29119D01*
X27014Y9804D02*
X28648Y8169D01*
X27014Y9804D02*
Y9806D01*
X26021Y10799D02*
X27014Y9806D01*
X19373Y8725D02*
X21141Y10492D01*
X21014Y10799D02*
X26021D01*
X21141Y10492D02*
X25894D01*
X11950Y7775D02*
Y8525D01*
Y7775D02*
X12050Y7675D01*
X12450Y9000D02*
X12481Y9031D01*
X15575Y8725D02*
X19373D01*
X15019Y8169D02*
X15575Y8725D01*
X14076Y8169D02*
X15019D01*
X24364Y9480D02*
X25070Y10186D01*
X24364Y8930D02*
Y9480D01*
X23260Y7825D02*
X24364Y8930D01*
X25070Y10186D02*
X25685D01*
X26276Y9595D01*
Y9500D02*
Y9595D01*
X13720Y8525D02*
X14076Y8169D01*
X12950Y8525D02*
X13720D01*
X15723Y7675D02*
X16030Y7369D01*
X17293D01*
X17749Y7825D01*
X12050Y7675D02*
X15723D01*
X19247Y9031D02*
X21014Y10799D01*
X12481Y9031D02*
X19247D01*
X17749Y7825D02*
X23260D01*
D91*
X28826Y8600D02*
Y11749D01*
X27100Y13475D02*
X28826Y11749D01*
X24050Y13475D02*
X27100D01*
X16095Y20805D02*
X16720D01*
X16075Y20825D02*
X16095Y20805D01*
X16720D02*
X24050Y13475D01*
D94*
X17250Y29600D02*
D03*
X18175Y17350D02*
D03*
X20400Y18275D02*
D03*
X29450Y8500D02*
D03*
X28826Y8600D02*
D03*
X30075Y8500D02*
D03*
X31300Y8625D02*
D03*
X26000Y8800D02*
D03*
X7400Y10150D02*
D03*
X11950Y8525D02*
D03*
X12450Y9000D02*
D03*
X13650Y10250D02*
D03*
X16300Y1700D02*
D03*
X12125Y5150D02*
D03*
X14725Y-1200D02*
D03*
X8950Y4575D02*
D03*
X10250D02*
D03*
X12950Y5625D02*
D03*
X5875Y2200D02*
D03*
X12950Y8525D02*
D03*
X10950Y8475D02*
D03*
X15975Y17475D02*
D03*
X10250Y8500D02*
D03*
X8450Y8475D02*
D03*
X5750Y3600D02*
D03*
X21200Y2000D02*
D03*
X34000Y5600D02*
D03*
X24250Y-9325D02*
D03*
X20300Y-5150D02*
D03*
X34000Y-8200D02*
D03*
X24600Y4460D02*
D03*
X22600Y6000D02*
D03*
X25375Y9450D02*
D03*
X25100Y8725D02*
D03*
X26276Y9500D02*
D03*
X19258Y9652D02*
D03*
X13225Y-8525D02*
D03*
X23225Y16250D02*
D03*
X13250Y250D02*
D03*
X32575Y17475D02*
D03*
X26600Y5350D02*
D03*
X31325Y14725D02*
D03*
X2500Y16150D02*
D03*
X16075Y20825D02*
D03*
X26625Y2950D02*
D03*
X17525Y23500D02*
D03*
X12275Y28100D02*
D03*
X13300Y-1200D02*
D03*
X875Y17375D02*
D03*
X4850Y3400D02*
D03*
X3625Y-200D02*
D03*
X31055Y29775D02*
D03*
X26000Y11975D02*
D03*
X2800Y-9075D02*
D03*
X15075Y-3650D02*
D03*
X25876Y29776D02*
D03*
X28725Y29775D02*
D03*
X34500Y29000D02*
D03*
X33950Y22200D02*
D03*
X2350Y25700D02*
D03*
D95*
X12225Y15950D02*
D03*
X10551Y15951D02*
D03*
X9011Y15975D02*
D03*
X12450Y17075D02*
D03*
X13614Y15975D02*
D03*
X11325Y17075D02*
D03*
X10200D02*
D03*
X9075D02*
D03*
X25200D02*
D03*
X26325D02*
D03*
X27450D02*
D03*
X28575D02*
D03*
M02*
