G04*
G04 #@! TF.GenerationSoftware,Altium Limited,Altium Designer,19.1.7 (138)*
G04*
G04 Layer_Color=65535*
%FSLAX43Y43*%
%MOMM*%
G71*
G01*
G75*
%ADD10C,0.200*%
%ADD11C,0.250*%
%ADD12C,0.600*%
%ADD13C,0.100*%
%ADD14C,0.000*%
%ADD15C,0.127*%
%ADD16C,0.254*%
%ADD17C,0.400*%
%ADD18C,0.102*%
D10*
X30375Y25385D02*
G03*
X30375Y25385I-100J0D01*
G01*
X1100Y25285D02*
G03*
X1100Y25285I-100J0D01*
G01*
X10375Y30015D02*
G03*
X10375Y30015I-100J0D01*
G01*
X34850Y-8400D02*
Y2600D01*
X30100Y-9400D02*
X31650D01*
X18700Y4450D02*
X32550D01*
X18700Y2750D02*
Y4450D01*
Y-9400D02*
X22100D01*
X18700D02*
Y-9100D01*
X24100Y-9400D02*
X28500D01*
X5600Y17600D02*
X14800D01*
X5600Y8400D02*
X14800D01*
Y17600D01*
X5600Y8400D02*
Y17600D01*
X11150Y-5725D02*
X11750D01*
X11150Y-7925D02*
X11750D01*
X11150D02*
Y-5725D01*
X11750Y-7925D02*
Y-5725D01*
X2275Y3650D02*
X2475D01*
X2275Y-2550D02*
X2475D01*
X425Y-353D02*
Y1453D01*
X4325Y-353D02*
Y1453D01*
X22250Y17600D02*
X31450D01*
X22250Y8400D02*
X31450D01*
Y17600D01*
X22250Y8400D02*
Y17600D01*
X6450Y4700D02*
Y5350D01*
X7100D01*
X12100D02*
X12750D01*
Y4700D02*
Y5350D01*
Y-950D02*
Y-300D01*
X12100Y-950D02*
X12750D01*
X6450D02*
Y-300D01*
Y-950D02*
X7100D01*
X16600Y-8425D02*
Y-7875D01*
X16550Y-8425D02*
X16600D01*
X16550Y-5275D02*
X16600D01*
Y-5825D02*
Y-5275D01*
X13450Y-5825D02*
Y-5275D01*
X13500D01*
X13450Y-8425D02*
X13500D01*
X13450D02*
Y-7875D01*
D11*
X17775Y300D02*
G03*
X17775Y300I-125J0D01*
G01*
X14775Y18725D02*
G03*
X14775Y18725I-125J0D01*
G01*
X10450Y-5425D02*
G03*
X10450Y-5425I-125J0D01*
G01*
X1300Y4200D02*
G03*
X1300Y4200I-125J0D01*
G01*
X31425Y18725D02*
G03*
X31425Y18725I-125J0D01*
G01*
X5925Y5200D02*
G03*
X5925Y5200I-125J0D01*
G01*
D12*
X14100Y16600D02*
G03*
X14100Y16600I-300J0D01*
G01*
X30750Y16600D02*
G03*
X30750Y16600I-300J0D01*
G01*
D13*
X16091Y-5050D02*
G03*
X16091Y-5050I-50J0D01*
G01*
D14*
X32467Y21320D02*
G03*
X32467Y21320I-127J0D01*
G01*
X29067D02*
G03*
X29067Y21320I-127J0D01*
G01*
X25667D02*
G03*
X25667Y21320I-127J0D01*
G01*
X22267D02*
G03*
X22267Y21320I-127J0D01*
G01*
X18867D02*
G03*
X18867Y21320I-127J0D01*
G01*
X12987Y24680D02*
G03*
X12987Y24680I-127J0D01*
G01*
X9587D02*
G03*
X9587Y24680I-127J0D01*
G01*
X6187D02*
G03*
X6187Y24680I-127J0D01*
G01*
X2787D02*
G03*
X2787Y24680I-127J0D01*
G01*
D15*
X31075Y26500D02*
X32975D01*
X1800Y26400D02*
X3700D01*
X7575Y28900D02*
X9475D01*
D16*
X23500Y27100D02*
Y30350D01*
X23250Y27100D02*
X23500D01*
X22250D02*
X23250D01*
X11500Y30350D02*
X23500D01*
X11500Y27100D02*
Y30350D01*
Y27100D02*
X12750D01*
X15602Y1666D02*
Y3698D01*
X17380Y1666D02*
Y3698D01*
X15602D02*
X17380D01*
X15602Y1666D02*
X17380D01*
X7452Y-7659D02*
Y-5627D01*
X9230Y-7659D02*
Y-5627D01*
X7452D02*
X9230D01*
X7452Y-7659D02*
X9230D01*
X1791Y-7502D02*
X3823D01*
X1791Y-9280D02*
X3823D01*
Y-7502D01*
X1791Y-9280D02*
Y-7502D01*
X1791Y-3377D02*
X3823D01*
X1791Y-5155D02*
X3823D01*
Y-3377D01*
X1791Y-5155D02*
Y-3377D01*
D17*
X250Y3475D02*
X1050D01*
D18*
X4825Y-4600D02*
Y-4092D01*
X5079D01*
X5164Y-4177D01*
Y-4346D01*
X5079Y-4431D01*
X4825D01*
X4994D02*
X5164Y-4600D01*
X5333Y-4092D02*
X5671D01*
Y-4177D01*
X5333Y-4515D01*
Y-4600D01*
X11864Y-8377D02*
X11779Y-8292D01*
X11610D01*
X11525Y-8377D01*
Y-8715D01*
X11610Y-8800D01*
X11779D01*
X11864Y-8715D01*
X12033Y-8800D02*
X12202D01*
X12117D01*
Y-8292D01*
X12033Y-8377D01*
X12456D02*
X12541Y-8292D01*
X12710D01*
X12795Y-8377D01*
Y-8715D01*
X12710Y-8800D01*
X12541D01*
X12456Y-8715D01*
Y-8377D01*
X18864Y12798D02*
X18779Y12883D01*
X18610D01*
X18525Y12798D01*
Y12460D01*
X18610Y12375D01*
X18779D01*
X18864Y12460D01*
X19287Y12375D02*
Y12883D01*
X19033Y12629D01*
X19371D01*
X19879Y12883D02*
X19541D01*
Y12629D01*
X19710Y12714D01*
X19795D01*
X19879Y12629D01*
Y12460D01*
X19795Y12375D01*
X19625D01*
X19541Y12460D01*
X19064Y13873D02*
X18979Y13958D01*
X18810D01*
X18725Y13873D01*
Y13535D01*
X18810Y13450D01*
X18979D01*
X19064Y13535D01*
X19571Y13958D02*
X19233D01*
Y13704D01*
X19402Y13789D01*
X19487D01*
X19571Y13704D01*
Y13535D01*
X19487Y13450D01*
X19317D01*
X19233Y13535D01*
X19995Y13450D02*
Y13958D01*
X19741Y13704D01*
X20079D01*
X2853Y11828D02*
X2768Y11912D01*
X2599D01*
X2514Y11828D01*
Y11489D01*
X2599Y11405D01*
X2768D01*
X2853Y11489D01*
X3022Y11912D02*
X3361D01*
Y11828D01*
X3022Y11489D01*
Y11405D01*
X948Y13834D02*
X863Y13919D01*
X694D01*
X609Y13834D01*
Y13496D01*
X694Y13411D01*
X863D01*
X948Y13496D01*
X1456Y13919D02*
X1286Y13834D01*
X1117Y13665D01*
Y13496D01*
X1202Y13411D01*
X1371D01*
X1456Y13496D01*
Y13581D01*
X1371Y13665D01*
X1117D01*
X714Y12823D02*
X629Y12908D01*
X460D01*
X375Y12823D01*
Y12485D01*
X460Y12400D01*
X629D01*
X714Y12485D01*
X1221Y12400D02*
X883D01*
X1221Y12739D01*
Y12823D01*
X1137Y12908D01*
X967D01*
X883Y12823D01*
X491Y16476D02*
X406Y16561D01*
X237D01*
X152Y16476D01*
Y16137D01*
X237Y16053D01*
X406D01*
X491Y16137D01*
X660Y16053D02*
X829D01*
X745D01*
Y16561D01*
X660Y16476D01*
X770Y15333D02*
X685Y15418D01*
X516D01*
X431Y15333D01*
Y14994D01*
X516Y14910D01*
X685D01*
X770Y14994D01*
X1278Y15418D02*
X939D01*
Y15164D01*
X1109Y15248D01*
X1193D01*
X1278Y15164D01*
Y14994D01*
X1193Y14910D01*
X1024D01*
X939Y14994D01*
X33520Y11108D02*
X33436Y11192D01*
X33266D01*
X33182Y11108D01*
Y10769D01*
X33266Y10685D01*
X33436D01*
X33520Y10769D01*
X34028Y11192D02*
X33689D01*
Y10939D01*
X33859Y11023D01*
X33943D01*
X34028Y10939D01*
Y10769D01*
X33943Y10685D01*
X33774D01*
X33689Y10769D01*
X34197Y11108D02*
X34282Y11192D01*
X34451D01*
X34536Y11108D01*
Y11023D01*
X34451Y10939D01*
X34536Y10854D01*
Y10769D01*
X34451Y10685D01*
X34282D01*
X34197Y10769D01*
Y10854D01*
X34282Y10939D01*
X34197Y11023D01*
Y11108D01*
X34282Y10939D02*
X34451D01*
X33520Y12733D02*
X33436Y12818D01*
X33266D01*
X33182Y12733D01*
Y12395D01*
X33266Y12310D01*
X33436D01*
X33520Y12395D01*
X34028Y12818D02*
X33859Y12733D01*
X33689Y12564D01*
Y12395D01*
X33774Y12310D01*
X33943D01*
X34028Y12395D01*
Y12480D01*
X33943Y12564D01*
X33689D01*
X34197Y12733D02*
X34282Y12818D01*
X34451D01*
X34536Y12733D01*
Y12395D01*
X34451Y12310D01*
X34282D01*
X34197Y12395D01*
Y12733D01*
X33520Y14384D02*
X33436Y14469D01*
X33266D01*
X33182Y14384D01*
Y14046D01*
X33266Y13961D01*
X33436D01*
X33520Y14046D01*
X34028Y14469D02*
X33689D01*
Y14215D01*
X33859Y14300D01*
X33943D01*
X34028Y14215D01*
Y14046D01*
X33943Y13961D01*
X33774D01*
X33689Y14046D01*
X34197D02*
X34282Y13961D01*
X34451D01*
X34536Y14046D01*
Y14384D01*
X34451Y14469D01*
X34282D01*
X34197Y14384D01*
Y14300D01*
X34282Y14215D01*
X34536D01*
X33393Y16518D02*
X33309Y16603D01*
X33139D01*
X33055Y16518D01*
Y16179D01*
X33139Y16095D01*
X33309D01*
X33393Y16179D01*
X33901Y16603D02*
X33562D01*
Y16349D01*
X33732Y16433D01*
X33816D01*
X33901Y16349D01*
Y16179D01*
X33816Y16095D01*
X33647D01*
X33562Y16179D01*
X34070Y16095D02*
X34240D01*
X34155D01*
Y16603D01*
X34070Y16518D01*
X32597Y20743D02*
Y21251D01*
X32851D01*
X32936Y21166D01*
Y20997D01*
X32851Y20912D01*
X32597D01*
X32767D02*
X32936Y20743D01*
X33444D02*
X33105D01*
X33444Y21082D01*
Y21166D01*
X33359Y21251D01*
X33190D01*
X33105Y21166D01*
X33952Y21251D02*
X33613D01*
Y20997D01*
X33782Y21082D01*
X33867D01*
X33952Y20997D01*
Y20828D01*
X33867Y20743D01*
X33698D01*
X33613Y20828D01*
X32885Y20252D02*
X32801Y20336D01*
X32631D01*
X32547Y20252D01*
Y19913D01*
X32631Y19829D01*
X32801D01*
X32885Y19913D01*
X33393Y20336D02*
X33054D01*
Y20083D01*
X33224Y20167D01*
X33308D01*
X33393Y20083D01*
Y19913D01*
X33308Y19829D01*
X33139D01*
X33054Y19913D01*
X33562Y20252D02*
X33647Y20336D01*
X33816D01*
X33901Y20252D01*
Y20167D01*
X33816Y20083D01*
X33732D01*
X33816D01*
X33901Y19998D01*
Y19913D01*
X33816Y19829D01*
X33647D01*
X33562Y19913D01*
X28164Y28673D02*
X28079Y28758D01*
X27910D01*
X27825Y28673D01*
Y28589D01*
X27910Y28504D01*
X28079D01*
X28164Y28419D01*
Y28335D01*
X28079Y28250D01*
X27910D01*
X27825Y28335D01*
X28333Y28758D02*
Y28250D01*
X28502Y28419D01*
X28671Y28250D01*
Y28758D01*
X28841Y28673D02*
X28925Y28758D01*
X29095D01*
X29179Y28673D01*
Y28589D01*
X29095Y28504D01*
X29179Y28419D01*
Y28335D01*
X29095Y28250D01*
X28925D01*
X28841Y28335D01*
Y28419D01*
X28925Y28504D01*
X28841Y28589D01*
Y28673D01*
X28925Y28504D02*
X29095D01*
X24125Y28783D02*
X24464D01*
Y28698D01*
X24125Y28360D01*
Y28275D01*
X24464D01*
X24633Y28783D02*
X24802D01*
X24717D01*
Y28275D01*
X24633D01*
X24802D01*
X25395Y28783D02*
X25056D01*
Y28529D01*
X25225D01*
X25056D01*
Y28275D01*
X25564D02*
X25733D01*
X25649D01*
Y28783D01*
X25564Y28698D01*
X789Y29348D02*
X704Y29433D01*
X535D01*
X450Y29348D01*
Y29264D01*
X535Y29179D01*
X704D01*
X789Y29094D01*
Y29010D01*
X704Y28925D01*
X535D01*
X450Y29010D01*
X958Y29433D02*
Y28925D01*
X1127Y29094D01*
X1296Y28925D01*
Y29433D01*
X1466Y29010D02*
X1550Y28925D01*
X1720D01*
X1804Y29010D01*
Y29348D01*
X1720Y29433D01*
X1550D01*
X1466Y29348D01*
Y29264D01*
X1550Y29179D01*
X1804D01*
X4364Y29023D02*
X4279Y29108D01*
X4110D01*
X4025Y29023D01*
Y28939D01*
X4110Y28854D01*
X4279D01*
X4364Y28769D01*
Y28685D01*
X4279Y28600D01*
X4110D01*
X4025Y28685D01*
X4533Y29108D02*
Y28600D01*
X4702Y28769D01*
X4871Y28600D01*
Y29108D01*
X5041Y28600D02*
X5210D01*
X5125D01*
Y29108D01*
X5041Y29023D01*
X5464Y28600D02*
X5633D01*
X5549D01*
Y29108D01*
X5464Y29023D01*
X17839Y6011D02*
X17755Y6096D01*
X17585D01*
X17501Y6011D01*
Y5673D01*
X17585Y5588D01*
X17755D01*
X17839Y5673D01*
X18262Y6096D02*
X18093D01*
X18008Y6011D01*
Y5673D01*
X18093Y5588D01*
X18262D01*
X18347Y5673D01*
Y6011D01*
X18262Y6096D01*
X18516Y5588D02*
Y6096D01*
X18855Y5588D01*
Y6096D01*
X19024Y5588D02*
Y6096D01*
X19363Y5588D01*
Y6096D01*
X19532Y5588D02*
X19701D01*
X19617D01*
Y6096D01*
X19532Y6011D01*
X2235Y25578D02*
Y26086D01*
X2489D01*
X2574Y26001D01*
Y25832D01*
X2489Y25747D01*
X2235D01*
X2405D02*
X2574Y25578D01*
X2743D02*
X2912D01*
X2828D01*
Y26086D01*
X2743Y26001D01*
X406Y5562D02*
X745Y5055D01*
Y5562D02*
X406Y5055D01*
X914D02*
X1084D01*
X999D01*
Y5562D01*
X914Y5478D01*
X20218Y20853D02*
Y20430D01*
X20303Y20345D01*
X20472D01*
X20557Y20430D01*
Y20853D01*
X20726Y20430D02*
X20811Y20345D01*
X20980D01*
X21065Y20430D01*
Y20769D01*
X20980Y20853D01*
X20811D01*
X20726Y20769D01*
Y20684D01*
X20811Y20599D01*
X21065D01*
X5664Y6959D02*
Y6536D01*
X5749Y6452D01*
X5918D01*
X6003Y6536D01*
Y6959D01*
X6172D02*
X6511D01*
Y6875D01*
X6172Y6536D01*
Y6452D01*
X3581Y20853D02*
Y20430D01*
X3666Y20345D01*
X3835D01*
X3920Y20430D01*
Y20853D01*
X4428D02*
X4259Y20769D01*
X4089Y20599D01*
Y20430D01*
X4174Y20345D01*
X4343D01*
X4428Y20430D01*
Y20515D01*
X4343Y20599D01*
X4089D01*
X9728Y-4064D02*
Y-4487D01*
X9813Y-4572D01*
X9982D01*
X10067Y-4487D01*
Y-4064D01*
X10575Y-4572D02*
X10236D01*
X10575Y-4233D01*
Y-4149D01*
X10490Y-4064D01*
X10321D01*
X10236Y-4149D01*
X13437Y-3836D02*
Y-4259D01*
X13521Y-4343D01*
X13691D01*
X13775Y-4259D01*
Y-3836D01*
X13944Y-4343D02*
X14114D01*
X14029D01*
Y-3836D01*
X13944Y-3920D01*
X15477Y6468D02*
X15392Y6553D01*
X15223D01*
X15138Y6468D01*
Y6384D01*
X15223Y6299D01*
X15392D01*
X15477Y6215D01*
Y6130D01*
X15392Y6045D01*
X15223D01*
X15138Y6130D01*
X15646Y6553D02*
Y6045D01*
X15816Y6215D01*
X15985Y6045D01*
Y6553D01*
X16493D02*
X16154D01*
Y6299D01*
X16323Y6384D01*
X16408D01*
X16493Y6299D01*
Y6130D01*
X16408Y6045D01*
X16239D01*
X16154Y6130D01*
X7349Y-2853D02*
X7264Y-2769D01*
X7095D01*
X7010Y-2853D01*
Y-2938D01*
X7095Y-3023D01*
X7264D01*
X7349Y-3107D01*
Y-3192D01*
X7264Y-3277D01*
X7095D01*
X7010Y-3192D01*
X7518Y-2769D02*
Y-3277D01*
X7688Y-3107D01*
X7857Y-3277D01*
Y-2769D01*
X8280Y-3277D02*
Y-2769D01*
X8026Y-3023D01*
X8365D01*
X593Y-5927D02*
X508Y-5842D01*
X339D01*
X254Y-5927D01*
Y-6011D01*
X339Y-6096D01*
X508D01*
X593Y-6181D01*
Y-6265D01*
X508Y-6350D01*
X339D01*
X254Y-6265D01*
X762Y-5927D02*
X847Y-5842D01*
X1016D01*
X1100Y-5927D01*
Y-6011D01*
X1016Y-6096D01*
X931D01*
X1016D01*
X1100Y-6181D01*
Y-6265D01*
X1016Y-6350D01*
X847D01*
X762Y-6265D01*
X593Y-1787D02*
X508Y-1702D01*
X339D01*
X254Y-1787D01*
Y-1871D01*
X339Y-1956D01*
X508D01*
X593Y-2040D01*
Y-2125D01*
X508Y-2210D01*
X339D01*
X254Y-2125D01*
X762Y-2210D02*
X931D01*
X847D01*
Y-1702D01*
X762Y-1787D01*
X29439Y25578D02*
Y26086D01*
X29693D01*
X29777Y26001D01*
Y25832D01*
X29693Y25747D01*
X29439D01*
X29608D02*
X29777Y25578D01*
X30285D02*
X29946D01*
X30285Y25916D01*
Y26001D01*
X30200Y26086D01*
X30031D01*
X29946Y26001D01*
X30454D02*
X30539Y26086D01*
X30708D01*
X30793Y26001D01*
Y25916D01*
X30708Y25832D01*
X30624D01*
X30708D01*
X30793Y25747D01*
Y25662D01*
X30708Y25578D01*
X30539D01*
X30454Y25662D01*
X26035Y25578D02*
Y26086D01*
X26289D01*
X26374Y26001D01*
Y25832D01*
X26289Y25747D01*
X26035D01*
X26204D02*
X26374Y25578D01*
X26881D02*
X26543D01*
X26881Y25916D01*
Y26001D01*
X26797Y26086D01*
X26628D01*
X26543Y26001D01*
X27389Y25578D02*
X27051D01*
X27389Y25916D01*
Y26001D01*
X27305Y26086D01*
X27135D01*
X27051Y26001D01*
X22631Y25578D02*
Y26086D01*
X22885D01*
X22970Y26001D01*
Y25832D01*
X22885Y25747D01*
X22631D01*
X22801D02*
X22970Y25578D01*
X23478D02*
X23139D01*
X23478Y25916D01*
Y26001D01*
X23393Y26086D01*
X23224D01*
X23139Y26001D01*
X23647Y25578D02*
X23816D01*
X23732D01*
Y26086D01*
X23647Y26001D01*
X19228Y25578D02*
Y26086D01*
X19482D01*
X19566Y26001D01*
Y25832D01*
X19482Y25747D01*
X19228D01*
X19397D02*
X19566Y25578D01*
X20074D02*
X19736D01*
X20074Y25916D01*
Y26001D01*
X19990Y26086D01*
X19820D01*
X19736Y26001D01*
X20244D02*
X20328Y26086D01*
X20497D01*
X20582Y26001D01*
Y25662D01*
X20497Y25578D01*
X20328D01*
X20244Y25662D01*
Y26001D01*
X12954Y-787D02*
Y-280D01*
X13208D01*
X13293Y-364D01*
Y-533D01*
X13208Y-618D01*
X12954D01*
X13123D02*
X13293Y-787D01*
X13462Y-703D02*
X13547Y-787D01*
X13716D01*
X13800Y-703D01*
Y-364D01*
X13716Y-280D01*
X13547D01*
X13462Y-364D01*
Y-449D01*
X13547Y-533D01*
X13800D01*
X2311Y5461D02*
Y5969D01*
X2565D01*
X2650Y5884D01*
Y5715D01*
X2565Y5630D01*
X2311D01*
X2481D02*
X2650Y5461D01*
X2819Y5884D02*
X2904Y5969D01*
X3073D01*
X3158Y5884D01*
Y5800D01*
X3073Y5715D01*
X3158Y5630D01*
Y5546D01*
X3073Y5461D01*
X2904D01*
X2819Y5546D01*
Y5630D01*
X2904Y5715D01*
X2819Y5800D01*
Y5884D01*
X2904Y5715D02*
X3073D01*
X15850Y25578D02*
Y26086D01*
X16104D01*
X16188Y26001D01*
Y25832D01*
X16104Y25747D01*
X15850D01*
X16019D02*
X16188Y25578D01*
X16696Y26086D02*
X16527Y26001D01*
X16357Y25832D01*
Y25662D01*
X16442Y25578D01*
X16611D01*
X16696Y25662D01*
Y25747D01*
X16611Y25832D01*
X16357D01*
X16586Y20193D02*
Y20701D01*
X16840D01*
X16925Y20616D01*
Y20447D01*
X16840Y20362D01*
X16586D01*
X16756D02*
X16925Y20193D01*
X17433Y20701D02*
X17094D01*
Y20447D01*
X17263Y20532D01*
X17348D01*
X17433Y20447D01*
Y20278D01*
X17348Y20193D01*
X17179D01*
X17094Y20278D01*
X12446Y25578D02*
Y26086D01*
X12700D01*
X12785Y26001D01*
Y25832D01*
X12700Y25747D01*
X12446D01*
X12615D02*
X12785Y25578D01*
X13208D02*
Y26086D01*
X12954Y25832D01*
X13292D01*
X9042Y25578D02*
Y26086D01*
X9296D01*
X9381Y26001D01*
Y25832D01*
X9296Y25747D01*
X9042D01*
X9212D02*
X9381Y25578D01*
X9550Y26001D02*
X9635Y26086D01*
X9804D01*
X9889Y26001D01*
Y25916D01*
X9804Y25832D01*
X9720D01*
X9804D01*
X9889Y25747D01*
Y25662D01*
X9804Y25578D01*
X9635D01*
X9550Y25662D01*
X5639Y25578D02*
Y26086D01*
X5893D01*
X5977Y26001D01*
Y25832D01*
X5893Y25747D01*
X5639D01*
X5808D02*
X5977Y25578D01*
X6485D02*
X6147D01*
X6485Y25916D01*
Y26001D01*
X6401Y26086D01*
X6231D01*
X6147Y26001D01*
X152Y7518D02*
Y7010D01*
X406D01*
X491Y7095D01*
Y7434D01*
X406Y7518D01*
X152D01*
X660Y7010D02*
X830D01*
X745D01*
Y7518D01*
X660Y7434D01*
X18728Y8221D02*
X18644Y8306D01*
X18474D01*
X18390Y8221D01*
Y7882D01*
X18474Y7798D01*
X18644D01*
X18728Y7882D01*
X19236Y8306D02*
X18897D01*
Y8052D01*
X19067Y8136D01*
X19151D01*
X19236Y8052D01*
Y7882D01*
X19151Y7798D01*
X18982D01*
X18897Y7882D01*
X19744Y8306D02*
X19405D01*
Y8052D01*
X19575Y8136D01*
X19659D01*
X19744Y8052D01*
Y7882D01*
X19659Y7798D01*
X19490D01*
X19405Y7882D01*
X17865Y15333D02*
X17780Y15418D01*
X17611D01*
X17526Y15333D01*
Y14994D01*
X17611Y14910D01*
X17780D01*
X17865Y14994D01*
X18288Y14910D02*
Y15418D01*
X18034Y15164D01*
X18372D01*
X18542Y15418D02*
X18880D01*
Y15333D01*
X18542Y14994D01*
Y14910D01*
X17636Y16476D02*
X17551Y16561D01*
X17382D01*
X17297Y16476D01*
Y16137D01*
X17382Y16053D01*
X17551D01*
X17636Y16137D01*
X18059Y16053D02*
Y16561D01*
X17805Y16307D01*
X18144D01*
X18652Y16561D02*
X18482Y16476D01*
X18313Y16307D01*
Y16137D01*
X18398Y16053D01*
X18567D01*
X18652Y16137D01*
Y16222D01*
X18567Y16307D01*
X18313D01*
X14029Y3649D02*
X13945Y3734D01*
X13775D01*
X13691Y3649D01*
Y3310D01*
X13775Y3226D01*
X13945D01*
X14029Y3310D01*
X14537Y3226D02*
X14198D01*
X14537Y3564D01*
Y3649D01*
X14452Y3734D01*
X14283D01*
X14198Y3649D01*
X15045Y3734D02*
X14706D01*
Y3480D01*
X14876Y3564D01*
X14960D01*
X15045Y3480D01*
Y3310D01*
X14960Y3226D01*
X14791D01*
X14706Y3310D01*
X5012Y1617D02*
X4928Y1702D01*
X4758D01*
X4674Y1617D01*
Y1278D01*
X4758Y1194D01*
X4928D01*
X5012Y1278D01*
X5520Y1194D02*
X5181D01*
X5520Y1532D01*
Y1617D01*
X5435Y1702D01*
X5266D01*
X5181Y1617D01*
X5689D02*
X5774Y1702D01*
X5943D01*
X6028Y1617D01*
Y1532D01*
X5943Y1448D01*
X5859D01*
X5943D01*
X6028Y1363D01*
Y1278D01*
X5943Y1194D01*
X5774D01*
X5689Y1278D01*
X17280Y10228D02*
X17196Y10312D01*
X17026D01*
X16942Y10228D01*
Y9889D01*
X17026Y9804D01*
X17196D01*
X17280Y9889D01*
X17788Y9804D02*
X17450D01*
X17788Y10143D01*
Y10228D01*
X17704Y10312D01*
X17534D01*
X17450Y10228D01*
X17958Y9804D02*
X18127D01*
X18042D01*
Y10312D01*
X17958Y10228D01*
X5012Y4081D02*
X4928Y4165D01*
X4758D01*
X4674Y4081D01*
Y3742D01*
X4758Y3658D01*
X4928D01*
X5012Y3742D01*
X5520Y3658D02*
X5181D01*
X5520Y3996D01*
Y4081D01*
X5435Y4165D01*
X5266D01*
X5181Y4081D01*
X5689D02*
X5774Y4165D01*
X5943D01*
X6028Y4081D01*
Y3742D01*
X5943Y3658D01*
X5774D01*
X5689Y3742D01*
Y4081D01*
X17280Y11879D02*
X17196Y11963D01*
X17026D01*
X16942Y11879D01*
Y11540D01*
X17026Y11455D01*
X17196D01*
X17280Y11540D01*
X17450Y11455D02*
X17619D01*
X17534D01*
Y11963D01*
X17450Y11879D01*
X17873Y11540D02*
X17958Y11455D01*
X18127D01*
X18211Y11540D01*
Y11879D01*
X18127Y11963D01*
X17958D01*
X17873Y11879D01*
Y11794D01*
X17958Y11709D01*
X18211D01*
X17280Y8577D02*
X17196Y8661D01*
X17026D01*
X16942Y8577D01*
Y8238D01*
X17026Y8153D01*
X17196D01*
X17280Y8238D01*
X17450Y8153D02*
X17619D01*
X17534D01*
Y8661D01*
X17450Y8577D01*
X17873D02*
X17958Y8661D01*
X18127D01*
X18211Y8577D01*
Y8492D01*
X18127Y8407D01*
X18211Y8323D01*
Y8238D01*
X18127Y8153D01*
X17958D01*
X17873Y8238D01*
Y8323D01*
X17958Y8407D01*
X17873Y8492D01*
Y8577D01*
X17958Y8407D02*
X18127D01*
X16849Y19727D02*
X16764Y19812D01*
X16595D01*
X16510Y19727D01*
Y19389D01*
X16595Y19304D01*
X16764D01*
X16849Y19389D01*
X17018Y19304D02*
X17187D01*
X17103D01*
Y19812D01*
X17018Y19727D01*
X17780Y19812D02*
X17610Y19727D01*
X17441Y19558D01*
Y19389D01*
X17526Y19304D01*
X17695D01*
X17780Y19389D01*
Y19473D01*
X17695Y19558D01*
X17441D01*
X17204Y13987D02*
X17120Y14071D01*
X16950D01*
X16866Y13987D01*
Y13648D01*
X16950Y13564D01*
X17120D01*
X17204Y13648D01*
X17373Y13564D02*
X17543D01*
X17458D01*
Y14071D01*
X17373Y13987D01*
X18135Y14071D02*
X17797D01*
Y13818D01*
X17966Y13902D01*
X18051D01*
X18135Y13818D01*
Y13648D01*
X18051Y13564D01*
X17881D01*
X17797Y13648D01*
X14207Y-7476D02*
X14122Y-7392D01*
X13953D01*
X13868Y-7476D01*
Y-7815D01*
X13953Y-7899D01*
X14122D01*
X14207Y-7815D01*
X14376Y-7476D02*
X14461Y-7392D01*
X14630D01*
X14715Y-7476D01*
Y-7561D01*
X14630Y-7645D01*
X14715Y-7730D01*
Y-7815D01*
X14630Y-7899D01*
X14461D01*
X14376Y-7815D01*
Y-7730D01*
X14461Y-7645D01*
X14376Y-7561D01*
Y-7476D01*
X14461Y-7645D02*
X14630D01*
X13013Y-1406D02*
X12929Y-1321D01*
X12759D01*
X12675Y-1406D01*
Y-1744D01*
X12759Y-1829D01*
X12929D01*
X13013Y-1744D01*
X13436Y-1829D02*
Y-1321D01*
X13182Y-1575D01*
X13521D01*
M02*
