G04*
G04 #@! TF.GenerationSoftware,Altium Limited,Altium Designer,19.1.7 (138)*
G04*
G04 Layer_Color=32896*
%FSLAX43Y43*%
%MOMM*%
G71*
G01*
G75*
%ADD10C,0.200*%
%ADD11C,0.250*%
%ADD15C,0.127*%
%ADD16C,0.254*%
%ADD17C,0.400*%
%ADD18C,0.102*%
%ADD89C,0.152*%
%ADD123C,0.076*%
D10*
X18160Y15675D02*
G03*
X18160Y15675I-100J0D01*
G01*
X19050Y-6100D02*
Y-2100D01*
X19850Y-3700D02*
Y-2100D01*
Y-3700D02*
X21100D01*
X19050Y-2100D02*
X19850D01*
X20800Y-9700D02*
X25200D01*
X26950Y-6100D02*
Y-2100D01*
X24900Y-3700D02*
X26150D01*
Y-2100D02*
X26950D01*
X26150Y-3700D02*
Y-2100D01*
X22700Y3650D02*
X23700D01*
X22700Y550D02*
X23700D01*
Y3650D01*
X22700Y550D02*
Y3650D01*
X22425Y5400D02*
X23425D01*
X22425Y8500D02*
X23425D01*
X22425Y5400D02*
Y8500D01*
X23425Y5400D02*
Y8500D01*
X22425Y9200D02*
Y12300D01*
X23425Y9200D02*
Y12300D01*
X22425Y9200D02*
X23425D01*
X22425Y12300D02*
X23425D01*
X33600Y-8350D02*
Y-2850D01*
X31000Y-5600D02*
Y-4100D01*
X29225Y-5380D02*
Y-3820D01*
X27575D02*
X29225D01*
X27575Y-5380D02*
Y-3820D01*
Y-5380D02*
X29225D01*
D11*
X24125Y-150D02*
G03*
X24125Y-150I-125J0D01*
G01*
X24700Y3900D02*
G03*
X24700Y3900I-125J0D01*
G01*
X21675Y5150D02*
G03*
X21675Y5150I-125J0D01*
G01*
X24425Y12550D02*
G03*
X24425Y12550I-125J0D01*
G01*
X29375Y-3350D02*
G03*
X29375Y-3350I-125J0D01*
G01*
X29685Y-6235D02*
G03*
X29685Y-6235I-125J0D01*
G01*
D15*
X-200Y-2075D02*
G03*
X-200Y-2075I-250J0D01*
G01*
X19175Y16475D02*
Y18375D01*
X2800Y-1940D02*
X14800D01*
Y13060D01*
X2800D02*
X14800D01*
X2800Y-1940D02*
Y13060D01*
X800Y-9700D02*
Y-2200D01*
Y-9700D02*
X16800D01*
Y-2200D01*
X800Y13800D02*
Y14300D01*
X2800D01*
X16800Y13800D02*
Y14300D01*
X14800D02*
X16800D01*
D16*
X33278Y3203D02*
Y5997D01*
Y4600D02*
X34328D01*
X32228D02*
X33278D01*
D17*
X3650Y17525D02*
X4450D01*
X18000Y2075D02*
X18800D01*
D18*
X22039Y20819D02*
X22124Y20904D01*
X22293D01*
X22377Y20819D01*
Y20735D01*
X22293Y20650D01*
X22124D01*
X22039Y20566D01*
Y20481D01*
X22124Y20396D01*
X22293D01*
X22377Y20481D01*
X21870Y20904D02*
Y20396D01*
X21700Y20566D01*
X21531Y20396D01*
Y20904D01*
X21362Y20396D02*
X21192D01*
X21277D01*
Y20904D01*
X21362Y20819D01*
X20939D02*
X20854Y20904D01*
X20685D01*
X20600Y20819D01*
Y20481D01*
X20685Y20396D01*
X20854D01*
X20939Y20481D01*
Y20819D01*
X21050Y20039D02*
Y19785D01*
X21135Y19700D01*
X21219Y19785D01*
X21304Y19700D01*
X21389Y19785D01*
Y20039D01*
X21558Y19700D02*
X21727D01*
X21642D01*
Y20039D01*
X21558D01*
X22320Y20208D02*
X21981D01*
Y19700D01*
X22320D01*
X21981Y19954D02*
X22150D01*
X22827Y20208D02*
X22489D01*
Y19700D01*
X22827D01*
X22489Y19954D02*
X22658D01*
X23335Y20123D02*
X23251Y20208D01*
X23081D01*
X22997Y20123D01*
Y19785D01*
X23081Y19700D01*
X23251D01*
X23335Y19785D01*
Y19954D01*
X23166D01*
X24012Y20208D02*
Y19785D01*
X24097Y19700D01*
X24266D01*
X24351Y19785D01*
Y20208D01*
X24859Y20123D02*
X24774Y20208D01*
X24605D01*
X24520Y20123D01*
Y19785D01*
X24605Y19700D01*
X24774D01*
X24859Y19785D01*
X25367Y20123D02*
X25282Y20208D01*
X25113D01*
X25028Y20123D01*
Y20039D01*
X25113Y19954D01*
X25282D01*
X25367Y19869D01*
Y19785D01*
X25282Y19700D01*
X25113D01*
X25028Y19785D01*
X25536Y20208D02*
Y19700D01*
X25790D01*
X25874Y19785D01*
Y20123D01*
X25790Y20208D01*
X25536D01*
X26552D02*
X26721D01*
X26636D01*
Y19700D01*
X26552D01*
X26721D01*
X27313Y20123D02*
X27229Y20208D01*
X27059D01*
X26975Y20123D01*
Y20039D01*
X27059Y19954D01*
X27229D01*
X27313Y19869D01*
Y19785D01*
X27229Y19700D01*
X27059D01*
X26975Y19785D01*
X27483Y19700D02*
Y20208D01*
X27821Y19700D01*
Y20208D01*
X28498Y19700D02*
Y20039D01*
X28668Y20208D01*
X28837Y20039D01*
Y19700D01*
Y19954D01*
X28498D01*
X29006Y19700D02*
Y19785D01*
X29091D01*
Y19700D01*
X29006D01*
X29937D02*
Y20208D01*
X30191D01*
X30276Y20123D01*
Y19954D01*
X30191Y19869D01*
X29937D01*
X30530Y20039D02*
X30699D01*
X30784Y19954D01*
Y19700D01*
X30530D01*
X30445Y19785D01*
X30530Y19869D01*
X30784D01*
X30953Y20039D02*
Y19785D01*
X31037Y19700D01*
X31291D01*
Y20039D01*
X31461Y19700D02*
X31630D01*
X31545D01*
Y20208D01*
X31461D01*
X32730Y19700D02*
X32392D01*
X32730Y20039D01*
Y20123D01*
X32646Y20208D01*
X32476D01*
X32392Y20123D01*
X32899D02*
X32984Y20208D01*
X33153D01*
X33238Y20123D01*
Y19785D01*
X33153Y19700D01*
X32984D01*
X32899Y19785D01*
Y20123D01*
X33407Y19700D02*
X33577D01*
X33492D01*
Y20208D01*
X33407Y20123D01*
X33831Y19785D02*
X33915Y19700D01*
X34084D01*
X34169Y19785D01*
Y20123D01*
X34084Y20208D01*
X33915D01*
X33831Y20123D01*
Y20039D01*
X33915Y19954D01*
X34169D01*
X29411Y16573D02*
X29496Y16658D01*
X29665D01*
X29750Y16573D01*
Y16235D01*
X29665Y16150D01*
X29496D01*
X29411Y16235D01*
X28904Y16150D02*
X29242D01*
X28904Y16489D01*
Y16573D01*
X28988Y16658D01*
X29158D01*
X29242Y16573D01*
X28396Y16150D02*
X28734D01*
X28396Y16489D01*
Y16573D01*
X28480Y16658D01*
X28650D01*
X28734Y16573D01*
X26661Y16523D02*
X26746Y16608D01*
X26915D01*
X27000Y16523D01*
Y16185D01*
X26915Y16100D01*
X26746D01*
X26661Y16185D01*
X26154Y16100D02*
X26492D01*
X26154Y16439D01*
Y16523D01*
X26238Y16608D01*
X26408D01*
X26492Y16523D01*
X25984D02*
X25900Y16608D01*
X25730D01*
X25646Y16523D01*
Y16439D01*
X25730Y16354D01*
X25646Y16269D01*
Y16185D01*
X25730Y16100D01*
X25900D01*
X25984Y16185D01*
Y16269D01*
X25900Y16354D01*
X25984Y16439D01*
Y16523D01*
X25900Y16354D02*
X25730D01*
X28211Y15673D02*
X28296Y15758D01*
X28465D01*
X28550Y15673D01*
Y15335D01*
X28465Y15250D01*
X28296D01*
X28211Y15335D01*
X27704Y15250D02*
X28042D01*
X27704Y15589D01*
Y15673D01*
X27788Y15758D01*
X27958D01*
X28042Y15673D01*
X27280Y15250D02*
Y15758D01*
X27534Y15504D01*
X27196D01*
X30586Y17423D02*
X30671Y17508D01*
X30840D01*
X30925Y17423D01*
Y17085D01*
X30840Y17000D01*
X30671D01*
X30586Y17085D01*
X30079Y17000D02*
X30417D01*
X30079Y17339D01*
Y17423D01*
X30163Y17508D01*
X30333D01*
X30417Y17423D01*
X29909Y17508D02*
X29571D01*
Y17423D01*
X29909Y17085D01*
Y17000D01*
X30411Y14673D02*
X30496Y14758D01*
X30665D01*
X30750Y14673D01*
Y14335D01*
X30665Y14250D01*
X30496D01*
X30411Y14335D01*
X29988Y14250D02*
Y14758D01*
X30242Y14504D01*
X29904D01*
X29734Y14673D02*
X29650Y14758D01*
X29480D01*
X29396Y14673D01*
Y14589D01*
X29480Y14504D01*
X29565D01*
X29480D01*
X29396Y14419D01*
Y14335D01*
X29480Y14250D01*
X29650D01*
X29734Y14335D01*
X31086Y13673D02*
X31171Y13758D01*
X31340D01*
X31425Y13673D01*
Y13335D01*
X31340Y13250D01*
X31171D01*
X31086Y13335D01*
X30917Y13250D02*
X30748D01*
X30833D01*
Y13758D01*
X30917Y13673D01*
X30155Y13250D02*
X30494D01*
X30155Y13589D01*
Y13673D01*
X30240Y13758D01*
X30409D01*
X30494Y13673D01*
X15800Y22525D02*
Y23033D01*
X15546D01*
X15461Y22948D01*
Y22779D01*
X15546Y22694D01*
X15800D01*
X15631D02*
X15461Y22525D01*
X15292D02*
X15123D01*
X15208D01*
Y23033D01*
X15292Y22948D01*
X14869Y23033D02*
X14530D01*
Y22948D01*
X14869Y22610D01*
Y22525D01*
X15675Y20275D02*
Y20783D01*
X15421D01*
X15336Y20698D01*
Y20529D01*
X15421Y20444D01*
X15675D01*
X15506D02*
X15336Y20275D01*
X15167D02*
X14998D01*
X15083D01*
Y20783D01*
X15167Y20698D01*
X14744D02*
X14659Y20783D01*
X14490D01*
X14405Y20698D01*
Y20614D01*
X14490Y20529D01*
X14405Y20444D01*
Y20360D01*
X14490Y20275D01*
X14659D01*
X14744Y20360D01*
Y20444D01*
X14659Y20529D01*
X14744Y20614D01*
Y20698D01*
X14659Y20529D02*
X14490D01*
X4100Y22683D02*
Y22175D01*
X3846D01*
X3761Y22260D01*
Y22598D01*
X3846Y22683D01*
X4100D01*
X3592Y22175D02*
X3423D01*
X3508D01*
Y22683D01*
X3592Y22598D01*
X3169D02*
X3084Y22683D01*
X2915D01*
X2830Y22598D01*
Y22514D01*
X2915Y22429D01*
X3000D01*
X2915D01*
X2830Y22344D01*
Y22260D01*
X2915Y22175D01*
X3084D01*
X3169Y22260D01*
X2052Y29468D02*
Y28961D01*
X1798D01*
X1713Y29045D01*
Y29384D01*
X1798Y29468D01*
X2052D01*
X1544Y29384D02*
X1460Y29468D01*
X1290D01*
X1206Y29384D01*
Y29299D01*
X1290Y29215D01*
X1375D01*
X1290D01*
X1206Y29130D01*
Y29045D01*
X1290Y28961D01*
X1460D01*
X1544Y29045D01*
X4948Y29468D02*
Y28961D01*
X4694D01*
X4609Y29045D01*
Y29384D01*
X4694Y29468D01*
X4948D01*
X4186Y28961D02*
Y29468D01*
X4440Y29215D01*
X4101D01*
X7818Y29468D02*
Y28961D01*
X7564D01*
X7479Y29045D01*
Y29384D01*
X7564Y29468D01*
X7818D01*
X6971D02*
X7310D01*
Y29215D01*
X7141Y29299D01*
X7056D01*
X6971Y29215D01*
Y29045D01*
X7056Y28961D01*
X7225D01*
X7310Y29045D01*
X10688Y29468D02*
Y28961D01*
X10434D01*
X10349Y29045D01*
Y29384D01*
X10434Y29468D01*
X10688D01*
X9842D02*
X10011Y29384D01*
X10180Y29215D01*
Y29045D01*
X10096Y28961D01*
X9926D01*
X9842Y29045D01*
Y29130D01*
X9926Y29215D01*
X10180D01*
X25564Y29293D02*
Y28786D01*
X25310D01*
X25225Y28870D01*
Y29209D01*
X25310Y29293D01*
X25564D01*
X25056Y28786D02*
X24887D01*
X24972D01*
Y29293D01*
X25056Y29209D01*
X24294Y29293D02*
X24633D01*
Y29040D01*
X24464Y29124D01*
X24379D01*
X24294Y29040D01*
Y28870D01*
X24379Y28786D01*
X24548D01*
X24633Y28870D01*
X28434Y29293D02*
Y28786D01*
X28180D01*
X28096Y28870D01*
Y29209D01*
X28180Y29293D01*
X28434D01*
X27926Y28786D02*
X27757D01*
X27842D01*
Y29293D01*
X27926Y29209D01*
X27165Y29293D02*
X27334Y29209D01*
X27503Y29040D01*
Y28870D01*
X27419Y28786D01*
X27249D01*
X27165Y28870D01*
Y28955D01*
X27249Y29040D01*
X27503D01*
X31304Y29293D02*
Y28786D01*
X31051D01*
X30966Y28870D01*
Y29209D01*
X31051Y29293D01*
X31304D01*
X30797Y28786D02*
X30627D01*
X30712D01*
Y29293D01*
X30797Y29209D01*
X30373Y29293D02*
X30035D01*
Y29209D01*
X30373Y28870D01*
Y28786D01*
X34200Y29293D02*
Y28786D01*
X33946D01*
X33861Y28870D01*
Y29209D01*
X33946Y29293D01*
X34200D01*
X33692Y28786D02*
X33523D01*
X33608D01*
Y29293D01*
X33692Y29209D01*
X33269D02*
X33184Y29293D01*
X33015D01*
X32930Y29209D01*
Y29124D01*
X33015Y29040D01*
X32930Y28955D01*
Y28870D01*
X33015Y28786D01*
X33184D01*
X33269Y28870D01*
Y28955D01*
X33184Y29040D01*
X33269Y29124D01*
Y29209D01*
X33184Y29040D02*
X33015D01*
X34200Y26858D02*
Y26350D01*
X33946D01*
X33861Y26435D01*
Y26773D01*
X33946Y26858D01*
X34200D01*
X33692D02*
X33354D01*
Y26773D01*
X33692Y26435D01*
Y26350D01*
X25664Y18423D02*
X25579Y18508D01*
X25410D01*
X25325Y18423D01*
Y18085D01*
X25410Y18000D01*
X25579D01*
X25664Y18085D01*
Y18254D01*
X25494D01*
X25833Y18000D02*
Y18508D01*
X26087D01*
X26171Y18423D01*
Y18254D01*
X26087Y18169D01*
X25833D01*
X26341Y18508D02*
X26510D01*
X26425D01*
Y18000D01*
X26341D01*
X26510D01*
X27018Y18508D02*
X26849D01*
X26764Y18423D01*
Y18085D01*
X26849Y18000D01*
X27018D01*
X27102Y18085D01*
Y18423D01*
X27018Y18508D01*
X27526Y18000D02*
Y18508D01*
X27272Y18254D01*
X27610D01*
X27780Y18000D02*
Y18085D01*
X27864D01*
Y18000D01*
X27780D01*
X28203D02*
Y18085D01*
X28287D01*
Y18000D01*
X28203D01*
X28626D02*
X28795D01*
X28711D01*
Y18508D01*
X28626Y18423D01*
X9725Y14550D02*
Y15058D01*
X9894Y14889D01*
X10064Y15058D01*
Y14550D01*
X10571Y14973D02*
X10487Y15058D01*
X10317D01*
X10233Y14973D01*
Y14635D01*
X10317Y14550D01*
X10487D01*
X10571Y14635D01*
X10741Y15058D02*
Y14550D01*
X11079D01*
X11248D02*
Y15058D01*
X11502D01*
X11587Y14973D01*
Y14804D01*
X11502Y14719D01*
X11248D01*
X11418D02*
X11587Y14550D01*
X11150Y13889D02*
Y13635D01*
X11235Y13550D01*
X11319Y13635D01*
X11404Y13550D01*
X11489Y13635D01*
Y13889D01*
X11658Y13550D02*
X11827D01*
X11742D01*
Y13889D01*
X11658D01*
X12081Y13550D02*
Y14058D01*
X12335D01*
X12420Y13973D01*
Y13804D01*
X12335Y13719D01*
X12081D01*
X12250D02*
X12420Y13550D01*
X12589Y14058D02*
X12927Y13550D01*
Y14058D02*
X12589Y13550D01*
X13097Y14058D02*
Y13550D01*
X13351D01*
X13435Y13635D01*
Y13973D01*
X13351Y14058D01*
X13097D01*
X13350Y14625D02*
Y15133D01*
X13604D01*
X13689Y15048D01*
Y14879D01*
X13604Y14794D01*
X13350D01*
X13519D02*
X13689Y14625D01*
X13858Y15133D02*
X14196Y14625D01*
Y15133D02*
X13858Y14625D01*
X14366Y15133D02*
Y14625D01*
X14620D01*
X14704Y14710D01*
Y15048D01*
X14620Y15133D01*
X14366D01*
X11875Y18264D02*
Y18010D01*
X11960Y17925D01*
X12044Y18010D01*
X12129Y17925D01*
X12214Y18010D01*
Y18264D01*
X12383Y17925D02*
X12552D01*
X12467D01*
Y18264D01*
X12383D01*
X12806Y18433D02*
X13145D01*
X12975D01*
Y17925D01*
X13314Y18433D02*
X13652Y17925D01*
Y18433D02*
X13314Y17925D01*
X13822Y18433D02*
Y17925D01*
X14076D01*
X14160Y18010D01*
Y18348D01*
X14076Y18433D01*
X13822D01*
X9800Y19308D02*
Y18800D01*
X10054D01*
X10139Y18885D01*
Y18969D01*
X10054Y19054D01*
X9800D01*
X10054D01*
X10139Y19139D01*
Y19223D01*
X10054Y19308D01*
X9800D01*
X10562D02*
X10392D01*
X10308Y19223D01*
Y18885D01*
X10392Y18800D01*
X10562D01*
X10646Y18885D01*
Y19223D01*
X10562Y19308D01*
X11070D02*
X10900D01*
X10816Y19223D01*
Y18885D01*
X10900Y18800D01*
X11070D01*
X11154Y18885D01*
Y19223D01*
X11070Y19308D01*
X11324D02*
X11662D01*
X11493D01*
Y18800D01*
X11831Y18715D02*
X12170D01*
X12678Y19308D02*
X12339D01*
Y18800D01*
X12678D01*
X12339Y19054D02*
X12508D01*
X12847Y18800D02*
Y19308D01*
X13186Y18800D01*
Y19308D01*
X9475Y18408D02*
X9814D01*
X9644D01*
Y17900D01*
X9983Y18408D02*
X10321Y17900D01*
Y18408D02*
X9983Y17900D01*
X10491Y18408D02*
Y17900D01*
X10745D01*
X10829Y17985D01*
Y18323D01*
X10745Y18408D01*
X10491D01*
X6850Y15700D02*
Y16208D01*
X7104D01*
X7189Y16123D01*
Y15954D01*
X7104Y15869D01*
X6850D01*
X7696Y16123D02*
X7612Y16208D01*
X7442D01*
X7358Y16123D01*
Y15785D01*
X7442Y15700D01*
X7612D01*
X7696Y15785D01*
Y15954D01*
X7527D01*
X8204Y16123D02*
X8120Y16208D01*
X7950D01*
X7866Y16123D01*
Y15785D01*
X7950Y15700D01*
X8120D01*
X8204Y15785D01*
X6875Y17358D02*
Y16850D01*
X7129D01*
X7214Y16935D01*
Y17273D01*
X7129Y17358D01*
X6875D01*
X7383Y16850D02*
X7552D01*
X7467D01*
Y17358D01*
X7383Y17273D01*
X7806D02*
X7891Y17358D01*
X8060D01*
X8145Y17273D01*
Y17189D01*
X8060Y17104D01*
X8145Y17019D01*
Y16935D01*
X8060Y16850D01*
X7891D01*
X7806Y16935D01*
Y17019D01*
X7891Y17104D01*
X7806Y17189D01*
Y17273D01*
X7891Y17104D02*
X8060D01*
X28372Y4775D02*
Y4352D01*
X28287Y4267D01*
X28118D01*
X28033Y4352D01*
Y4775D01*
X27864Y4690D02*
X27779Y4775D01*
X27610D01*
X27525Y4690D01*
Y4606D01*
X27610Y4521D01*
X27525Y4437D01*
Y4352D01*
X27610Y4267D01*
X27779D01*
X27864Y4352D01*
Y4437D01*
X27779Y4521D01*
X27864Y4606D01*
Y4690D01*
X27779Y4521D02*
X27610D01*
X27127Y1219D02*
Y711D01*
X26873D01*
X26789Y796D01*
Y881D01*
X26873Y965D01*
X27127D01*
X26873D01*
X26789Y1050D01*
Y1134D01*
X26873Y1219D01*
X27127D01*
X26619Y711D02*
Y1050D01*
X26450Y1219D01*
X26281Y1050D01*
Y711D01*
Y965D01*
X26619D01*
X26112Y1219D02*
X25773D01*
X25942D01*
Y711D01*
X25604Y1219D02*
X25265D01*
X25434D01*
Y711D01*
X25096D02*
X24927D01*
X25011D01*
Y1219D01*
X25096Y1134D01*
X17475Y16561D02*
Y16053D01*
X17306Y16222D01*
X17137Y16053D01*
Y16561D01*
X16967D02*
X16798D01*
X16883D01*
Y16053D01*
X16967D01*
X16798D01*
X16206Y16561D02*
X16544D01*
Y16307D01*
X16375D01*
X16544D01*
Y16053D01*
X16036Y16561D02*
X15867D01*
X15952D01*
Y16053D01*
X16036D01*
X15867D01*
X15613D02*
X15444D01*
X15529D01*
Y16561D01*
X15613Y16476D01*
X12387Y27296D02*
X12472Y27381D01*
X12641D01*
X12725Y27296D01*
Y26958D01*
X12641Y26873D01*
X12472D01*
X12387Y26958D01*
X12218Y26873D02*
X12048D01*
X12133D01*
Y27381D01*
X12218Y27296D01*
X11794Y26873D02*
X11625D01*
X11710D01*
Y27381D01*
X11794Y27296D01*
X15562D02*
X15647Y27381D01*
X15816D01*
X15900Y27296D01*
Y26958D01*
X15816Y26873D01*
X15647D01*
X15562Y26958D01*
X15054Y26873D02*
X15393D01*
X15054Y27212D01*
Y27296D01*
X15139Y27381D01*
X15308D01*
X15393Y27296D01*
X14546Y27381D02*
X14715Y27296D01*
X14885Y27127D01*
Y26958D01*
X14800Y26873D01*
X14631D01*
X14546Y26958D01*
Y27043D01*
X14631Y27127D01*
X14885D01*
X24943Y13919D02*
Y13581D01*
X24774Y13411D01*
X24604Y13581D01*
Y13919D01*
X24435Y13411D02*
Y13919D01*
X24181D01*
X24096Y13834D01*
Y13665D01*
X24181Y13581D01*
X24435D01*
X24266D02*
X24096Y13411D01*
X23927D02*
X23758D01*
X23843D01*
Y13919D01*
X23927Y13834D01*
X25248Y5258D02*
Y4834D01*
X25163Y4750D01*
X24994D01*
X24909Y4834D01*
Y5258D01*
X24486Y4750D02*
Y5258D01*
X24740Y5004D01*
X24401D01*
X24943Y9880D02*
Y9457D01*
X24858Y9373D01*
X24689D01*
X24604Y9457D01*
Y9880D01*
X24435Y9796D02*
X24350Y9880D01*
X24181D01*
X24096Y9796D01*
Y9711D01*
X24181Y9627D01*
X24266D01*
X24181D01*
X24096Y9542D01*
Y9457D01*
X24181Y9373D01*
X24350D01*
X24435Y9457D01*
X34332Y-288D02*
X34417Y-203D01*
X34586D01*
X34671Y-288D01*
Y-373D01*
X34586Y-457D01*
X34417D01*
X34332Y-542D01*
Y-627D01*
X34417Y-711D01*
X34586D01*
X34671Y-627D01*
X34163Y-203D02*
Y-711D01*
X33994Y-542D01*
X33825Y-711D01*
Y-203D01*
X33317D02*
X33486Y-288D01*
X33655Y-457D01*
Y-627D01*
X33571Y-711D01*
X33401D01*
X33317Y-627D01*
Y-542D01*
X33401Y-457D01*
X33655D01*
X34485Y11320D02*
X34570Y11404D01*
X34739D01*
X34823Y11320D01*
Y11235D01*
X34739Y11151D01*
X34570D01*
X34485Y11066D01*
Y10981D01*
X34570Y10897D01*
X34739D01*
X34823Y10981D01*
X34316Y11404D02*
Y10897D01*
X34146Y11066D01*
X33977Y10897D01*
Y11404D01*
X33469Y10897D02*
X33808D01*
X33469Y11235D01*
Y11320D01*
X33554Y11404D01*
X33723D01*
X33808Y11320D01*
X3327Y21260D02*
Y21768D01*
X3074D01*
X2989Y21683D01*
Y21514D01*
X3074Y21429D01*
X3327D01*
X3158D02*
X2989Y21260D01*
X2820D02*
X2650D01*
X2735D01*
Y21768D01*
X2820Y21683D01*
X2058Y21768D02*
X2227Y21683D01*
X2396Y21514D01*
Y21344D01*
X2312Y21260D01*
X2142D01*
X2058Y21344D01*
Y21429D01*
X2142Y21514D01*
X2396D01*
X5918Y21285D02*
Y21793D01*
X5664D01*
X5580Y21708D01*
Y21539D01*
X5664Y21455D01*
X5918D01*
X5749D02*
X5580Y21285D01*
X5410D02*
X5241D01*
X5326D01*
Y21793D01*
X5410Y21708D01*
X4649Y21793D02*
X4987D01*
Y21539D01*
X4818Y21624D01*
X4733D01*
X4649Y21539D01*
Y21370D01*
X4733Y21285D01*
X4903D01*
X4987Y21370D01*
X19075Y2946D02*
Y3454D01*
X18822D01*
X18737Y3370D01*
Y3200D01*
X18822Y3116D01*
X19075D01*
X18906D02*
X18737Y2946D01*
X18568D02*
X18398D01*
X18483D01*
Y3454D01*
X18568Y3370D01*
X17890Y2946D02*
Y3454D01*
X18144Y3200D01*
X17806D01*
X30226Y279D02*
Y787D01*
X29972D01*
X29887Y703D01*
Y533D01*
X29972Y449D01*
X30226D01*
X30057D02*
X29887Y279D01*
X29718D02*
X29549D01*
X29634D01*
Y787D01*
X29718Y703D01*
X29295D02*
X29210Y787D01*
X29041D01*
X28956Y703D01*
Y618D01*
X29041Y533D01*
X29126D01*
X29041D01*
X28956Y449D01*
Y364D01*
X29041Y279D01*
X29210D01*
X29295Y364D01*
X1549Y21234D02*
Y21742D01*
X1296D01*
X1211Y21658D01*
Y21488D01*
X1296Y21404D01*
X1549D01*
X1380D02*
X1211Y21234D01*
X1042D02*
X872D01*
X957D01*
Y21742D01*
X1042Y21658D01*
X280Y21234D02*
X618D01*
X280Y21573D01*
Y21658D01*
X364Y21742D01*
X534D01*
X618Y21658D01*
X18898Y6121D02*
Y5613D01*
X18644D01*
X18559Y5698D01*
Y6037D01*
X18644Y6121D01*
X18898D01*
X18390Y5613D02*
X18221D01*
X18305D01*
Y6121D01*
X18390Y6037D01*
X17628Y5613D02*
X17967D01*
X17628Y5952D01*
Y6037D01*
X17713Y6121D01*
X17882D01*
X17967Y6037D01*
X29718Y-1270D02*
Y-1778D01*
X29464D01*
X29379Y-1693D01*
Y-1355D01*
X29464Y-1270D01*
X29718D01*
X29210Y-1778D02*
X29041D01*
X29126D01*
Y-1270D01*
X29210Y-1355D01*
X28787Y-1778D02*
X28618D01*
X28702D01*
Y-1270D01*
X28787Y-1355D01*
X29591Y9449D02*
Y8941D01*
X29337D01*
X29252Y9025D01*
Y9364D01*
X29337Y9449D01*
X29591D01*
X29083Y9364D02*
X28999Y9449D01*
X28829D01*
X28745Y9364D01*
Y9279D01*
X28829Y9195D01*
X28745Y9110D01*
Y9025D01*
X28829Y8941D01*
X28999D01*
X29083Y9025D01*
Y9110D01*
X28999Y9195D01*
X29083Y9279D01*
Y9364D01*
X28999Y9195D02*
X28829D01*
X3302Y27254D02*
Y26746D01*
X3048D01*
X2963Y26831D01*
Y27169D01*
X3048Y27254D01*
X3302D01*
X2456Y26746D02*
X2794D01*
X2456Y27085D01*
Y27169D01*
X2540Y27254D01*
X2710D01*
X2794Y27169D01*
X31386Y26941D02*
X31471Y27025D01*
X31640D01*
X31725Y26941D01*
Y26602D01*
X31640Y26518D01*
X31471D01*
X31386Y26602D01*
X30878Y27025D02*
X31048Y26941D01*
X31217Y26772D01*
Y26602D01*
X31132Y26518D01*
X30963D01*
X30878Y26602D01*
Y26687D01*
X30963Y26772D01*
X31217D01*
X30370Y27025D02*
X30540Y26941D01*
X30709Y26772D01*
Y26602D01*
X30624Y26518D01*
X30455D01*
X30370Y26602D01*
Y26687D01*
X30455Y26772D01*
X30709D01*
X28211Y26941D02*
X28296Y27025D01*
X28465D01*
X28550Y26941D01*
Y26602D01*
X28465Y26518D01*
X28296D01*
X28211Y26602D01*
X27703Y27025D02*
X27873Y26941D01*
X28042Y26772D01*
Y26602D01*
X27957Y26518D01*
X27788D01*
X27703Y26602D01*
Y26687D01*
X27788Y26772D01*
X28042D01*
X27195Y27025D02*
X27534D01*
Y26772D01*
X27365Y26856D01*
X27280D01*
X27195Y26772D01*
Y26602D01*
X27280Y26518D01*
X27449D01*
X27534Y26602D01*
X25061Y26941D02*
X25146Y27025D01*
X25315D01*
X25400Y26941D01*
Y26602D01*
X25315Y26518D01*
X25146D01*
X25061Y26602D01*
X24554Y27025D02*
X24723Y26941D01*
X24892Y26772D01*
Y26602D01*
X24808Y26518D01*
X24638D01*
X24554Y26602D01*
Y26687D01*
X24638Y26772D01*
X24892D01*
X24130Y26518D02*
Y27025D01*
X24384Y26772D01*
X24046D01*
X21886Y26941D02*
X21971Y27025D01*
X22140D01*
X22225Y26941D01*
Y26602D01*
X22140Y26518D01*
X21971D01*
X21886Y26602D01*
X21379Y27025D02*
X21548Y26941D01*
X21717Y26772D01*
Y26602D01*
X21633Y26518D01*
X21463D01*
X21379Y26602D01*
Y26687D01*
X21463Y26772D01*
X21717D01*
X21209Y26941D02*
X21125Y27025D01*
X20955D01*
X20871Y26941D01*
Y26856D01*
X20955Y26772D01*
X21040D01*
X20955D01*
X20871Y26687D01*
Y26602D01*
X20955Y26518D01*
X21125D01*
X21209Y26602D01*
X28363Y14520D02*
X28448Y14605D01*
X28617D01*
X28702Y14520D01*
Y14182D01*
X28617Y14097D01*
X28448D01*
X28363Y14182D01*
X27940Y14097D02*
Y14605D01*
X28194Y14351D01*
X27856D01*
X27432Y14097D02*
Y14605D01*
X27686Y14351D01*
X27348D01*
X30065Y11853D02*
X30150Y11938D01*
X30319D01*
X30404Y11853D01*
Y11515D01*
X30319Y11430D01*
X30150D01*
X30065Y11515D01*
X29642Y11430D02*
Y11938D01*
X29896Y11684D01*
X29557D01*
X29050Y11430D02*
X29388D01*
X29050Y11769D01*
Y11853D01*
X29134Y11938D01*
X29304D01*
X29388Y11853D01*
X30446Y11117D02*
X30531Y11201D01*
X30700D01*
X30785Y11117D01*
Y10778D01*
X30700Y10693D01*
X30531D01*
X30446Y10778D01*
X30023Y10693D02*
Y11201D01*
X30277Y10947D01*
X29938D01*
X29769Y10693D02*
X29600D01*
X29685D01*
Y11201D01*
X29769Y11117D01*
X26128Y3649D02*
X26213Y3734D01*
X26382D01*
X26467Y3649D01*
Y3310D01*
X26382Y3226D01*
X26213D01*
X26128Y3310D01*
X25959Y3649D02*
X25874Y3734D01*
X25705D01*
X25620Y3649D01*
Y3564D01*
X25705Y3480D01*
X25790D01*
X25705D01*
X25620Y3395D01*
Y3310D01*
X25705Y3226D01*
X25874D01*
X25959Y3310D01*
X25451Y3649D02*
X25367Y3734D01*
X25197D01*
X25113Y3649D01*
Y3564D01*
X25197Y3480D01*
X25113Y3395D01*
Y3310D01*
X25197Y3226D01*
X25367D01*
X25451Y3310D01*
Y3395D01*
X25367Y3480D01*
X25451Y3564D01*
Y3649D01*
X25367Y3480D02*
X25197D01*
X20591Y4513D02*
X20676Y4597D01*
X20845D01*
X20930Y4513D01*
Y4174D01*
X20845Y4089D01*
X20676D01*
X20591Y4174D01*
X20422Y4513D02*
X20337Y4597D01*
X20168D01*
X20083Y4513D01*
Y4428D01*
X20168Y4343D01*
X20253D01*
X20168D01*
X20083Y4259D01*
Y4174D01*
X20168Y4089D01*
X20337D01*
X20422Y4174D01*
X19914Y4597D02*
X19575D01*
Y4513D01*
X19914Y4174D01*
Y4089D01*
X26128Y12717D02*
X26213Y12801D01*
X26382D01*
X26467Y12717D01*
Y12378D01*
X26382Y12294D01*
X26213D01*
X26128Y12378D01*
X25959Y12717D02*
X25874Y12801D01*
X25705D01*
X25620Y12717D01*
Y12632D01*
X25705Y12548D01*
X25790D01*
X25705D01*
X25620Y12463D01*
Y12378D01*
X25705Y12294D01*
X25874D01*
X25959Y12378D01*
X25113Y12801D02*
X25282Y12717D01*
X25451Y12548D01*
Y12378D01*
X25367Y12294D01*
X25197D01*
X25113Y12378D01*
Y12463D01*
X25197Y12548D01*
X25451D01*
X20439Y6418D02*
X20523Y6502D01*
X20693D01*
X20777Y6418D01*
Y6079D01*
X20693Y5994D01*
X20523D01*
X20439Y6079D01*
X20269Y6418D02*
X20185Y6502D01*
X20015D01*
X19931Y6418D01*
Y6333D01*
X20015Y6248D01*
X20100D01*
X20015D01*
X19931Y6164D01*
Y6079D01*
X20015Y5994D01*
X20185D01*
X20269Y6079D01*
X19423Y6502D02*
X19762D01*
Y6248D01*
X19592Y6333D01*
X19508D01*
X19423Y6248D01*
Y6079D01*
X19508Y5994D01*
X19677D01*
X19762Y6079D01*
X18711Y26941D02*
X18796Y27025D01*
X18965D01*
X19050Y26941D01*
Y26602D01*
X18965Y26518D01*
X18796D01*
X18711Y26602D01*
X18542Y26941D02*
X18458Y27025D01*
X18288D01*
X18204Y26941D01*
Y26856D01*
X18288Y26772D01*
X18373D01*
X18288D01*
X18204Y26687D01*
Y26602D01*
X18288Y26518D01*
X18458D01*
X18542Y26602D01*
X17780Y26518D02*
Y27025D01*
X18034Y26772D01*
X17696D01*
X26890Y9593D02*
X26975Y9677D01*
X27144D01*
X27229Y9593D01*
Y9254D01*
X27144Y9169D01*
X26975D01*
X26890Y9254D01*
X26721Y9593D02*
X26636Y9677D01*
X26467D01*
X26382Y9593D01*
Y9508D01*
X26467Y9423D01*
X26552D01*
X26467D01*
X26382Y9339D01*
Y9254D01*
X26467Y9169D01*
X26636D01*
X26721Y9254D01*
X26213Y9593D02*
X26129Y9677D01*
X25959D01*
X25875Y9593D01*
Y9508D01*
X25959Y9423D01*
X26044D01*
X25959D01*
X25875Y9339D01*
Y9254D01*
X25959Y9169D01*
X26129D01*
X26213Y9254D01*
X22191Y14901D02*
X22276Y14986D01*
X22445D01*
X22530Y14901D01*
Y14563D01*
X22445Y14478D01*
X22276D01*
X22191Y14563D01*
X22022Y14901D02*
X21937Y14986D01*
X21768D01*
X21683Y14901D01*
Y14817D01*
X21768Y14732D01*
X21853D01*
X21768D01*
X21683Y14647D01*
Y14563D01*
X21768Y14478D01*
X21937D01*
X22022Y14563D01*
X21176Y14478D02*
X21514D01*
X21176Y14817D01*
Y14901D01*
X21260Y14986D01*
X21430D01*
X21514Y14901D01*
X19600Y9415D02*
X19685Y9499D01*
X19854D01*
X19939Y9415D01*
Y9076D01*
X19854Y8992D01*
X19685D01*
X19600Y9076D01*
X19431Y9415D02*
X19347Y9499D01*
X19177D01*
X19093Y9415D01*
Y9330D01*
X19177Y9246D01*
X19262D01*
X19177D01*
X19093Y9161D01*
Y9076D01*
X19177Y8992D01*
X19347D01*
X19431Y9076D01*
X18923Y8992D02*
X18754D01*
X18839D01*
Y9499D01*
X18923Y9415D01*
X24782Y14977D02*
X24867Y15062D01*
X25036D01*
X25121Y14977D01*
Y14639D01*
X25036Y14554D01*
X24867D01*
X24782Y14639D01*
X24613Y14977D02*
X24528Y15062D01*
X24359D01*
X24274Y14977D01*
Y14893D01*
X24359Y14808D01*
X24444D01*
X24359D01*
X24274Y14724D01*
Y14639D01*
X24359Y14554D01*
X24528D01*
X24613Y14639D01*
X24105Y14977D02*
X24020Y15062D01*
X23851D01*
X23766Y14977D01*
Y14639D01*
X23851Y14554D01*
X24020D01*
X24105Y14639D01*
Y14977D01*
X20312Y14927D02*
X20396Y15011D01*
X20566D01*
X20650Y14927D01*
Y14588D01*
X20566Y14503D01*
X20396D01*
X20312Y14588D01*
X19804Y14503D02*
X20142D01*
X19804Y14842D01*
Y14927D01*
X19889Y15011D01*
X20058D01*
X20142Y14927D01*
X19635Y14588D02*
X19550Y14503D01*
X19381D01*
X19296Y14588D01*
Y14927D01*
X19381Y15011D01*
X19550D01*
X19635Y14927D01*
Y14842D01*
X19550Y14757D01*
X19296D01*
X24503Y16679D02*
X24587Y16764D01*
X24757D01*
X24841Y16679D01*
Y16341D01*
X24757Y16256D01*
X24587D01*
X24503Y16341D01*
X24333Y16256D02*
X24164D01*
X24249D01*
Y16764D01*
X24333Y16679D01*
X23910Y16764D02*
X23572D01*
Y16679D01*
X23910Y16341D01*
Y16256D01*
X30522Y15790D02*
X30607Y15875D01*
X30776D01*
X30861Y15790D01*
Y15452D01*
X30776Y15367D01*
X30607D01*
X30522Y15452D01*
X30353Y15367D02*
X30184D01*
X30269D01*
Y15875D01*
X30353Y15790D01*
X29676Y15367D02*
Y15875D01*
X29930Y15621D01*
X29591D01*
X24782Y15841D02*
X24867Y15926D01*
X25036D01*
X25121Y15841D01*
Y15502D01*
X25036Y15418D01*
X24867D01*
X24782Y15502D01*
X24613Y15418D02*
X24444D01*
X24528D01*
Y15926D01*
X24613Y15841D01*
X24190D02*
X24105Y15926D01*
X23936D01*
X23851Y15841D01*
Y15756D01*
X23936Y15672D01*
X24020D01*
X23936D01*
X23851Y15587D01*
Y15502D01*
X23936Y15418D01*
X24105D01*
X24190Y15502D01*
X9212Y27296D02*
X9297Y27381D01*
X9466D01*
X9550Y27296D01*
Y26958D01*
X9466Y26873D01*
X9297D01*
X9212Y26958D01*
X9043D02*
X8958Y26873D01*
X8789D01*
X8704Y26958D01*
Y27296D01*
X8789Y27381D01*
X8958D01*
X9043Y27296D01*
Y27212D01*
X8958Y27127D01*
X8704D01*
X6062Y27296D02*
X6147Y27381D01*
X6316D01*
X6401Y27296D01*
Y26958D01*
X6316Y26873D01*
X6147D01*
X6062Y26958D01*
X5893Y27296D02*
X5808Y27381D01*
X5639D01*
X5554Y27296D01*
Y27212D01*
X5639Y27127D01*
X5724D01*
X5639D01*
X5554Y27043D01*
Y26958D01*
X5639Y26873D01*
X5808D01*
X5893Y26958D01*
D89*
X2907Y27187D02*
Y28863D01*
X494Y27187D02*
Y28863D01*
X5781Y27187D02*
Y28863D01*
X3368Y27187D02*
Y28863D01*
X8657Y27187D02*
Y28863D01*
X6244Y27187D02*
Y28863D01*
X11531Y27187D02*
Y28863D01*
X9118Y27187D02*
Y28863D01*
X25881Y27187D02*
Y28863D01*
X23468Y27187D02*
Y28863D01*
X28757Y27187D02*
Y28863D01*
X26344Y27187D02*
Y28863D01*
X31631Y27187D02*
Y28863D01*
X29218Y27187D02*
Y28863D01*
X34507Y27187D02*
Y28863D01*
X32094Y27187D02*
Y28863D01*
X34507Y23112D02*
Y24788D01*
X32094Y23112D02*
Y24788D01*
X28203Y6465D02*
Y7035D01*
X29447Y6465D02*
Y7035D01*
X494Y23112D02*
Y24788D01*
X2907Y23112D02*
Y24788D01*
X29943Y22116D02*
X30485D01*
X29943Y25773D02*
X30485D01*
X26779Y22121D02*
X27321D01*
X26779Y25779D02*
X27321D01*
X23629Y22121D02*
X24171D01*
X23629Y25779D02*
X24171D01*
X20454Y22121D02*
X20996D01*
X20454Y25779D02*
X20996D01*
X17279Y22121D02*
X17821D01*
X17279Y25779D02*
X17821D01*
X14129D02*
X14671D01*
X14129Y22121D02*
X14671D01*
X10954Y25779D02*
X11496D01*
X10954Y22121D02*
X11496D01*
X7779Y25779D02*
X8321D01*
X7779Y22121D02*
X8321D01*
X4615Y25773D02*
X5157D01*
X4615Y22116D02*
X5157D01*
D123*
X-237Y29574D02*
X610Y28728D01*
Y29574D02*
X-237Y28728D01*
X187Y29574D02*
Y28728D01*
X610Y29151D02*
X-237D01*
X2638Y29574D02*
X3485Y28728D01*
Y29574D02*
X2638Y28728D01*
X3062Y29574D02*
Y28728D01*
X3485Y29151D02*
X2638D01*
X5513Y29574D02*
X6360Y28728D01*
Y29574D02*
X5513Y28728D01*
X5937Y29574D02*
Y28728D01*
X6360Y29151D02*
X5513D01*
X8388Y29574D02*
X9235Y28728D01*
Y29574D02*
X8388Y28728D01*
X8812Y29574D02*
Y28728D01*
X9235Y29151D02*
X8388D01*
X22738Y29574D02*
X23585Y28728D01*
Y29574D02*
X22738Y28728D01*
X23162Y29574D02*
Y28728D01*
X23585Y29151D02*
X22738D01*
X25613Y29574D02*
X26460Y28728D01*
Y29574D02*
X25613Y28728D01*
X26037Y29574D02*
Y28728D01*
X26460Y29151D02*
X25613D01*
X28488Y29574D02*
X29335Y28728D01*
Y29574D02*
X28488Y28728D01*
X28912Y29574D02*
Y28728D01*
X29335Y29151D02*
X28488D01*
X31363Y29574D02*
X32210Y28728D01*
Y29574D02*
X31363Y28728D01*
X31787Y29574D02*
Y28728D01*
X32210Y29151D02*
X31363D01*
X35237Y22401D02*
X34390Y23247D01*
Y22401D02*
X35237Y23247D01*
X34813Y22401D02*
Y23247D01*
X34390Y22824D02*
X35237D01*
X-237Y25499D02*
X610Y24653D01*
Y25499D02*
X-237Y24653D01*
X187Y25499D02*
Y24653D01*
X610Y25076D02*
X-237D01*
X28906Y21705D02*
X29753Y22552D01*
X28906D02*
X29753Y21705D01*
X28906Y22129D02*
X29753D01*
X29330Y22552D02*
Y21705D01*
X25742Y21711D02*
X26588Y22557D01*
X25742D02*
X26588Y21711D01*
X25742Y22134D02*
X26588D01*
X26165Y22557D02*
Y21711D01*
X22592D02*
X23438Y22557D01*
X22592D02*
X23438Y21711D01*
X22592Y22134D02*
X23438D01*
X23015Y22557D02*
Y21711D01*
X19417D02*
X20263Y22557D01*
X19417D02*
X20263Y21711D01*
X19417Y22134D02*
X20263D01*
X19840Y22557D02*
Y21711D01*
X16242D02*
X17088Y22557D01*
X16242D02*
X17088Y21711D01*
X16242Y22134D02*
X17088D01*
X16665Y22557D02*
Y21711D01*
X15708Y26189D02*
X14862Y25343D01*
X15708D02*
X14862Y26189D01*
X15708Y25766D02*
X14862D01*
X15285Y25343D02*
Y26189D01*
X12533D02*
X11687Y25343D01*
X12533D02*
X11687Y26189D01*
X12533Y25766D02*
X11687D01*
X12110Y25343D02*
Y26189D01*
X9358D02*
X8512Y25343D01*
X9358D02*
X8512Y26189D01*
X9358Y25766D02*
X8512D01*
X8935Y25343D02*
Y26189D01*
X6194Y26184D02*
X5347Y25337D01*
X6194D02*
X5347Y26184D01*
X6194Y25760D02*
X5347D01*
X5771Y25337D02*
Y26184D01*
M02*
